Grandstander-Thin.ufo
<glyph name="exclam" format="2">
  <advance width="708"/>
  <unicode hex="0021"/>
  <outline>
    <contour>
      <point x="322" y="341" type="curve"/>
      <point x="322" y="628"/>
      <point x="336" y="1255"/>
      <point x="364" y="1467" type="curve"/>
      <point x="284" y="1472" type="line"/>
      <point x="262" y="1318"/>
      <point x="253" y="666"/>
      <point x="253" y="345" type="curve"/>
      <point x="260" y="343"/>
      <point x="310" y="341"/>
    </contour>
    <contour>
      <point x="294" y="-27" type="curve" smooth="yes"/>
      <point x="357" y="-27"/>
      <point x="407" y="16"/>
      <point x="407" y="77" type="curve" smooth="yes"/>
      <point x="407" y="141"/>
      <point x="356" y="186"/>
      <point x="292" y="186" type="curve" smooth="yes"/>
      <point x="236" y="186"/>
      <point x="174" y="150"/>
      <point x="174" y="83" type="curve" smooth="yes"/>
      <point x="174" y="20"/>
      <point x="215" y="-27"/>
    </contour>
  </outline>
</glyph>
<glyph name="quotedbl" format="2">
  <advance width="764"/>
  <unicode hex="0022"/>
  <outline>
    <contour>
      <point x="287" y="1053" type="curve"/>
      <point x="296" y="1130"/>
      <point x="299" y="1263"/>
      <point x="299" y="1410" type="curve" smooth="yes"/>
      <point x="299" y="1432"/>
      <point x="299" y="1450"/>
      <point x="299" y="1462" type="curve"/>
      <point x="292" y="1463"/>
      <point x="285" y="1463"/>
      <point x="278" y="1463" type="curve" smooth="yes"/>
      <point x="251" y="1463"/>
      <point x="230" y="1457"/>
      <point x="219" y="1451" type="curve"/>
      <point x="219" y="1378"/>
      <point x="239" y="1133"/>
      <point x="246" y="1055" type="curve"/>
      <point x="256" y="1054"/>
      <point x="269" y="1053"/>
    </contour>
    <contour>
      <point x="438" y="1058" type="curve"/>
      <point x="449" y="1057"/>
      <point x="467" y="1056"/>
      <point x="482" y="1056" type="curve"/>
      <point x="499" y="1180"/>
      <point x="510" y="1341"/>
      <point x="510" y="1426" type="curve" smooth="yes"/>
      <point x="510" y="1438"/>
      <point x="510" y="1449"/>
      <point x="509" y="1458" type="curve"/>
      <point x="491" y="1458"/>
      <point x="453" y="1454"/>
      <point x="443" y="1452" type="curve"/>
      <point x="439" y="1399"/>
      <point x="437" y="1259"/>
      <point x="437" y="1151" type="curve" smooth="yes"/>
      <point x="437" y="1113"/>
      <point x="437" y="1082"/>
    </contour>
  </outline>
</glyph>
<glyph name="numbersign" format="2">
  <advance width="1511"/>
  <unicode hex="0023"/>
  <outline>
    <contour>
      <point x="67" y="900" type="curve"/>
      <point x="242" y="900"/>
      <point x="463" y="909"/>
      <point x="694" y="920" type="curve" smooth="yes"/>
      <point x="946" y="932"/>
      <point x="1211" y="942"/>
      <point x="1441" y="942" type="curve"/>
      <point x="1448" y="971"/>
      <point x="1450" y="1005"/>
      <point x="1450" y="1038" type="curve"/>
      <point x="1214" y="1038"/>
      <point x="985" y="1023"/>
      <point x="757" y="1008" type="curve" smooth="yes"/>
      <point x="532" y="993"/>
      <point x="306" y="978"/>
      <point x="74" y="978" type="curve"/>
      <point x="70" y="958"/>
      <point x="67" y="929"/>
    </contour>
    <contour>
      <point x="1417" y="476" type="curve"/>
      <point x="1423" y="494"/>
      <point x="1427" y="531"/>
      <point x="1427" y="577" type="curve"/>
      <point x="1268" y="577"/>
      <point x="1107" y="579"/>
      <point x="944" y="582" type="curve" smooth="yes"/>
      <point x="781" y="585"/>
      <point x="616" y="587"/>
      <point x="451" y="587" type="curve" smooth="yes"/>
      <point x="312" y="587"/>
      <point x="173" y="586"/>
      <point x="34" y="581" type="curve"/>
      <point x="29" y="552"/>
      <point x="26" y="526"/>
      <point x="26" y="496" type="curve"/>
      <point x="91" y="498"/>
      <point x="162" y="499"/>
      <point x="239" y="499" type="curve" smooth="yes"/>
      <point x="415" y="499"/>
      <point x="617" y="499"/>
      <point x="820" y="491" type="curve" smooth="yes"/>
      <point x="1027" y="483"/>
      <point x="1234" y="476"/>
    </contour>
    <contour>
      <point x="465" y="-5" type="curve"/>
      <point x="496" y="-5"/>
      <point x="530" y="-3"/>
      <point x="556" y="2" type="curve"/>
      <point x="556" y="468"/>
      <point x="556" y="1091"/>
      <point x="574" y="1477" type="curve"/>
      <point x="550" y="1477"/>
      <point x="528" y="1476"/>
      <point x="499" y="1470" type="curve"/>
      <point x="469" y="1005"/>
      <point x="465" y="330"/>
    </contour>
    <contour>
      <point x="986" y="84" type="curve"/>
      <point x="1021" y="84"/>
      <point x="1050" y="88"/>
      <point x="1074" y="92" type="curve"/>
      <point x="1055" y="364"/>
      <point x="1048" y="690"/>
      <point x="1048" y="986" type="curve" smooth="yes"/>
      <point x="1048" y="1170"/>
      <point x="1050" y="1343"/>
      <point x="1055" y="1484" type="curve"/>
      <point x="1014" y="1484"/>
      <point x="995" y="1482"/>
      <point x="966" y="1477" type="curve"/>
      <point x="958" y="1311"/>
      <point x="954" y="1125"/>
      <point x="954" y="931" type="curve" smooth="yes"/>
      <point x="954" y="653"/>
      <point x="963" y="358"/>
    </contour>
  </outline>
</glyph>
<glyph name="dollar" format="2">
  <advance width="1027"/>
  <unicode hex="0024"/>
  <anchor x="498" y="101" name="bottom"/>
  <anchor x="518" y="1254" name="top"/>
  <outline>
    <contour>
      <point x="522" y="-82" type="line"/>
      <point x="525" y="-33"/>
      <point x="535" y="83"/>
      <point x="541" y="127" type="curve"/>
      <point x="468" y="132" type="line"/>
      <point x="462" y="98"/>
      <point x="444" y="-43"/>
      <point x="442" y="-72" type="curve"/>
    </contour>
    <contour>
      <point x="485" y="1222" type="curve"/>
      <point x="560" y="1222" type="line"/>
      <point x="563" y="1257"/>
      <point x="564" y="1360"/>
      <point x="564" y="1410" type="curve"/>
      <point x="490" y="1408" type="line"/>
      <point x="490" y="1374"/>
      <point x="487" y="1251"/>
    </contour>
    <component base="s" yOffset="161"/>
  </outline>
</glyph>
<glyph name="percent" format="2">
  <advance width="1385"/>
  <unicode hex="0025"/>
  <outline>
    <contour>
      <point x="192" y="-5" type="curve"/>
      <point x="347" y="187"/>
      <point x="1036" y="1179"/>
      <point x="1152" y="1379" type="curve"/>
      <point x="1137" y="1394"/>
      <point x="1110" y="1408"/>
      <point x="1092" y="1415" type="curve"/>
      <point x="949" y="1161"/>
      <point x="401" y="385"/>
      <point x="144" y="29" type="curve"/>
      <point x="157" y="17"/>
      <point x="176" y="5"/>
    </contour>
    <contour>
      <point x="964" y="193" type="curve" smooth="yes"/>
      <point x="848" y="193"/>
      <point x="796" y="270"/>
      <point x="796" y="376" type="curve" smooth="yes"/>
      <point x="796" y="463"/>
      <point x="865" y="538"/>
      <point x="952" y="538" type="curve" smooth="yes"/>
      <point x="1059" y="538"/>
      <point x="1120" y="472"/>
      <point x="1120" y="373" type="curve" smooth="yes"/>
      <point x="1120" y="253"/>
      <point x="1066" y="193"/>
    </contour>
    <contour>
      <point x="968" y="137" type="curve" smooth="yes"/>
      <point x="1079" y="137"/>
      <point x="1188" y="224"/>
      <point x="1188" y="364" type="curve" smooth="yes"/>
      <point x="1188" y="495"/>
      <point x="1115" y="605"/>
      <point x="956" y="605" type="curve" smooth="yes"/>
      <point x="842" y="605"/>
      <point x="733" y="505"/>
      <point x="733" y="375" type="curve" smooth="yes"/>
      <point x="733" y="223"/>
      <point x="819" y="137"/>
    </contour>
    <contour>
      <point x="402" y="821" type="curve" smooth="yes"/>
      <point x="515" y="821"/>
      <point x="632" y="887"/>
      <point x="632" y="1041" type="curve" smooth="yes"/>
      <point x="632" y="1174"/>
      <point x="549" y="1258"/>
      <point x="416" y="1258" type="curve" smooth="yes"/>
      <point x="296" y="1258"/>
      <point x="184" y="1186"/>
      <point x="184" y="1045" type="curve" smooth="yes"/>
      <point x="184" y="918"/>
      <point x="265" y="821"/>
    </contour>
    <contour>
      <point x="412" y="880" type="curve" smooth="yes"/>
      <point x="301" y="880"/>
      <point x="249" y="940"/>
      <point x="249" y="1050" type="curve" smooth="yes"/>
      <point x="249" y="1151"/>
      <point x="330" y="1203"/>
      <point x="425" y="1203" type="curve" smooth="yes"/>
      <point x="504" y="1203"/>
      <point x="565" y="1140"/>
      <point x="565" y="1034" type="curve" smooth="yes"/>
      <point x="565" y="937"/>
      <point x="501" y="880"/>
    </contour>
  </outline>
</glyph>
<glyph name="ampersand" format="2">
  <advance width="1395"/>
  <unicode hex="0026"/>
  <outline>
    <contour>
      <point x="521" y="-100" type="curve" smooth="yes"/>
      <point x="830" y="-100"/>
      <point x="995" y="103"/>
      <point x="1024" y="141" type="curve"/>
      <point x="1056" y="103"/>
      <point x="1148" y="-6"/>
      <point x="1191" y="-53" type="curve"/>
      <point x="1202" y="-47"/>
      <point x="1253" y="0"/>
      <point x="1265" y="13" type="curve"/>
      <point x="1216" y="68"/>
      <point x="1125" y="169"/>
      <point x="1074" y="224" type="curve"/>
      <point x="1142" y="324"/>
      <point x="1232" y="482"/>
      <point x="1244" y="511" type="curve"/>
      <point x="1222" y="531"/>
      <point x="1191" y="552"/>
      <point x="1169" y="565" type="curve"/>
      <point x="1156" y="538"/>
      <point x="1056" y="353"/>
      <point x="1015" y="294" type="curve"/>
      <point x="908" y="413"/>
      <point x="655" y="697"/>
      <point x="556" y="810" type="curve"/>
      <point x="690" y="926"/>
      <point x="790" y="1015"/>
      <point x="790" y="1180" type="curve" smooth="yes"/>
      <point x="790" y="1289"/>
      <point x="725" y="1417"/>
      <point x="540" y="1417" type="curve" smooth="yes"/>
      <point x="393" y="1417"/>
      <point x="260" y="1344"/>
      <point x="260" y="1159" type="curve" smooth="yes"/>
      <point x="260" y="1023"/>
      <point x="377" y="878"/>
      <point x="427" y="830" type="curve"/>
      <point x="269" y="728"/>
      <point x="62" y="553"/>
      <point x="62" y="311" type="curve" smooth="yes"/>
      <point x="62" y="70"/>
      <point x="231" y="-100"/>
    </contour>
    <contour>
      <point x="545" y="-21" type="curve" smooth="yes"/>
      <point x="328" y="-21"/>
      <point x="144" y="112"/>
      <point x="144" y="305" type="curve" smooth="yes"/>
      <point x="144" y="547"/>
      <point x="349" y="686"/>
      <point x="482" y="772" type="curve"/>
      <point x="571" y="666"/>
      <point x="844" y="345"/>
      <point x="969" y="215" type="curve"/>
      <point x="941" y="173"/>
      <point x="804" y="-21"/>
    </contour>
    <contour>
      <point x="502" y="865" type="curve"/>
      <point x="424" y="947"/>
      <point x="341" y="1054"/>
      <point x="341" y="1163" type="curve" smooth="yes"/>
      <point x="341" y="1263"/>
      <point x="421" y="1341"/>
      <point x="533" y="1341" type="curve" smooth="yes"/>
      <point x="666" y="1341"/>
      <point x="707" y="1261"/>
      <point x="707" y="1179" type="curve" smooth="yes"/>
      <point x="707" y="1048"/>
      <point x="620" y="945"/>
    </contour>
  </outline>
</glyph>
<glyph name="quotesingle" format="2">
  <advance width="462"/>
  <unicode hex="0027"/>
  <outline>
    <contour>
      <point x="268" y="1385" type="curve" smooth="yes"/>
      <point x="268" y="1412"/>
      <point x="268" y="1437"/>
      <point x="267" y="1460" type="curve"/>
      <point x="258" y="1461"/>
      <point x="246" y="1462"/>
      <point x="234" y="1462" type="curve" smooth="yes"/>
      <point x="215" y="1462"/>
      <point x="195" y="1460"/>
      <point x="179" y="1458" type="curve"/>
      <point x="179" y="1385"/>
      <point x="191" y="1182"/>
      <point x="202" y="1042" type="curve"/>
      <point x="207" y="1041"/>
      <point x="220" y="1039"/>
      <point x="233" y="1039" type="curve" smooth="yes"/>
      <point x="240" y="1039"/>
      <point x="247" y="1039"/>
      <point x="251" y="1040" type="curve"/>
      <point x="261" y="1142"/>
      <point x="268" y="1275"/>
    </contour>
  </outline>
</glyph>
<glyph name="parenleft" format="2">
  <advance width="677"/>
  <unicode hex="0028"/>
  <outline>
    <contour>
      <point x="376" y="-470" type="curve"/>
      <point x="385" y="-465"/>
      <point x="417" y="-434"/>
      <point x="432" y="-419" type="curve"/>
      <point x="304" y="-269"/>
      <point x="203" y="74"/>
      <point x="203" y="478" type="curve" smooth="yes"/>
      <point x="203" y="815"/>
      <point x="266" y="1180"/>
      <point x="427" y="1470" type="curve"/>
      <point x="417" y="1477"/>
      <point x="368" y="1495"/>
      <point x="357" y="1499" type="curve"/>
      <point x="210" y="1232"/>
      <point x="131" y="846"/>
      <point x="131" y="485" type="curve" smooth="yes"/>
      <point x="131" y="89"/>
      <point x="223" y="-277"/>
    </contour>
  </outline>
</glyph>
<glyph name="parenright" format="2">
  <advance width="651"/>
  <unicode hex="0029"/>
  <outline>
    <contour>
      <point x="344" y="595" type="curve" smooth="yes"/>
      <point x="344" y="205"/>
      <point x="269" y="-118"/>
      <point x="106" y="-388" type="curve"/>
      <point x="122" y="-395"/>
      <point x="159" y="-405"/>
      <point x="176" y="-409" type="curve"/>
      <point x="342" y="-144"/>
      <point x="422" y="293"/>
      <point x="422" y="598" type="curve" smooth="yes"/>
      <point x="422" y="917"/>
      <point x="335" y="1249"/>
      <point x="159" y="1502" type="curve"/>
      <point x="133" y="1495"/>
      <point x="96" y="1482"/>
      <point x="83" y="1473" type="curve"/>
      <point x="204" y="1335"/>
      <point x="344" y="993"/>
    </contour>
  </outline>
</glyph>
<glyph name="asterisk" format="2">
  <advance width="924"/>
  <unicode hex="002A"/>
  <outline>
    <contour>
      <point x="738" y="1031" type="curve"/>
      <point x="760" y="1063"/>
      <point x="767" y="1077"/>
      <point x="777" y="1108" type="curve"/>
      <point x="681" y="1161"/>
      <point x="541" y="1229"/>
      <point x="435" y="1279" type="curve"/>
      <point x="343" y="1342"/>
      <point x="233" y="1414"/>
      <point x="148" y="1468" type="curve"/>
      <point x="129" y="1436"/>
      <point x="119" y="1415"/>
      <point x="102" y="1379" type="curve"/>
      <point x="194" y="1326"/>
      <point x="296" y="1275"/>
      <point x="394" y="1231" type="curve"/>
      <point x="493" y="1168"/>
      <point x="633" y="1089"/>
    </contour>
    <contour>
      <point x="452" y="893" type="curve" smooth="yes"/>
      <point x="468" y="893"/>
      <point x="483" y="895"/>
      <point x="495" y="897" type="curve"/>
      <point x="495" y="984"/>
      <point x="488" y="1140"/>
      <point x="483" y="1248" type="curve"/>
      <point x="491" y="1350"/>
      <point x="495" y="1453"/>
      <point x="495" y="1556" type="curve"/>
      <point x="483" y="1559"/>
      <point x="467" y="1561"/>
      <point x="451" y="1561" type="curve" smooth="yes"/>
      <point x="435" y="1561"/>
      <point x="419" y="1559"/>
      <point x="404" y="1556" type="curve"/>
      <point x="404" y="1455"/>
      <point x="406" y="1356"/>
      <point x="418" y="1248" type="curve"/>
      <point x="414" y="1130"/>
      <point x="409" y="1005"/>
      <point x="404" y="897" type="curve"/>
      <point x="417" y="894"/>
      <point x="435" y="893"/>
    </contour>
    <contour>
      <point x="138" y="1036" type="curve"/>
      <point x="242" y="1094"/>
      <point x="382" y="1173"/>
      <point x="481" y="1234" type="curve"/>
      <point x="579" y="1279"/>
      <point x="688" y="1330"/>
      <point x="780" y="1379" type="curve"/>
      <point x="767" y="1414"/>
      <point x="756" y="1441"/>
      <point x="736" y="1468" type="curve"/>
      <point x="650" y="1418"/>
      <point x="527" y="1346"/>
      <point x="435" y="1282" type="curve"/>
      <point x="329" y="1231"/>
      <point x="194" y="1164"/>
      <point x="98" y="1111" type="curve"/>
      <point x="109" y="1086"/>
      <point x="124" y="1055"/>
    </contour>
  </outline>
</glyph>
<glyph name="plus" format="2">
  <advance width="1050"/>
  <unicode hex="002B"/>
  <outline>
    <contour>
      <point x="930" y="725" type="curve"/>
      <point x="930" y="740"/>
      <point x="929" y="766"/>
      <point x="927" y="783" type="curve"/>
      <point x="804" y="763"/>
      <point x="553" y="746"/>
      <point x="296" y="746" type="curve" smooth="yes"/>
      <point x="211" y="746"/>
      <point x="142" y="748"/>
      <point x="103" y="752" type="curve"/>
      <point x="103" y="736"/>
      <point x="107" y="708"/>
      <point x="114" y="687" type="curve"/>
      <point x="176" y="681"/>
      <point x="262" y="679"/>
      <point x="358" y="679" type="curve" smooth="yes"/>
      <point x="626" y="679"/>
      <point x="824" y="699"/>
    </contour>
    <contour>
      <point x="498" y="1178" type="curve"/>
      <point x="489" y="1179"/>
      <point x="450" y="1181"/>
      <point x="438" y="1181" type="curve"/>
      <point x="461" y="1021"/>
      <point x="472" y="832"/>
      <point x="472" y="657" type="curve" smooth="yes"/>
      <point x="472" y="511"/>
      <point x="465" y="373"/>
      <point x="452" y="265" type="curve"/>
      <point x="476" y="265"/>
      <point x="506" y="265"/>
      <point x="517" y="268" type="curve"/>
      <point x="532" y="403"/>
      <point x="540" y="542"/>
      <point x="540" y="677" type="curve" smooth="yes"/>
      <point x="540" y="853"/>
      <point x="527" y="1024"/>
    </contour>
  </outline>
</glyph>
<glyph name="comma" format="2">
  <advance width="667"/>
  <unicode hex="002C"/>
  <outline>
    <contour>
      <point x="287" y="-198" type="curve"/>
      <point x="362" y="-123"/>
      <point x="424" y="0"/>
      <point x="424" y="111" type="curve" smooth="yes"/>
      <point x="424" y="198"/>
      <point x="369" y="253"/>
      <point x="268" y="253" type="curve" smooth="yes"/>
      <point x="176" y="253"/>
      <point x="145" y="191"/>
      <point x="145" y="145" type="curve" smooth="yes"/>
      <point x="145" y="99"/>
      <point x="158" y="38"/>
      <point x="253" y="38" type="curve" smooth="yes"/>
      <point x="334" y="38"/>
      <point x="353" y="84"/>
      <point x="358" y="127" type="curve"/>
      <point x="361" y="121"/>
      <point x="364" y="111"/>
      <point x="364" y="98" type="curve" smooth="yes"/>
      <point x="364" y="19"/>
      <point x="297" y="-115"/>
      <point x="244" y="-173" type="curve"/>
      <point x="250" y="-179"/>
      <point x="281" y="-197"/>
    </contour>
  </outline>
</glyph>
<glyph name="hyphen" format="2">
  <advance width="864"/>
  <unicode hex="002D"/>
  <outline>
    <contour>
      <point x="804" y="730" type="curve"/>
      <point x="754" y="732"/>
      <point x="649" y="732"/>
      <point x="522" y="732" type="curve" smooth="yes"/>
      <point x="315" y="732"/>
      <point x="165" y="720"/>
      <point x="60" y="711" type="curve"/>
      <point x="60" y="689"/>
      <point x="62" y="667"/>
      <point x="65" y="650" type="curve"/>
      <point x="225" y="661"/>
      <point x="542" y="668"/>
      <point x="802" y="668" type="curve"/>
      <point x="804" y="683"/>
      <point x="804" y="711"/>
    </contour>
  </outline>
</glyph>
<glyph name="period" format="2">
  <advance width="632"/>
  <unicode hex="002E"/>
  <outline>
    <contour>
      <point x="215" y="186" type="curve" smooth="yes"/>
      <point x="149" y="186"/>
      <point x="94" y="135"/>
      <point x="94" y="74" type="curve" smooth="yes"/>
      <point x="94" y="10"/>
      <point x="161" y="-38"/>
      <point x="221" y="-38" type="curve" smooth="yes"/>
      <point x="279" y="-38"/>
      <point x="326" y="0"/>
      <point x="326" y="65" type="curve" smooth="yes"/>
      <point x="326" y="137"/>
      <point x="280" y="186"/>
    </contour>
  </outline>
</glyph>
<glyph name="zero" format="2">
  <advance width="1087"/>
  <unicode hex="0030"/>
  <outline>
    <contour>
      <point x="501" y="-32" type="curve" smooth="yes"/>
      <point x="782" y="-32"/>
      <point x="853" y="275"/>
      <point x="853" y="626" type="curve" smooth="yes"/>
      <point x="853" y="1013"/>
      <point x="778" y="1338"/>
      <point x="501" y="1338" type="curve" smooth="yes"/>
      <point x="228" y="1338"/>
      <point x="133" y="1028"/>
      <point x="133" y="624" type="curve" smooth="yes"/>
      <point x="133" y="304"/>
      <point x="232" y="-32"/>
    </contour>
    <contour>
      <point x="499" y="42" type="curve" smooth="yes"/>
      <point x="296" y="42"/>
      <point x="217" y="312"/>
      <point x="217" y="670" type="curve" smooth="yes"/>
      <point x="217" y="924"/>
      <point x="297" y="1263"/>
      <point x="496" y="1263" type="curve" smooth="yes"/>
      <point x="696" y="1263"/>
      <point x="773" y="969"/>
      <point x="773" y="669" type="curve" smooth="yes"/>
      <point x="773" y="392"/>
      <point x="752" y="42"/>
    </contour>
  </outline>
</glyph>
<glyph name="one" format="2">
  <advance width="809"/>
  <unicode hex="0031"/>
  <outline>
    <contour>
      <point x="429" y="91" type="curve"/>
      <point x="431" y="173"/>
      <point x="431" y="260"/>
      <point x="431" y="350" type="curve" smooth="yes"/>
      <point x="431" y="800"/>
      <point x="413" y="1297"/>
      <point x="411" y="1315" type="curve"/>
      <point x="399" y="1316"/>
      <point x="372" y="1318"/>
      <point x="344" y="1318" type="curve"/>
      <point x="274" y="1260"/>
      <point x="66" y="1053"/>
      <point x="35" y="1021" type="curve"/>
      <point x="43" y="1003"/>
      <point x="67" y="956"/>
      <point x="74" y="945" type="curve"/>
      <point x="100" y="973"/>
      <point x="312" y="1194"/>
      <point x="341" y="1221" type="curve"/>
      <point x="341" y="1083"/>
      <point x="352" y="166"/>
      <point x="353" y="91" type="curve"/>
      <point x="318" y="90"/>
      <point x="137" y="77"/>
      <point x="95" y="70" type="curve"/>
      <point x="95" y="49"/>
      <point x="99" y="7"/>
      <point x="102" y="-12" type="curve"/>
      <point x="175" y="-7"/>
      <point x="615" y="9"/>
      <point x="683" y="9" type="curve"/>
      <point x="688" y="32"/>
      <point x="692" y="65"/>
      <point x="693" y="85" type="curve"/>
      <point x="655" y="87"/>
      <point x="497" y="91"/>
    </contour>
  </outline>
</glyph>
<glyph name="two" format="2">
  <advance width="995"/>
  <unicode hex="0032"/>
  <outline>
    <contour>
      <point x="872" y="106" type="curve"/>
      <point x="730" y="101"/>
      <point x="280" y="70"/>
      <point x="190" y="60" type="curve"/>
      <point x="224" y="101"/>
      <point x="459" y="400"/>
      <point x="579" y="569" type="curve" smooth="yes"/>
      <point x="711" y="756"/>
      <point x="823" y="940"/>
      <point x="823" y="1108" type="curve" smooth="yes"/>
      <point x="823" y="1261"/>
      <point x="696" y="1364"/>
      <point x="526" y="1364" type="curve" smooth="yes"/>
      <point x="296" y="1364"/>
      <point x="126" y="1224"/>
      <point x="44" y="1014" type="curve"/>
      <point x="63" y="997"/>
      <point x="99" y="971"/>
      <point x="111" y="966" type="curve"/>
      <point x="185" y="1162"/>
      <point x="303" y="1296"/>
      <point x="519" y="1296" type="curve" smooth="yes"/>
      <point x="641" y="1296"/>
      <point x="750" y="1237"/>
      <point x="750" y="1092" type="curve" smooth="yes"/>
      <point x="750" y="917"/>
      <point x="553" y="650"/>
      <point x="427" y="487" type="curve" smooth="yes"/>
      <point x="304" y="327"/>
      <point x="147" y="124"/>
      <point x="77" y="44" type="curve"/>
      <point x="80" y="17"/>
      <point x="82" y="5"/>
      <point x="87" y="-17" type="curve"/>
      <point x="863" y="27" type="line"/>
      <point x="869" y="46"/>
      <point x="872" y="87"/>
    </contour>
  </outline>
</glyph>
<glyph name="three" format="2">
  <advance width="1032"/>
  <unicode hex="0033"/>
  <outline>
    <contour>
      <point x="477" y="-3" type="curve" smooth="yes"/>
      <point x="732" y="-3"/>
      <point x="907" y="151"/>
      <point x="907" y="398" type="curve" smooth="yes"/>
      <point x="907" y="626"/>
      <point x="725" y="711"/>
      <point x="531" y="719" type="curve"/>
      <point x="654" y="740"/>
      <point x="836" y="837"/>
      <point x="836" y="1027" type="curve" smooth="yes"/>
      <point x="836" y="1227"/>
      <point x="697" y="1335"/>
      <point x="494" y="1335" type="curve" smooth="yes"/>
      <point x="280" y="1335"/>
      <point x="116" y="1209"/>
      <point x="26" y="1120" type="curve"/>
      <point x="46" y="1097"/>
      <point x="80" y="1069"/>
      <point x="92" y="1062" type="curve"/>
      <point x="178" y="1174"/>
      <point x="316" y="1256"/>
      <point x="494" y="1256" type="curve" smooth="yes"/>
      <point x="670" y="1256"/>
      <point x="754" y="1153"/>
      <point x="754" y="1022" type="curve" smooth="yes"/>
      <point x="754" y="832"/>
      <point x="508" y="742"/>
      <point x="258" y="742" type="curve"/>
      <point x="258" y="722"/>
      <point x="262" y="677"/>
      <point x="267" y="660" type="curve"/>
      <point x="619" y="660"/>
      <point x="833" y="645"/>
      <point x="833" y="384" type="curve" smooth="yes"/>
      <point x="833" y="191"/>
      <point x="681" y="74"/>
      <point x="468" y="74" type="curve" smooth="yes"/>
      <point x="294" y="74"/>
      <point x="156" y="162"/>
      <point x="125" y="300" type="curve"/>
      <point x="96" y="287"/>
      <point x="63" y="262"/>
      <point x="44" y="243" type="curve"/>
      <point x="82" y="103"/>
      <point x="275" y="-3"/>
    </contour>
  </outline>
</glyph>
<glyph name="four" format="2">
  <advance width="1104"/>
  <unicode hex="0034"/>
  <outline>
    <contour>
      <point x="971" y="432" type="curve"/>
      <point x="971" y="472"/>
      <point x="966" y="505"/>
      <point x="961" y="523" type="curve"/>
      <point x="944" y="523"/>
      <point x="776" y="516"/>
      <point x="689" y="511" type="curve"/>
      <point x="689" y="810"/>
      <point x="715" y="1282"/>
      <point x="720" y="1341" type="curve"/>
      <point x="710" y="1342"/>
      <point x="679" y="1345"/>
      <point x="660" y="1345" type="curve"/>
      <point x="579" y="1257"/>
      <point x="183" y="637"/>
      <point x="103" y="451" type="curve"/>
      <point x="103" y="437"/>
      <point x="109" y="382"/>
      <point x="113" y="362" type="curve"/>
      <point x="161" y="369"/>
      <point x="397" y="402"/>
      <point x="607" y="419" type="curve"/>
      <point x="605" y="370"/>
      <point x="602" y="218"/>
      <point x="602" y="-12" type="curve"/>
      <point x="611" y="-11"/>
      <point x="670" y="-7"/>
      <point x="700" y="-5" type="curve"/>
      <point x="698" y="20"/>
      <point x="692" y="179"/>
      <point x="692" y="426" type="curve"/>
      <point x="768" y="429"/>
      <point x="904" y="432"/>
    </contour>
    <contour>
      <point x="644" y="1207" type="curve"/>
      <point x="627" y="1103"/>
      <point x="610" y="627"/>
      <point x="610" y="504" type="curve"/>
      <point x="541" y="500"/>
      <point x="228" y="467"/>
      <point x="198" y="462" type="curve"/>
      <point x="215" y="528"/>
      <point x="547" y="1070"/>
    </contour>
  </outline>
</glyph>
<glyph name="five" format="2">
  <advance width="1137"/>
  <unicode hex="0035"/>
  <outline>
    <contour>
      <point x="115" y="157" type="curve"/>
      <point x="229" y="56"/>
      <point x="371" y="15"/>
      <point x="550" y="15" type="curve" smooth="yes"/>
      <point x="849" y="15"/>
      <point x="1012" y="209"/>
      <point x="1012" y="509" type="curve" smooth="yes"/>
      <point x="1012" y="745"/>
      <point x="887" y="957"/>
      <point x="653" y="957" type="curve" smooth="yes"/>
      <point x="452" y="957"/>
      <point x="328" y="786"/>
      <point x="309" y="708" type="curve"/>
      <point x="309" y="752"/>
      <point x="287" y="1039"/>
      <point x="267" y="1179" type="curve"/>
      <point x="308" y="1190"/>
      <point x="520" y="1217"/>
      <point x="862" y="1244" type="curve"/>
      <point x="862" y="1265"/>
      <point x="856" y="1301"/>
      <point x="850" y="1320" type="curve"/>
      <point x="730" y="1311"/>
      <point x="342" y="1267"/>
      <point x="181" y="1231" type="curve"/>
      <point x="217" y="978"/>
      <point x="236" y="770"/>
      <point x="236" y="578" type="curve"/>
      <point x="251" y="577"/>
      <point x="265" y="577"/>
      <point x="279" y="577" type="curve" smooth="yes"/>
      <point x="293" y="577"/>
      <point x="312" y="578"/>
      <point x="321" y="580" type="curve"/>
      <point x="326" y="655"/>
      <point x="435" y="873"/>
      <point x="651" y="873" type="curve" smooth="yes"/>
      <point x="833" y="873"/>
      <point x="933" y="700"/>
      <point x="933" y="503" type="curve" smooth="yes"/>
      <point x="933" y="266"/>
      <point x="785" y="97"/>
      <point x="554" y="97" type="curve" smooth="yes"/>
      <point x="318" y="97"/>
      <point x="217" y="192"/>
      <point x="171" y="238" type="curve"/>
      <point x="156" y="221"/>
      <point x="120" y="174"/>
    </contour>
  </outline>
</glyph>
<glyph name="six" format="2">
  <advance width="1154"/>
  <unicode hex="0036"/>
  <outline>
    <contour>
      <point x="771" y="1262" type="curve"/>
      <point x="767" y="1282"/>
      <point x="749" y="1321"/>
      <point x="733" y="1337" type="curve"/>
      <point x="236" y="1087"/>
      <point x="126" y="721"/>
      <point x="126" y="446" type="curve" smooth="yes"/>
      <point x="126" y="178"/>
      <point x="256" y="-9"/>
      <point x="520" y="-9" type="curve" smooth="yes"/>
      <point x="798" y="-9"/>
      <point x="963" y="204"/>
      <point x="963" y="491" type="curve" smooth="yes"/>
      <point x="963" y="738"/>
      <point x="807" y="830"/>
      <point x="631" y="830" type="curve" smooth="yes"/>
      <point x="473" y="830"/>
      <point x="289" y="739"/>
      <point x="215" y="610" type="curve"/>
      <point x="236" y="744"/>
      <point x="381" y="1094"/>
    </contour>
    <contour>
      <point x="275" y="586" type="curve" smooth="yes"/>
      <point x="357" y="682"/>
      <point x="496" y="754"/>
      <point x="643" y="754" type="curve" smooth="yes"/>
      <point x="811" y="754"/>
      <point x="887" y="651"/>
      <point x="887" y="477" type="curve" smooth="yes"/>
      <point x="887" y="269"/>
      <point x="749" y="72"/>
      <point x="528" y="72" type="curve" smooth="yes"/>
      <point x="321" y="72"/>
      <point x="205" y="206"/>
      <point x="205" y="410" type="curve" smooth="yes"/>
      <point x="205" y="479"/>
      <point x="230" y="533"/>
    </contour>
  </outline>
</glyph>
<glyph name="seven" format="2">
  <advance width="1012"/>
  <unicode hex="0037"/>
  <outline>
    <contour>
      <point x="225" y="2" type="curve"/>
      <point x="377" y="399"/>
      <point x="521" y="753"/>
      <point x="926" y="1296" type="curve"/>
      <point x="923" y="1313"/>
      <point x="916" y="1342"/>
      <point x="909" y="1361" type="curve"/>
      <point x="737" y="1361"/>
      <point x="330" y="1282"/>
      <point x="53" y="1219" type="curve"/>
      <point x="53" y="1209"/>
      <point x="60" y="1144"/>
      <point x="63" y="1130" type="curve"/>
      <point x="85" y="1137"/>
      <point x="473" y="1236"/>
      <point x="839" y="1285" type="curve"/>
      <point x="613" y="1045"/>
      <point x="256" y="361"/>
      <point x="142" y="22" type="curve"/>
      <point x="157" y="15"/>
      <point x="211" y="3"/>
    </contour>
  </outline>
</glyph>
<glyph name="eight" format="2">
  <advance width="1243"/>
  <unicode hex="0038"/>
  <outline>
    <contour>
      <point x="595" y="-9" type="curve" smooth="yes"/>
      <point x="889" y="-9"/>
      <point x="1036" y="148"/>
      <point x="1036" y="398" type="curve" smooth="yes"/>
      <point x="1036" y="597"/>
      <point x="888" y="697"/>
      <point x="773" y="716" type="curve"/>
      <point x="897" y="760"/>
      <point x="992" y="864"/>
      <point x="992" y="1047" type="curve" smooth="yes"/>
      <point x="992" y="1267"/>
      <point x="822" y="1372"/>
      <point x="588" y="1372" type="curve" smooth="yes"/>
      <point x="344" y="1372"/>
      <point x="171" y="1250"/>
      <point x="171" y="1013" type="curve" smooth="yes"/>
      <point x="171" y="839"/>
      <point x="261" y="753"/>
      <point x="345" y="713" type="curve"/>
      <point x="221" y="673"/>
      <point x="114" y="536"/>
      <point x="114" y="377" type="curve" smooth="yes"/>
      <point x="114" y="144"/>
      <point x="258" y="-9"/>
    </contour>
    <contour>
      <point x="583" y="59" type="curve" smooth="yes"/>
      <point x="398" y="59"/>
      <point x="192" y="116"/>
      <point x="192" y="378" type="curve" smooth="yes"/>
      <point x="192" y="633"/>
      <point x="420" y="684"/>
      <point x="576" y="684" type="curve" smooth="yes"/>
      <point x="807" y="684"/>
      <point x="960" y="603"/>
      <point x="960" y="375" type="curve" smooth="yes"/>
      <point x="960" y="158"/>
      <point x="789" y="59"/>
    </contour>
    <contour>
      <point x="586" y="744" type="curve" smooth="yes"/>
      <point x="396" y="744"/>
      <point x="253" y="789"/>
      <point x="253" y="1005" type="curve" smooth="yes"/>
      <point x="253" y="1179"/>
      <point x="362" y="1301"/>
      <point x="581" y="1301" type="curve" smooth="yes"/>
      <point x="787" y="1301"/>
      <point x="917" y="1228"/>
      <point x="917" y="1035" type="curve" smooth="yes"/>
      <point x="917" y="844"/>
      <point x="767" y="744"/>
    </contour>
  </outline>
</glyph>
<glyph name="nine" format="2">
  <advance width="1067"/>
  <unicode hex="0039"/>
  <outline>
    <contour>
      <point x="765" y="3" type="curve"/>
      <point x="864" y="281"/>
      <point x="911" y="535"/>
      <point x="911" y="889" type="curve" smooth="yes"/>
      <point x="911" y="1200"/>
      <point x="811" y="1364"/>
      <point x="540" y="1364" type="curve" smooth="yes"/>
      <point x="290" y="1364"/>
      <point x="116" y="1164"/>
      <point x="116" y="909" type="curve" smooth="yes"/>
      <point x="116" y="663"/>
      <point x="220" y="472"/>
      <point x="464" y="472" type="curve" smooth="yes"/>
      <point x="681" y="472"/>
      <point x="790" y="587"/>
      <point x="827" y="655" type="curve"/>
      <point x="827" y="416"/>
      <point x="712" y="95"/>
      <point x="672" y="-2" type="curve"/>
      <point x="695" y="-2"/>
      <point x="752" y="0"/>
    </contour>
    <contour>
      <point x="549" y="1299" type="curve" smooth="yes"/>
      <point x="745" y="1299"/>
      <point x="836" y="1159"/>
      <point x="836" y="922" type="curve" smooth="yes"/>
      <point x="836" y="703"/>
      <point x="698" y="542"/>
      <point x="476" y="542" type="curve" smooth="yes"/>
      <point x="289" y="542"/>
      <point x="192" y="676"/>
      <point x="192" y="896" type="curve" smooth="yes"/>
      <point x="192" y="1133"/>
      <point x="314" y="1299"/>
    </contour>
  </outline>
</glyph>
<glyph name="colon" format="2">
  <advance width="564"/>
  <unicode hex="003A"/>
  <outline>
    <contour>
      <point x="238" y="-9" type="curve" smooth="yes"/>
      <point x="303" y="-9"/>
      <point x="356" y="33"/>
      <point x="356" y="90" type="curve" smooth="yes"/>
      <point x="356" y="149"/>
      <point x="309" y="203"/>
      <point x="236" y="203" type="curve" smooth="yes"/>
      <point x="171" y="203"/>
      <point x="113" y="151"/>
      <point x="113" y="91" type="curve" smooth="yes"/>
      <point x="113" y="32"/>
      <point x="177" y="-9"/>
    </contour>
    <component base="period" xOffset="32" yOffset="779"/>
  </outline>
</glyph>
<glyph name="semicolon" format="2">
  <advance width="593"/>
  <unicode hex="003B"/>
  <outline>
    <contour>
      <point x="249" y="907" type="curve" smooth="yes"/>
      <point x="183" y="907"/>
      <point x="128" y="856"/>
      <point x="128" y="795" type="curve" smooth="yes"/>
      <point x="128" y="731"/>
      <point x="195" y="683"/>
      <point x="255" y="683" type="curve" smooth="yes"/>
      <point x="313" y="683"/>
      <point x="360" y="721"/>
      <point x="360" y="786" type="curve" smooth="yes"/>
      <point x="360" y="858"/>
      <point x="314" y="907"/>
    </contour>
    <contour>
      <point x="253" y="-294" type="curve"/>
      <point x="328" y="-219"/>
      <point x="390" y="-96"/>
      <point x="390" y="15" type="curve" smooth="yes"/>
      <point x="390" y="102"/>
      <point x="335" y="157"/>
      <point x="234" y="157" type="curve" smooth="yes"/>
      <point x="142" y="157"/>
      <point x="111" y="95"/>
      <point x="111" y="49" type="curve" smooth="yes"/>
      <point x="111" y="3"/>
      <point x="124" y="-58"/>
      <point x="219" y="-58" type="curve" smooth="yes"/>
      <point x="300" y="-58"/>
      <point x="319" y="-12"/>
      <point x="324" y="31" type="curve"/>
      <point x="327" y="25"/>
      <point x="330" y="15"/>
      <point x="330" y="2" type="curve" smooth="yes"/>
      <point x="330" y="-77"/>
      <point x="263" y="-211"/>
      <point x="210" y="-269" type="curve"/>
      <point x="216" y="-275"/>
      <point x="247" y="-293"/>
    </contour>
  </outline>
</glyph>
<glyph name="less" format="2">
  <advance width="807"/>
  <unicode hex="003C"/>
  <outline>
    <contour>
      <point x="682" y="1092" type="curve"/>
      <point x="597" y="1030"/>
      <point x="255" y="767"/>
      <point x="21" y="582" type="curve"/>
      <point x="17" y="533" type="line"/>
      <point x="235" y="463"/>
      <point x="474" y="372"/>
      <point x="672" y="292" type="curve"/>
      <point x="675" y="299"/>
      <point x="685" y="328"/>
      <point x="687" y="337" type="curve"/>
      <point x="622" y="375"/>
      <point x="284" y="504"/>
      <point x="64" y="574" type="curve"/>
      <point x="60" y="539" type="line"/>
      <point x="278" y="717"/>
      <point x="487" y="875"/>
      <point x="715" y="1043" type="curve"/>
      <point x="709" y="1056"/>
      <point x="693" y="1081"/>
    </contour>
  </outline>
</glyph>
<glyph name="equal" format="2">
  <advance width="1050"/>
  <unicode hex="003D"/>
  <outline>
    <contour>
      <point x="45" y="1000" type="curve"/>
      <point x="41" y="978"/>
      <point x="38" y="957"/>
      <point x="38" y="935" type="curve"/>
      <point x="202" y="956"/>
      <point x="821" y="991"/>
      <point x="1002" y="991" type="curve"/>
      <point x="1002" y="1012"/>
      <point x="1000" y="1032"/>
      <point x="997" y="1051" type="curve"/>
      <point x="762" y="1051"/>
      <point x="188" y="1029"/>
    </contour>
    <contour>
      <point x="47" y="550" type="curve"/>
      <point x="43" y="528"/>
      <point x="40" y="504"/>
      <point x="40" y="485" type="curve"/>
      <point x="293" y="503"/>
      <point x="805" y="504"/>
      <point x="1009" y="504" type="curve"/>
      <point x="1009" y="525"/>
      <point x="1005" y="549"/>
      <point x="1001" y="569" type="curve"/>
      <point x="916" y="574"/>
      <point x="780" y="578"/>
      <point x="631" y="578" type="curve" smooth="yes"/>
      <point x="433" y="578"/>
      <point x="210" y="571"/>
    </contour>
  </outline>
</glyph>
<glyph name="greater" format="2">
  <advance width="790"/>
  <unicode hex="003E"/>
  <outline>
    <contour>
      <point x="113" y="1034" type="curve"/>
      <point x="234" y="960"/>
      <point x="550" y="764"/>
      <point x="715" y="657" type="curve"/>
      <point x="724" y="685" type="line"/>
      <point x="463" y="551"/>
      <point x="105" y="370"/>
      <point x="36" y="342" type="curve"/>
      <point x="36" y="326"/>
      <point x="46" y="306"/>
      <point x="52" y="294" type="curve"/>
      <point x="91" y="304"/>
      <point x="476" y="498"/>
      <point x="756" y="648" type="curve"/>
      <point x="757" y="695" type="line"/>
      <point x="527" y="851"/>
      <point x="203" y="1053"/>
      <point x="150" y="1067" type="curve"/>
      <point x="139" y="1060"/>
      <point x="122" y="1044"/>
    </contour>
  </outline>
</glyph>
<glyph name="question" format="2">
  <advance width="1036"/>
  <unicode hex="003F"/>
  <outline>
    <contour>
      <point x="509" y="357" type="curve"/>
      <point x="509" y="604"/>
      <point x="599" y="715"/>
      <point x="687" y="789" type="curve" smooth="yes"/>
      <point x="762" y="852"/>
      <point x="856" y="967"/>
      <point x="856" y="1131" type="curve" smooth="yes"/>
      <point x="856" y="1353"/>
      <point x="729" y="1472"/>
      <point x="485" y="1472" type="curve" smooth="yes"/>
      <point x="267" y="1472"/>
      <point x="70" y="1369"/>
      <point x="36" y="1144" type="curve"/>
      <point x="106" y="1120" type="line"/>
      <point x="122" y="1222"/>
      <point x="190" y="1403"/>
      <point x="487" y="1403" type="curve" smooth="yes"/>
      <point x="687" y="1403"/>
      <point x="781" y="1302"/>
      <point x="781" y="1128" type="curve" smooth="yes"/>
      <point x="781" y="1023"/>
      <point x="734" y="924"/>
      <point x="629" y="838" type="curve" smooth="yes"/>
      <point x="480" y="716"/>
      <point x="428" y="529"/>
      <point x="428" y="363" type="curve"/>
      <point x="449" y="358"/>
      <point x="488" y="357"/>
    </contour>
    <contour>
      <point x="484" y="-10" type="curve" smooth="yes"/>
      <point x="535" y="-10"/>
      <point x="582" y="43"/>
      <point x="582" y="103" type="curve" smooth="yes"/>
      <point x="582" y="160"/>
      <point x="543" y="197"/>
      <point x="480" y="197" type="curve" smooth="yes"/>
      <point x="434" y="197"/>
      <point x="385" y="155"/>
      <point x="385" y="97" type="curve" smooth="yes"/>
      <point x="385" y="34"/>
      <point x="427" y="-10"/>
    </contour>
  </outline>
</glyph>
<glyph name="at" format="2">
  <advance width="1920"/>
  <unicode hex="0040"/>
  <outline>
    <contour>
      <point x="834" y="-41" type="curve" smooth="yes"/>
      <point x="1150" y="-41"/>
      <point x="1334" y="70"/>
      <point x="1398" y="178" type="curve"/>
      <point x="1337" y="238" type="line"/>
      <point x="1275" y="130"/>
      <point x="1135" y="34"/>
      <point x="839" y="34" type="curve" smooth="yes"/>
      <point x="391" y="34"/>
      <point x="158" y="266"/>
      <point x="158" y="617" type="curve" smooth="yes"/>
      <point x="158" y="1083"/>
      <point x="507" y="1419"/>
      <point x="950" y="1419" type="curve" smooth="yes"/>
      <point x="1378" y="1419"/>
      <point x="1657" y="1195"/>
      <point x="1657" y="775" type="curve" smooth="yes"/>
      <point x="1657" y="623"/>
      <point x="1599" y="438"/>
      <point x="1447" y="438" type="curve" smooth="yes"/>
      <point x="1346" y="438"/>
      <point x="1310" y="482"/>
      <point x="1285" y="581" type="curve" smooth="yes"/>
      <point x="1274" y="624"/>
      <point x="1207" y="930"/>
      <point x="1174" y="1123" type="curve"/>
      <point x="1159" y="1123"/>
      <point x="1113" y="1119"/>
      <point x="1089" y="1116" type="curve"/>
      <point x="1092" y="1092"/>
      <point x="1096" y="1055"/>
      <point x="1099" y="1026" type="curve"/>
      <point x="1065" y="1053"/>
      <point x="1005" y="1090"/>
      <point x="894" y="1090" type="curve" smooth="yes"/>
      <point x="691" y="1090"/>
      <point x="532" y="910"/>
      <point x="532" y="696" type="curve" smooth="yes"/>
      <point x="532" y="496"/>
      <point x="661" y="356"/>
      <point x="869" y="356" type="curve" smooth="yes"/>
      <point x="1034" y="356"/>
      <point x="1178" y="440"/>
      <point x="1203" y="561" type="curve"/>
      <point x="1227" y="431"/>
      <point x="1319" y="369"/>
      <point x="1440" y="369" type="curve" smooth="yes"/>
      <point x="1638" y="369"/>
      <point x="1732" y="558"/>
      <point x="1732" y="765" type="curve" smooth="yes"/>
      <point x="1732" y="1219"/>
      <point x="1416" y="1497"/>
      <point x="966" y="1497" type="curve" smooth="yes"/>
      <point x="455" y="1497"/>
      <point x="75" y="1138"/>
      <point x="75" y="614" type="curve" smooth="yes"/>
      <point x="75" y="181"/>
      <point x="392" y="-41"/>
    </contour>
    <contour>
      <point x="858" y="434" type="curve" smooth="yes"/>
      <point x="730" y="434"/>
      <point x="619" y="526"/>
      <point x="619" y="691" type="curve" smooth="yes"/>
      <point x="619" y="884"/>
      <point x="735" y="1018"/>
      <point x="901" y="1018" type="curve" smooth="yes"/>
      <point x="978" y="1018"/>
      <point x="1063" y="988"/>
      <point x="1113" y="942" type="curve"/>
      <point x="1176" y="649" type="line"/>
      <point x="1135" y="519"/>
      <point x="1031" y="434"/>
    </contour>
  </outline>
</glyph>
<glyph name="A" format="2">
  <advance width="998"/>
  <unicode hex="0041"/>
  <anchor x="553" y="0" name="bottom"/>
  <anchor x="898" y="-5" name="ogonek"/>
  <anchor x="566" y="1323" name="top"/>
  <outline>
    <contour>
      <point x="185" y="-15" type="curve"/>
      <point x="201" y="91"/>
      <point x="243" y="318"/>
      <point x="286" y="525" type="curve"/>
      <point x="324" y="533"/>
      <point x="667" y="562"/>
      <point x="773" y="562" type="curve"/>
      <point x="784" y="467"/>
      <point x="806" y="80"/>
      <point x="811" y="-15" type="curve"/>
      <point x="840" y="-15"/>
      <point x="871" y="-12"/>
      <point x="898" y="-5" type="curve"/>
      <point x="857" y="621"/>
      <point x="811" y="1089"/>
      <point x="760" y="1323" type="curve"/>
      <point x="728" y="1327"/>
      <point x="683" y="1329"/>
      <point x="648" y="1329" type="curve" smooth="yes"/>
      <point x="532" y="1329"/>
      <point x="414" y="1311"/>
      <point x="386" y="1304" type="curve"/>
      <point x="306" y="996"/>
      <point x="130" y="165"/>
      <point x="100" y="-7" type="curve"/>
      <point x="117" y="-12"/>
      <point x="148" y="-15"/>
    </contour>
    <contour>
      <point x="300" y="591" type="curve"/>
      <point x="371" y="941"/>
      <point x="431" y="1173"/>
      <point x="447" y="1231" type="curve"/>
      <point x="489" y="1237"/>
      <point x="641" y="1250"/>
      <point x="700" y="1250" type="curve"/>
      <point x="729" y="1096"/>
      <point x="760" y="745"/>
      <point x="768" y="638" type="curve"/>
      <point x="620" y="632"/>
      <point x="399" y="612"/>
    </contour>
  </outline>
</glyph>
<glyph name="B" format="2">
  <advance width="1174"/>
  <unicode hex="0042"/>
  <anchor x="587" y="0" name="bottom"/>
  <anchor x="587" y="1291" name="top"/>
  <outline>
    <contour>
      <point x="198" y="12" type="curve"/>
      <point x="244" y="6"/>
      <point x="296" y="4"/>
      <point x="350" y="4" type="curve" smooth="yes"/>
      <point x="702" y="4"/>
      <point x="1031" y="64"/>
      <point x="1031" y="386" type="curve" smooth="yes"/>
      <point x="1031" y="556"/>
      <point x="876" y="666"/>
      <point x="710" y="666" type="curve" smooth="yes"/>
      <point x="702" y="666"/>
      <point x="695" y="666"/>
      <point x="689" y="665" type="curve"/>
      <point x="805" y="695"/>
      <point x="902" y="871"/>
      <point x="902" y="1010" type="curve" smooth="yes"/>
      <point x="902" y="1217"/>
      <point x="750" y="1306"/>
      <point x="550" y="1306" type="curve" smooth="yes"/>
      <point x="390" y="1306"/>
      <point x="269" y="1293"/>
      <point x="207" y="1285" type="curve"/>
      <point x="207" y="1256"/>
      <point x="198" y="193"/>
    </contour>
    <contour>
      <point x="287" y="80" type="curve"/>
      <point x="294" y="610" type="line"/>
      <point x="338" y="615"/>
      <point x="501" y="617"/>
      <point x="535" y="617" type="curve" smooth="yes"/>
      <point x="735" y="617"/>
      <point x="954" y="579"/>
      <point x="954" y="383" type="curve" smooth="yes"/>
      <point x="954" y="117"/>
      <point x="657" y="80"/>
      <point x="331" y="80" type="curve" smooth="yes"/>
      <point x="310" y="80"/>
      <point x="294" y="80"/>
    </contour>
    <contour>
      <point x="292" y="680" type="curve"/>
      <point x="291" y="1221" type="line"/>
      <point x="336" y="1228"/>
      <point x="435" y="1241"/>
      <point x="532" y="1241" type="curve" smooth="yes"/>
      <point x="711" y="1241"/>
      <point x="820" y="1185"/>
      <point x="820" y="1003" type="curve" smooth="yes"/>
      <point x="820" y="895"/>
      <point x="768" y="783"/>
      <point x="691" y="737" type="curve" smooth="yes"/>
      <point x="617" y="692"/>
      <point x="515" y="682"/>
    </contour>
  </outline>
</glyph>
<glyph name="C" format="2">
  <advance width="1137"/>
  <unicode hex="0043"/>
  <anchor x="569" y="0" name="bottom"/>
  <anchor x="539" y="1301" name="top"/>
  <outline>
    <contour>
      <point x="1034" y="289" type="curve"/>
      <point x="1026" y="299"/>
      <point x="986" y="332"/>
      <point x="973" y="338" type="curve"/>
      <point x="906" y="241"/>
      <point x="778" y="72"/>
      <point x="552" y="72" type="curve" smooth="yes"/>
      <point x="359" y="72"/>
      <point x="158" y="323"/>
      <point x="158" y="662" type="curve" smooth="yes"/>
      <point x="158" y="1103"/>
      <point x="375" y="1241"/>
      <point x="547" y="1241" type="curve" smooth="yes"/>
      <point x="824" y="1241"/>
      <point x="900" y="1090"/>
      <point x="926" y="1038" type="curve"/>
      <point x="943" y="1049"/>
      <point x="983" y="1079"/>
      <point x="993" y="1093" type="curve"/>
      <point x="922" y="1230"/>
      <point x="750" y="1326"/>
      <point x="566" y="1326" type="curve" smooth="yes"/>
      <point x="237" y="1326"/>
      <point x="65" y="1034"/>
      <point x="65" y="676" type="curve" smooth="yes"/>
      <point x="65" y="313"/>
      <point x="253" y="-7"/>
      <point x="554" y="-7" type="curve" smooth="yes"/>
      <point x="781" y="-7"/>
      <point x="933" y="127"/>
    </contour>
  </outline>
</glyph>
<glyph name="D" format="2">
  <advance width="1198"/>
  <unicode hex="0044"/>
  <anchor x="599" y="0" name="bottom"/>
  <anchor x="360" y="646" name="center"/>
  <anchor x="502" y="1291" name="top"/>
  <outline>
    <contour>
      <point x="258" y="-27" type="curve"/>
      <point x="775" y="-8"/>
      <point x="971" y="192"/>
      <point x="971" y="642" type="curve" smooth="yes"/>
      <point x="971" y="1017"/>
      <point x="850" y="1325"/>
      <point x="393" y="1325" type="curve" smooth="yes"/>
      <point x="319" y="1325"/>
      <point x="173" y="1308"/>
      <point x="137" y="1299" type="curve"/>
      <point x="138" y="1268"/>
      <point x="231" y="219"/>
    </contour>
    <contour>
      <point x="329" y="53" type="curve"/>
      <point x="288" y="427"/>
      <point x="255" y="867"/>
      <point x="229" y="1251" type="curve"/>
      <point x="273" y="1254"/>
      <point x="315" y="1256"/>
      <point x="354" y="1256" type="curve" smooth="yes"/>
      <point x="767" y="1256"/>
      <point x="897" y="1039"/>
      <point x="897" y="658" type="curve" smooth="yes"/>
      <point x="897" y="268"/>
      <point x="747" y="86"/>
    </contour>
  </outline>
</glyph>
<glyph name="E" format="2">
  <advance width="957"/>
  <unicode hex="0045"/>
  <anchor x="479" y="0" name="bottom"/>
  <anchor x="688" y="1" name="ogonek"/>
  <anchor x="479" y="1311" name="top"/>
  <anchor x="20" y="1291" name="topleft"/>
  <outline>
    <contour>
      <point x="821" y="-9" type="curve"/>
      <point x="826" y="9"/>
      <point x="832" y="39"/>
      <point x="834" y="67" type="curve"/>
      <point x="758" y="73"/>
      <point x="572" y="80"/>
      <point x="413" y="80" type="curve" smooth="yes"/>
      <point x="360" y="80"/>
      <point x="273" y="79"/>
      <point x="233" y="77" type="curve"/>
      <point x="233" y="223"/>
      <point x="233" y="636"/>
      <point x="233" y="690" type="curve"/>
      <point x="319" y="693"/>
      <point x="658" y="694"/>
      <point x="708" y="694" type="curve"/>
      <point x="700" y="772" type="line"/>
      <point x="608" y="772"/>
      <point x="308" y="760"/>
      <point x="235" y="757" type="curve"/>
      <point x="235" y="842"/>
      <point x="238" y="1109"/>
      <point x="243" y="1197" type="curve"/>
      <point x="834" y="1244" type="line"/>
      <point x="837" y="1271"/>
      <point x="838" y="1284"/>
      <point x="838" y="1318" type="curve"/>
      <point x="783" y="1318"/>
      <point x="496" y="1299"/>
      <point x="157" y="1251" type="curve"/>
      <point x="151" y="1179"/>
      <point x="147" y="946"/>
      <point x="147" y="580" type="curve" smooth="yes"/>
      <point x="147" y="398"/>
      <point x="150" y="197"/>
      <point x="157" y="2" type="curve"/>
      <point x="220" y="4"/>
      <point x="302" y="5"/>
      <point x="365" y="5" type="curve" smooth="yes"/>
      <point x="525" y="5"/>
      <point x="664" y="0"/>
    </contour>
  </outline>
</glyph>
<glyph name="F" format="2">
  <advance width="949"/>
  <unicode hex="0046"/>
  <anchor x="475" y="0" name="bottom"/>
  <anchor x="475" y="1291" name="top"/>
  <outline>
    <contour>
      <point x="294" y="-26" type="line"/>
      <point x="294" y="200"/>
      <point x="282" y="482"/>
      <point x="271" y="658" type="curve"/>
      <point x="403" y="658"/>
      <point x="624" y="648"/>
      <point x="756" y="634" type="curve"/>
      <point x="757" y="645"/>
      <point x="760" y="679"/>
      <point x="760" y="701" type="curve"/>
      <point x="743" y="703"/>
      <point x="551" y="725"/>
      <point x="270" y="725" type="curve"/>
      <point x="264" y="880"/>
      <point x="254" y="1116"/>
      <point x="244" y="1221" type="curve"/>
      <point x="555" y="1221"/>
      <point x="727" y="1205"/>
      <point x="802" y="1195" type="curve"/>
      <point x="802" y="1215"/>
      <point x="801" y="1257"/>
      <point x="797" y="1280" type="curve"/>
      <point x="687" y="1292"/>
      <point x="607" y="1299"/>
      <point x="490" y="1303" type="curve" smooth="yes"/>
      <point x="405" y="1306"/>
      <point x="301" y="1307"/>
      <point x="152" y="1307" type="curve"/>
      <point x="174" y="922"/>
      <point x="202" y="421"/>
      <point x="202" y="-12" type="curve"/>
    </contour>
  </outline>
</glyph>
<glyph name="G" format="2">
  <advance width="1275"/>
  <unicode hex="0047"/>
  <anchor x="678" y="0" name="bottom"/>
  <anchor x="678" y="1291" name="top"/>
  <outline>
    <contour>
      <point x="717" y="-48" type="curve" smooth="yes"/>
      <point x="1050" y="-48"/>
      <point x="1179" y="158"/>
      <point x="1179" y="483" type="curve" smooth="yes"/>
      <point x="1179" y="540"/>
      <point x="1175" y="599"/>
      <point x="1168" y="662" type="curve"/>
      <point x="985" y="698"/>
      <point x="701" y="723"/>
      <point x="543" y="733" type="curve"/>
      <point x="543" y="710"/>
      <point x="546" y="672"/>
      <point x="548" y="654" type="curve"/>
      <point x="684" y="646"/>
      <point x="1022" y="601"/>
      <point x="1096" y="588" type="curve"/>
      <point x="1098" y="559"/>
      <point x="1099" y="520"/>
      <point x="1099" y="491" type="curve" smooth="yes"/>
      <point x="1099" y="255"/>
      <point x="1023" y="36"/>
      <point x="715" y="36" type="curve" smooth="yes"/>
      <point x="346" y="36"/>
      <point x="174" y="266"/>
      <point x="174" y="673" type="curve" smooth="yes"/>
      <point x="174" y="1111"/>
      <point x="448" y="1258"/>
      <point x="627" y="1258" type="curve" smooth="yes"/>
      <point x="790" y="1258"/>
      <point x="897" y="1236"/>
      <point x="1014" y="1050" type="curve"/>
      <point x="1031" y="1062"/>
      <point x="1059" y="1094"/>
      <point x="1068" y="1110" type="curve"/>
      <point x="1025" y="1194"/>
      <point x="903" y="1338"/>
      <point x="645" y="1338" type="curve" smooth="yes"/>
      <point x="281" y="1338"/>
      <point x="84" y="1051"/>
      <point x="84" y="646" type="curve" smooth="yes"/>
      <point x="84" y="214"/>
      <point x="286" y="-48"/>
    </contour>
  </outline>
</glyph>
<glyph name="H" format="2">
  <advance width="1094"/>
  <unicode hex="0048"/>
  <anchor x="547" y="0" name="bottom"/>
  <anchor x="517" y="1063" name="center"/>
  <anchor x="547" y="1291" name="top"/>
  <anchor x="20" y="1291" name="topleft"/>
  <outline>
    <contour>
      <point x="190" y="-2" type="curve"/>
      <point x="227" y="-2"/>
      <point x="275" y="2"/>
      <point x="287" y="4" type="curve"/>
      <point x="285" y="25"/>
      <point x="260" y="395"/>
      <point x="248" y="641" type="curve"/>
      <point x="321" y="641"/>
      <point x="700" y="651"/>
      <point x="770" y="653" type="curve"/>
      <point x="770" y="535"/>
      <point x="773" y="154"/>
      <point x="773" y="-2" type="curve"/>
      <point x="793" y="-2"/>
      <point x="832" y="-1"/>
      <point x="855" y="2" type="curve"/>
      <point x="851" y="53"/>
      <point x="850" y="134"/>
      <point x="850" y="232" type="curve" smooth="yes"/>
      <point x="850" y="572"/>
      <point x="870" y="1116"/>
      <point x="896" y="1299" type="curve"/>
      <point x="880" y="1303"/>
      <point x="844" y="1305"/>
      <point x="820" y="1305" type="curve" smooth="yes"/>
      <point x="811" y="1305"/>
      <point x="804" y="1305"/>
      <point x="800" y="1304" type="curve"/>
      <point x="786" y="1142"/>
      <point x="777" y="889"/>
      <point x="772" y="745" type="curve"/>
      <point x="687" y="742"/>
      <point x="318" y="726"/>
      <point x="244" y="718" type="curve"/>
      <point x="243" y="740"/>
      <point x="240" y="870"/>
      <point x="240" y="1013" type="curve" smooth="yes"/>
      <point x="240" y="1109"/>
      <point x="243" y="1211"/>
      <point x="251" y="1289" type="curve"/>
      <point x="226" y="1289"/>
      <point x="180" y="1285"/>
      <point x="156" y="1282" type="curve"/>
      <point x="152" y="1239"/>
      <point x="151" y="1171"/>
      <point x="151" y="1088" type="curve" smooth="yes"/>
      <point x="151" y="747"/>
      <point x="176" y="149"/>
    </contour>
  </outline>
</glyph>
<glyph name="I" format="2">
  <advance width="550"/>
  <unicode hex="0049"/>
  <anchor x="302" y="0" name="bottom"/>
  <anchor x="315" y="0" name="ogonek"/>
  <anchor x="302" y="1291" name="top"/>
  <anchor x="78" y="1291" name="topleft"/>
  <outline>
    <contour>
      <point x="315" y="0" type="curve"/>
      <point x="315" y="46"/>
      <point x="315" y="472"/>
      <point x="315" y="583" type="curve" smooth="yes"/>
      <point x="315" y="755"/>
      <point x="309" y="1043"/>
      <point x="303" y="1320" type="curve"/>
      <point x="280" y="1320"/>
      <point x="242" y="1319"/>
      <point x="229" y="1317" type="curve"/>
      <point x="227" y="1049"/>
      <point x="227" y="815"/>
      <point x="227" y="649" type="curve" smooth="yes"/>
      <point x="227" y="463"/>
      <point x="230" y="165"/>
      <point x="235" y="4" type="curve"/>
      <point x="247" y="2"/>
      <point x="303" y="0"/>
    </contour>
  </outline>
</glyph>
<glyph name="J" format="2">
  <advance width="1178"/>
  <unicode hex="004A"/>
  <anchor x="589" y="0" name="bottom"/>
  <anchor x="828" y="1318" name="top"/>
  <outline>
    <contour>
      <point x="520" y="-19" type="curve" smooth="yes"/>
      <point x="817" y="-19"/>
      <point x="942" y="247"/>
      <point x="942" y="585" type="curve" smooth="yes"/>
      <point x="942" y="790"/>
      <point x="910" y="1140"/>
      <point x="894" y="1315" type="curve"/>
      <point x="886" y="1316"/>
      <point x="865" y="1318"/>
      <point x="847" y="1318" type="curve" smooth="yes"/>
      <point x="828" y="1318"/>
      <point x="809" y="1316"/>
      <point x="798" y="1313" type="curve"/>
      <point x="802" y="1291"/>
      <point x="856" y="762"/>
      <point x="856" y="556" type="curve" smooth="yes"/>
      <point x="856" y="277"/>
      <point x="759" y="63"/>
      <point x="528" y="63" type="curve" smooth="yes"/>
      <point x="296" y="63"/>
      <point x="183" y="253"/>
      <point x="135" y="448" type="curve"/>
      <point x="106" y="436"/>
      <point x="71" y="419"/>
      <point x="48" y="405" type="curve"/>
      <point x="125" y="176"/>
      <point x="262" y="-19"/>
    </contour>
  </outline>
</glyph>
<glyph name="K" format="2">
  <advance width="1061"/>
  <unicode hex="004B"/>
  <anchor x="558" y="0" name="bottom"/>
  <anchor x="558" y="1291" name="top"/>
  <outline>
    <contour>
      <point x="219" y="-32" type="curve"/>
      <point x="248" y="-32"/>
      <point x="289" y="-27"/>
      <point x="308" y="-24" type="curve"/>
      <point x="308" y="-3"/>
      <point x="294" y="381"/>
      <point x="280" y="621" type="curve"/>
      <point x="299" y="631"/>
      <point x="344" y="663"/>
      <point x="366" y="680" type="curve"/>
      <point x="618" y="426"/>
      <point x="850" y="19"/>
      <point x="858" y="2" type="curve"/>
      <point x="877" y="10"/>
      <point x="919" y="32"/>
      <point x="938" y="48" type="curve"/>
      <point x="899" y="121"/>
      <point x="630" y="537"/>
      <point x="432" y="723" type="curve"/>
      <point x="724" y="937"/>
      <point x="905" y="1150"/>
      <point x="961" y="1224" type="curve"/>
      <point x="946" y="1231"/>
      <point x="915" y="1257"/>
      <point x="899" y="1272" type="curve"/>
      <point x="753" y="1047"/>
      <point x="444" y="823"/>
      <point x="274" y="708" type="curve"/>
      <point x="260" y="952"/>
      <point x="239" y="1239"/>
      <point x="232" y="1297" type="curve"/>
      <point x="225" y="1299"/>
      <point x="211" y="1300"/>
      <point x="197" y="1300" type="curve" smooth="yes"/>
      <point x="180" y="1300"/>
      <point x="162" y="1299"/>
      <point x="154" y="1296" type="curve"/>
      <point x="180" y="897"/>
      <point x="219" y="69"/>
    </contour>
  </outline>
</glyph>
<glyph name="L" format="2">
  <advance width="961"/>
  <unicode hex="004C"/>
  <anchor x="491" y="0" name="bottom"/>
  <anchor x="491" y="646" name="center"/>
  <anchor x="248" y="1296" name="top"/>
  <anchor x="533" y="889" name="topright"/>
  <outline>
    <contour>
      <point x="201" y="2" type="curve"/>
      <point x="313" y="2"/>
      <point x="407" y="4"/>
      <point x="512" y="9" type="curve" smooth="yes"/>
      <point x="610" y="14"/>
      <point x="717" y="20"/>
      <point x="856" y="31" type="curve"/>
      <point x="860" y="51"/>
      <point x="863" y="79"/>
      <point x="865" y="106" type="curve"/>
      <point x="677" y="106"/>
      <point x="417" y="92"/>
      <point x="297" y="85" type="curve"/>
      <point x="299" y="130"/>
      <point x="300" y="225"/>
      <point x="300" y="347" type="curve" smooth="yes"/>
      <point x="300" y="628"/>
      <point x="294" y="1049"/>
      <point x="278" y="1292" type="curve"/>
      <point x="271" y="1293"/>
      <point x="248" y="1296"/>
      <point x="228" y="1296" type="curve" smooth="yes"/>
      <point x="220" y="1296"/>
      <point x="208" y="1295"/>
      <point x="201" y="1294" type="curve"/>
      <point x="206" y="1152"/>
      <point x="208" y="884"/>
      <point x="208" y="624" type="curve" smooth="yes"/>
      <point x="208" y="364"/>
      <point x="206" y="112"/>
    </contour>
  </outline>
</glyph>
<glyph name="M" format="2">
  <advance width="1379"/>
  <unicode hex="004D"/>
  <anchor x="721" y="0" name="bottom"/>
  <anchor x="721" y="1291" name="top"/>
  <outline>
    <contour>
      <point x="173" y="-22" type="curve"/>
      <point x="204" y="-22"/>
      <point x="246" y="-19"/>
      <point x="267" y="-17" type="curve"/>
      <point x="267" y="87"/>
      <point x="270" y="807"/>
      <point x="272" y="1156" type="curve"/>
      <point x="340" y="954"/>
      <point x="628" y="28"/>
      <point x="633" y="11" type="curve"/>
      <point x="660" y="6"/>
      <point x="695" y="6"/>
      <point x="728" y="6" type="curve"/>
      <point x="776" y="87"/>
      <point x="1060" y="916"/>
      <point x="1118" y="1145" type="curve"/>
      <point x="1121" y="1049"/>
      <point x="1126" y="786"/>
      <point x="1126" y="593" type="curve" smooth="yes"/>
      <point x="1126" y="384"/>
      <point x="1121" y="174"/>
      <point x="1104" y="-5" type="curve"/>
      <point x="1130" y="-8"/>
      <point x="1168" y="-10"/>
      <point x="1195" y="-10" type="curve"/>
      <point x="1205" y="109"/>
      <point x="1206" y="393"/>
      <point x="1206" y="640" type="curve" smooth="yes"/>
      <point x="1206" y="887"/>
      <point x="1199" y="1129"/>
      <point x="1173" y="1260" type="curve"/>
      <point x="1156" y="1262"/>
      <point x="1096" y="1267"/>
      <point x="1068" y="1267" type="curve"/>
      <point x="1023" y="1067"/>
      <point x="756" y="282"/>
      <point x="685" y="76" type="curve"/>
      <point x="648" y="279"/>
      <point x="326" y="1245"/>
      <point x="320" y="1262" type="curve"/>
      <point x="306" y="1262"/>
      <point x="235" y="1261"/>
      <point x="198" y="1256" type="curve"/>
      <point x="193" y="1121"/>
      <point x="173" y="368"/>
    </contour>
  </outline>
</glyph>
<glyph name="N" format="2">
  <advance width="1282"/>
  <unicode hex="004E"/>
  <anchor x="641" y="0" name="bottom"/>
  <anchor x="641" y="1291" name="top"/>
  <outline>
    <contour>
      <point x="299" y="-5" type="curve"/>
      <point x="299" y="132"/>
      <point x="285" y="1029"/>
      <point x="279" y="1159" type="curve"/>
      <point x="376" y="1000"/>
      <point x="872" y="132"/>
      <point x="947" y="-2" type="curve"/>
      <point x="958" y="-3"/>
      <point x="968" y="-3"/>
      <point x="980" y="-3" type="curve" smooth="yes"/>
      <point x="992" y="-3"/>
      <point x="1006" y="-3"/>
      <point x="1026" y="-2" type="curve"/>
      <point x="1029" y="20"/>
      <point x="1030" y="86"/>
      <point x="1030" y="178" type="curve" smooth="yes"/>
      <point x="1030" y="466"/>
      <point x="1018" y="1010"/>
      <point x="1010" y="1246" type="curve"/>
      <point x="985" y="1256"/>
      <point x="952" y="1265"/>
      <point x="909" y="1265" type="curve"/>
      <point x="957" y="147" type="line"/>
      <point x="811" y="414"/>
      <point x="536" y="916"/>
      <point x="307" y="1265" type="curve"/>
      <point x="291" y="1269"/>
      <point x="227" y="1274"/>
      <point x="198" y="1274" type="curve"/>
      <point x="197" y="1246"/>
      <point x="197" y="1179"/>
      <point x="197" y="1091" type="curve" smooth="yes"/>
      <point x="197" y="748"/>
      <point x="203" y="74"/>
      <point x="207" y="-9" type="curve"/>
      <point x="232" y="-9"/>
      <point x="282" y="-7"/>
    </contour>
  </outline>
</glyph>
<glyph name="O" format="2">
  <advance width="1354"/>
  <unicode hex="004F"/>
  <anchor x="677" y="0" name="bottom"/>
  <anchor x="620" y="646" name="center"/>
  <anchor x="869" y="0" name="ogonek"/>
  <anchor x="677" y="1291" name="top"/>
  <anchor x="20" y="1291" name="topleft"/>
  <anchor x="993" y="1173" name="topright"/>
  <outline>
    <contour>
      <point x="653" y="-51" type="curve" smooth="yes"/>
      <point x="1012" y="-51"/>
      <point x="1172" y="242"/>
      <point x="1172" y="601" type="curve" smooth="yes"/>
      <point x="1172" y="964"/>
      <point x="1042" y="1320"/>
      <point x="653" y="1320" type="curve" smooth="yes"/>
      <point x="296" y="1320"/>
      <point x="137" y="1032"/>
      <point x="137" y="613" type="curve" smooth="yes"/>
      <point x="137" y="248"/>
      <point x="301" y="-51"/>
    </contour>
    <contour>
      <point x="644" y="27" type="curve" smooth="yes"/>
      <point x="369" y="27"/>
      <point x="225" y="294"/>
      <point x="225" y="602" type="curve" smooth="yes"/>
      <point x="225" y="969"/>
      <point x="332" y="1239"/>
      <point x="660" y="1239" type="curve" smooth="yes"/>
      <point x="993" y="1239"/>
      <point x="1090" y="908"/>
      <point x="1090" y="589" type="curve" smooth="yes"/>
      <point x="1090" y="284"/>
      <point x="972" y="27"/>
    </contour>
  </outline>
</glyph>
<glyph name="P" format="2">
  <advance width="1010"/>
  <unicode hex="0050"/>
  <anchor x="505" y="0" name="bottom"/>
  <anchor x="505" y="1291" name="top"/>
  <outline>
    <contour>
      <point x="130" y="-26" type="curve"/>
      <point x="150" y="-27"/>
      <point x="191" y="-28"/>
      <point x="219" y="-28" type="curve"/>
      <point x="219" y="282"/>
      <point x="230" y="579"/>
      <point x="235" y="668" type="curve"/>
      <point x="303" y="660"/>
      <point x="371" y="657"/>
      <point x="432" y="657" type="curve" smooth="yes"/>
      <point x="703" y="657"/>
      <point x="865" y="743"/>
      <point x="865" y="1000" type="curve" smooth="yes"/>
      <point x="865" y="1196"/>
      <point x="732" y="1284"/>
      <point x="497" y="1284" type="curve" smooth="yes"/>
      <point x="350" y="1284"/>
      <point x="253" y="1265"/>
      <point x="171" y="1248" type="curve"/>
      <point x="156" y="925"/>
      <point x="130" y="360"/>
    </contour>
    <contour>
      <point x="239" y="747" type="curve"/>
      <point x="241" y="785"/>
      <point x="253" y="1168"/>
      <point x="253" y="1193" type="curve"/>
      <point x="358" y="1207"/>
      <point x="440" y="1213"/>
      <point x="506" y="1213" type="curve" smooth="yes"/>
      <point x="674" y="1213"/>
      <point x="788" y="1157"/>
      <point x="788" y="988" type="curve" smooth="yes"/>
      <point x="788" y="778"/>
      <point x="616" y="730"/>
      <point x="451" y="730" type="curve" smooth="yes"/>
      <point x="374" y="730"/>
      <point x="299" y="738"/>
    </contour>
  </outline>
</glyph>
<glyph name="Q" format="2">
  <advance width="1291"/>
  <unicode hex="0051"/>
  <anchor x="646" y="0" name="bottom"/>
  <anchor x="646" y="1291" name="top"/>
  <outline>
    <contour>
      <point x="1121" y="-31" type="curve"/>
      <point x="1134" y="-5"/>
      <point x="1146" y="37"/>
      <point x="1153" y="63" type="curve"/>
      <point x="1072" y="83"/>
      <point x="991" y="122"/>
      <point x="936" y="169" type="curve"/>
      <point x="1018" y="269"/>
      <point x="1074" y="430"/>
      <point x="1074" y="608" type="curve" smooth="yes"/>
      <point x="1074" y="1012"/>
      <point x="921" y="1299"/>
      <point x="574" y="1299" type="curve" smooth="yes"/>
      <point x="262" y="1299"/>
      <point x="130" y="986"/>
      <point x="130" y="654" type="curve" smooth="yes"/>
      <point x="130" y="320"/>
      <point x="260" y="8"/>
      <point x="585" y="8" type="curve" smooth="yes"/>
      <point x="770" y="8"/>
      <point x="851" y="84"/>
      <point x="876" y="113" type="curve"/>
      <point x="914" y="82"/>
      <point x="1064" y="-11"/>
    </contour>
    <contour>
      <point x="818" y="160" type="curve"/>
      <point x="796" y="135"/>
      <point x="731" y="80"/>
      <point x="603" y="80" type="curve" smooth="yes"/>
      <point x="315" y="80"/>
      <point x="220" y="332"/>
      <point x="220" y="647" type="curve" smooth="yes"/>
      <point x="220" y="961"/>
      <point x="335" y="1226"/>
      <point x="576" y="1226" type="curve" smooth="yes"/>
      <point x="868" y="1226"/>
      <point x="991" y="951"/>
      <point x="991" y="617" type="curve" smooth="yes"/>
      <point x="991" y="454"/>
      <point x="944" y="311"/>
      <point x="872" y="208" type="curve"/>
      <point x="779" y="292"/>
      <point x="700" y="430"/>
      <point x="656" y="518" type="curve"/>
      <point x="643" y="509"/>
      <point x="607" y="477"/>
      <point x="596" y="465" type="curve"/>
      <point x="649" y="363"/>
      <point x="740" y="227"/>
    </contour>
  </outline>
</glyph>
<glyph name="R" format="2">
  <advance width="1094"/>
  <unicode hex="0052"/>
  <anchor x="547" y="0" name="bottom"/>
  <anchor x="489" y="1317" name="top"/>
  <outline>
    <contour>
      <point x="219" y="-29" type="curve"/>
      <point x="251" y="-29"/>
      <point x="301" y="-27"/>
      <point x="321" y="-24" type="curve"/>
      <point x="306" y="149"/>
      <point x="279" y="586"/>
      <point x="277" y="622" type="curve"/>
      <point x="323" y="622"/>
      <point x="486" y="638"/>
      <point x="592" y="668" type="curve"/>
      <point x="645" y="567"/>
      <point x="793" y="228"/>
      <point x="835" y="-15" type="curve"/>
      <point x="855" y="-14"/>
      <point x="897" y="7"/>
      <point x="916" y="22" type="curve"/>
      <point x="884" y="176"/>
      <point x="738" y="582"/>
      <point x="661" y="695" type="curve"/>
      <point x="811" y="746"/>
      <point x="866" y="872"/>
      <point x="866" y="1009" type="curve" smooth="yes"/>
      <point x="866" y="1264"/>
      <point x="693" y="1321"/>
      <point x="500" y="1321" type="curve" smooth="yes"/>
      <point x="385" y="1321"/>
      <point x="238" y="1311"/>
      <point x="152" y="1303" type="curve"/>
      <point x="177" y="882"/>
      <point x="206" y="266"/>
    </contour>
    <contour>
      <point x="274" y="700" type="curve"/>
      <point x="270" y="748"/>
      <point x="236" y="1178"/>
      <point x="232" y="1236" type="curve"/>
      <point x="260" y="1239"/>
      <point x="446" y="1253"/>
      <point x="489" y="1253" type="curve" smooth="yes"/>
      <point x="638" y="1253"/>
      <point x="785" y="1227"/>
      <point x="785" y="1008" type="curve" smooth="yes"/>
      <point x="785" y="868"/>
      <point x="755" y="783"/>
      <point x="504" y="725" type="curve" smooth="yes"/>
      <point x="417" y="705"/>
      <point x="349" y="700"/>
    </contour>
  </outline>
</glyph>
<glyph name="S" format="2">
  <advance width="1152"/>
  <unicode hex="0053"/>
  <anchor x="576" y="0" name="bottom"/>
  <anchor x="518" y="1319" name="top"/>
  <outline>
    <contour>
      <point x="573" y="-9" type="curve" smooth="yes"/>
      <point x="871" y="-9"/>
      <point x="1014" y="212"/>
      <point x="1014" y="393" type="curve" smooth="yes"/>
      <point x="1014" y="649"/>
      <point x="758" y="720"/>
      <point x="504" y="788" type="curve" smooth="yes"/>
      <point x="381" y="821"/>
      <point x="198" y="873"/>
      <point x="198" y="1034" type="curve" smooth="yes"/>
      <point x="198" y="1177"/>
      <point x="304" y="1275"/>
      <point x="485" y="1275" type="curve" smooth="yes"/>
      <point x="738" y="1275"/>
      <point x="874" y="1145"/>
      <point x="904" y="1103" type="curve"/>
      <point x="915" y="1113"/>
      <point x="938" y="1154"/>
      <point x="944" y="1171" type="curve"/>
      <point x="921" y="1215"/>
      <point x="738" y="1349"/>
      <point x="506" y="1349" type="curve" smooth="yes"/>
      <point x="293" y="1349"/>
      <point x="116" y="1257"/>
      <point x="116" y="1060" type="curve" smooth="yes"/>
      <point x="116" y="858"/>
      <point x="255" y="769"/>
      <point x="487" y="711" type="curve" smooth="yes"/>
      <point x="698" y="658"/>
      <point x="930" y="581"/>
      <point x="930" y="392" type="curve" smooth="yes"/>
      <point x="930" y="248"/>
      <point x="822" y="72"/>
      <point x="560" y="72" type="curve" smooth="yes"/>
      <point x="300" y="72"/>
      <point x="136" y="311"/>
      <point x="108" y="376" type="curve"/>
      <point x="89" y="362"/>
      <point x="56" y="335"/>
      <point x="39" y="318" type="curve"/>
      <point x="79" y="227"/>
      <point x="274" y="-9"/>
    </contour>
  </outline>
</glyph>
<glyph name="T" format="2">
  <advance width="1039"/>
  <unicode hex="0054"/>
  <anchor x="550" y="0" name="bottom"/>
  <anchor x="520" y="646" name="center"/>
  <anchor x="520" y="1291" name="top"/>
  <outline>
    <contour>
      <point x="41" y="1243" type="curve"/>
      <point x="133" y="1248"/>
      <point x="366" y="1256"/>
      <point x="484" y="1258" type="curve"/>
      <point x="484" y="1223"/>
      <point x="484" y="1175"/>
      <point x="484" y="1118" type="curve" smooth="yes"/>
      <point x="484" y="798"/>
      <point x="494" y="189"/>
      <point x="504" y="-14" type="curve"/>
      <point x="522" y="-14"/>
      <point x="578" y="-12"/>
      <point x="595" y="-9" type="curve"/>
      <point x="592" y="83"/>
      <point x="570" y="1084"/>
      <point x="568" y="1256" type="curve"/>
      <point x="702" y="1256"/>
      <point x="940" y="1252"/>
      <point x="1002" y="1249" type="curve"/>
      <point x="1002" y="1273"/>
      <point x="1002" y="1306"/>
      <point x="998" y="1325" type="curve"/>
      <point x="886" y="1338"/>
      <point x="748" y="1342"/>
      <point x="605" y="1342" type="curve" smooth="yes"/>
      <point x="401" y="1342"/>
      <point x="188" y="1333"/>
      <point x="34" y="1326" type="curve"/>
      <point x="34" y="1299"/>
      <point x="37" y="1267"/>
    </contour>
  </outline>
</glyph>
<glyph name="U" format="2">
  <advance width="1212"/>
  <unicode hex="0055"/>
  <anchor x="606" y="0" name="bottom"/>
  <anchor x="784" y="0" name="ogonek"/>
  <anchor x="606" y="1330" name="top"/>
  <anchor x="976" y="1174" name="topright"/>
  <outline>
    <contour>
      <point x="595" y="-43" type="curve" smooth="yes"/>
      <point x="955" y="-43"/>
      <point x="1021" y="304"/>
      <point x="1021" y="818" type="curve" smooth="yes"/>
      <point x="1021" y="988"/>
      <point x="1009" y="1192"/>
      <point x="990" y="1316" type="curve"/>
      <point x="961" y="1325"/>
      <point x="925" y="1330"/>
      <point x="894" y="1330" type="curve"/>
      <point x="920" y="1144"/>
      <point x="930" y="892"/>
      <point x="930" y="728" type="curve" smooth="yes"/>
      <point x="930" y="275"/>
      <point x="829" y="32"/>
      <point x="610" y="32" type="curve" smooth="yes"/>
      <point x="442" y="32"/>
      <point x="335" y="136"/>
      <point x="283" y="358" type="curve" smooth="yes"/>
      <point x="258" y="463"/>
      <point x="246" y="596"/>
      <point x="246" y="757" type="curve" smooth="yes"/>
      <point x="246" y="932"/>
      <point x="256" y="1185"/>
      <point x="273" y="1362" type="curve"/>
      <point x="262" y="1365"/>
      <point x="239" y="1368"/>
      <point x="214" y="1368" type="curve" smooth="yes"/>
      <point x="199" y="1368"/>
      <point x="184" y="1366"/>
      <point x="174" y="1364" type="curve"/>
      <point x="168" y="1243"/>
      <point x="156" y="963"/>
      <point x="156" y="780" type="curve" smooth="yes"/>
      <point x="156" y="608"/>
      <point x="168" y="454"/>
      <point x="199" y="327" type="curve" smooth="yes"/>
      <point x="255" y="98"/>
      <point x="374" y="-43"/>
    </contour>
  </outline>
</glyph>
<glyph name="V" format="2">
  <advance width="1166"/>
  <unicode hex="0056"/>
  <anchor x="583" y="0" name="bottom"/>
  <anchor x="583" y="1291" name="top"/>
  <outline>
    <contour>
      <point x="579" y="-19" type="curve" smooth="yes"/>
      <point x="605" y="-19"/>
      <point x="624" y="-18"/>
      <point x="639" y="-16" type="curve"/>
      <point x="648" y="4"/>
      <point x="821" y="410"/>
      <point x="1036" y="1326" type="curve"/>
      <point x="1016" y="1344"/>
      <point x="981" y="1354"/>
      <point x="949" y="1359" type="curve"/>
      <point x="945" y="1338"/>
      <point x="801" y="627"/>
      <point x="579" y="49" type="curve"/>
      <point x="434" y="339"/>
      <point x="222" y="1168"/>
      <point x="200" y="1361" type="curve"/>
      <point x="178" y="1361"/>
      <point x="123" y="1352"/>
      <point x="109" y="1347" type="curve"/>
      <point x="133" y="1191"/>
      <point x="299" y="448"/>
      <point x="508" y="-10" type="curve"/>
      <point x="524" y="-16"/>
      <point x="555" y="-19"/>
    </contour>
  </outline>
</glyph>
<glyph name="W" format="2">
  <advance width="1344"/>
  <unicode hex="0057"/>
  <anchor x="672" y="0" name="bottom"/>
  <anchor x="672" y="1291" name="top"/>
  <outline>
    <contour>
      <point x="903" y="-17" type="curve"/>
      <point x="998" y="-11" type="line"/>
      <point x="1020" y="42"/>
      <point x="1128" y="713"/>
      <point x="1128" y="1352" type="curve"/>
      <point x="1035" y="1344" type="line"/>
      <point x="1035" y="998"/>
      <point x="1001" y="421"/>
      <point x="944" y="104" type="curve"/>
      <point x="904" y="268"/>
      <point x="732" y="833"/>
      <point x="728" y="840" type="curve"/>
      <point x="634" y="844" type="line"/>
      <point x="619" y="820"/>
      <point x="358" y="310"/>
      <point x="302" y="127" type="curve"/>
      <point x="269" y="553"/>
      <point x="262" y="908"/>
      <point x="262" y="1340" type="curve"/>
      <point x="176" y="1344" type="line"/>
      <point x="176" y="923"/>
      <point x="186" y="598"/>
      <point x="239" y="-8" type="curve"/>
      <point x="312" y="-8" type="line"/>
      <point x="331" y="32"/>
      <point x="637" y="672"/>
      <point x="670" y="742" type="curve"/>
      <point x="700" y="663"/>
      <point x="848" y="178"/>
    </contour>
  </outline>
</glyph>
<glyph name="X" format="2">
  <advance width="1113"/>
  <unicode hex="0058"/>
  <anchor x="575" y="0" name="bottom"/>
  <anchor x="575" y="1291" name="top"/>
  <outline>
    <contour>
      <point x="550" y="646" type="curve"/>
      <point x="517" y="590"/>
      <point x="298" y="293"/>
      <point x="100" y="39" type="curve"/>
      <point x="126" y="19"/>
      <point x="154" y="5"/>
      <point x="188" y="1" type="curve"/>
      <point x="199" y="16"/>
      <point x="581" y="557"/>
      <point x="593" y="583" type="curve"/>
      <point x="723" y="376"/>
      <point x="859" y="121"/>
      <point x="926" y="-15" type="curve"/>
      <point x="954" y="-14"/>
      <point x="984" y="-9"/>
      <point x="1013" y="10" type="curve"/>
      <point x="919" y="181"/>
      <point x="702" y="560"/>
      <point x="642" y="649" type="curve"/>
      <point x="675" y="695"/>
      <point x="902" y="1016"/>
      <point x="1008" y="1272" type="curve"/>
      <point x="987" y="1285"/>
      <point x="962" y="1299"/>
      <point x="931" y="1308" type="curve"/>
      <point x="910" y="1251"/>
      <point x="762" y="933"/>
      <point x="601" y="714" type="curve"/>
      <point x="413" y="1046"/>
      <point x="262" y="1253"/>
      <point x="206" y="1328" type="curve"/>
      <point x="178" y="1323"/>
      <point x="151" y="1312"/>
      <point x="117" y="1297" type="curve"/>
      <point x="171" y="1231"/>
      <point x="387" y="942"/>
    </contour>
  </outline>
</glyph>
<glyph name="Y" format="2">
  <advance width="1065"/>
  <unicode hex="0059"/>
  <anchor x="573" y="0" name="bottom"/>
  <anchor x="573" y="1291" name="top"/>
  <anchor x="60" y="1291" name="topleft"/>
  <outline>
    <contour>
      <point x="500" y="489" type="curve"/>
      <point x="493" y="319"/>
      <point x="484" y="69"/>
      <point x="484" y="-10" type="curve"/>
      <point x="507" y="-13"/>
      <point x="524" y="-14"/>
      <point x="540" y="-14" type="curve" smooth="yes"/>
      <point x="553" y="-14"/>
      <point x="568" y="-13"/>
      <point x="583" y="-12" type="curve"/>
      <point x="580" y="20"/>
      <point x="580" y="165"/>
      <point x="580" y="254" type="curve" smooth="yes"/>
      <point x="580" y="323"/>
      <point x="580" y="457"/>
      <point x="580" y="491" type="curve"/>
      <point x="775" y="882"/>
      <point x="903" y="1121"/>
      <point x="985" y="1241" type="curve"/>
      <point x="963" y="1260"/>
      <point x="934" y="1285"/>
      <point x="896" y="1303" type="curve"/>
      <point x="836" y="1183"/>
      <point x="589" y="692"/>
      <point x="537" y="591" type="curve"/>
      <point x="450" y="761"/>
      <point x="241" y="1248"/>
      <point x="221" y="1318" type="curve"/>
      <point x="185" y="1313"/>
      <point x="153" y="1303"/>
      <point x="124" y="1292" type="curve"/>
      <point x="141" y="1248"/>
      <point x="462" y="550"/>
    </contour>
  </outline>
</glyph>
<glyph name="Z" format="2">
  <advance width="1044"/>
  <unicode hex="005A"/>
  <anchor x="522" y="0" name="bottom"/>
  <anchor x="522" y="646" name="center"/>
  <anchor x="522" y="1291" name="top"/>
  <outline>
    <contour>
      <point x="879" y="-14" type="curve"/>
      <point x="881" y="-3"/>
      <point x="884" y="16"/>
      <point x="886" y="37" type="curve" smooth="yes"/>
      <point x="888" y="54"/>
      <point x="889" y="71"/>
      <point x="889" y="85" type="curve"/>
      <point x="838" y="83"/>
      <point x="771" y="82"/>
      <point x="698" y="82" type="curve" smooth="yes"/>
      <point x="500" y="82"/>
      <point x="253" y="89"/>
      <point x="140" y="98" type="curve"/>
      <point x="236" y="206"/>
      <point x="703" y="870"/>
      <point x="894" y="1262" type="curve"/>
      <point x="896" y="1275"/>
      <point x="898" y="1292"/>
      <point x="898" y="1310" type="curve" smooth="yes"/>
      <point x="898" y="1316"/>
      <point x="898" y="1323"/>
      <point x="897" y="1330" type="curve"/>
      <point x="858" y="1330"/>
      <point x="721" y="1327"/>
      <point x="700" y="1326" type="curve" smooth="yes"/>
      <point x="528" y="1320"/>
      <point x="309" y="1307"/>
      <point x="109" y="1294" type="curve"/>
      <point x="108" y="1286"/>
      <point x="108" y="1269"/>
      <point x="108" y="1251" type="curve" smooth="yes"/>
      <point x="108" y="1234"/>
      <point x="108" y="1217"/>
      <point x="109" y="1209" type="curve"/>
      <point x="347" y="1229"/>
      <point x="735" y="1256"/>
      <point x="810" y="1256" type="curve"/>
      <point x="704" y="1058"/>
      <point x="241" y="325"/>
      <point x="44" y="96" type="curve"/>
      <point x="44" y="79"/>
      <point x="46" y="39"/>
      <point x="47" y="22" type="curve"/>
      <point x="367" y="-5"/>
      <point x="643" y="-14"/>
    </contour>
  </outline>
</glyph>
<glyph name="bracketleft" format="2">
  <advance width="735"/>
  <unicode hex="005B"/>
  <outline>
    <contour>
      <point x="323" y="-527" type="curve" smooth="yes"/>
      <point x="426" y="-527"/>
      <point x="530" y="-524"/>
      <point x="600" y="-518" type="curve"/>
      <point x="602" y="-506"/>
      <point x="605" y="-480"/>
      <point x="605" y="-464" type="curve"/>
      <point x="540" y="-466"/>
      <point x="441" y="-466"/>
      <point x="355" y="-466" type="curve" smooth="yes"/>
      <point x="268" y="-466"/>
      <point x="193" y="-466"/>
      <point x="176" y="-467" type="curve"/>
      <point x="159" y="-305"/>
      <point x="149" y="96"/>
      <point x="149" y="499" type="curve" smooth="yes"/>
      <point x="149" y="911"/>
      <point x="159" y="1326"/>
      <point x="183" y="1488" type="curve"/>
      <point x="356" y="1505"/>
      <point x="598" y="1521"/>
      <point x="680" y="1524" type="curve"/>
      <point x="682" y="1536"/>
      <point x="682" y="1545"/>
      <point x="682" y="1553" type="curve" smooth="yes"/>
      <point x="682" y="1566"/>
      <point x="681" y="1575"/>
      <point x="679" y="1582" type="curve"/>
      <point x="540" y="1582"/>
      <point x="243" y="1563"/>
      <point x="113" y="1538" type="curve"/>
      <point x="79" y="1282"/>
      <point x="65" y="919"/>
      <point x="65" y="540" type="curve" smooth="yes"/>
      <point x="65" y="172"/>
      <point x="78" y="-211"/>
      <point x="101" y="-522" type="curve"/>
      <point x="165" y="-525"/>
      <point x="244" y="-527"/>
    </contour>
  </outline>
</glyph>
<glyph name="backslash" format="2">
  <advance width="725"/>
  <unicode hex="005C"/>
  <outline>
    <contour>
      <point x="718" y="-40" type="curve"/>
      <point x="578" y="141"/>
      <point x="150" y="1311"/>
      <point x="106" y="1468" type="curve"/>
      <point x="87" y="1468"/>
      <point x="46" y="1458"/>
      <point x="36" y="1454" type="curve"/>
      <point x="205" y="913"/>
      <point x="413" y="381"/>
      <point x="646" y="-77" type="curve"/>
      <point x="659" y="-73"/>
      <point x="702" y="-55"/>
    </contour>
  </outline>
</glyph>
<glyph name="bracketright" format="2">
  <advance width="619"/>
  <unicode hex="005D"/>
  <outline>
    <contour>
      <point x="613" y="492" type="curve" smooth="yes"/>
      <point x="613" y="1008"/>
      <point x="570" y="1384"/>
      <point x="533" y="1575" type="curve"/>
      <point x="402" y="1592"/>
      <point x="283" y="1597"/>
      <point x="152" y="1597" type="curve" smooth="yes"/>
      <point x="110" y="1597"/>
      <point x="49" y="1597"/>
      <point x="22" y="1597" type="curve"/>
      <point x="20" y="1577"/>
      <point x="19" y="1551"/>
      <point x="19" y="1539" type="curve"/>
      <point x="30" y="1539"/>
      <point x="55" y="1539"/>
      <point x="89" y="1539" type="curve" smooth="yes"/>
      <point x="193" y="1539"/>
      <point x="376" y="1537"/>
      <point x="474" y="1520" type="curve"/>
      <point x="511" y="1332"/>
      <point x="536" y="886"/>
      <point x="536" y="439" type="curve" smooth="yes"/>
      <point x="536" y="119"/>
      <point x="523" y="-203"/>
      <point x="493" y="-431" type="curve"/>
      <point x="452" y="-442"/>
      <point x="166" y="-464"/>
      <point x="44" y="-464" type="curve"/>
      <point x="42" y="-471"/>
      <point x="40" y="-511"/>
      <point x="40" y="-521" type="curve"/>
      <point x="160" y="-521"/>
      <point x="411" y="-510"/>
      <point x="566" y="-481" type="curve"/>
      <point x="600" y="-119"/>
      <point x="613" y="208"/>
    </contour>
  </outline>
</glyph>
<glyph name="asciicircum" format="2">
  <advance width="1032"/>
  <unicode hex="005E"/>
  <outline>
    <contour>
      <point x="593" y="1325" type="curve"/>
      <point x="585" y="1327"/>
      <point x="565" y="1331"/>
      <point x="543" y="1331" type="curve" smooth="yes"/>
      <point x="527" y="1331"/>
      <point x="509" y="1330"/>
      <point x="494" y="1326" type="curve"/>
      <point x="378" y="1217"/>
      <point x="143" y="976"/>
      <point x="17" y="812" type="curve"/>
      <point x="29" y="800"/>
      <point x="49" y="781"/>
      <point x="63" y="769" type="curve"/>
      <point x="144" y="869"/>
      <point x="439" y="1185"/>
      <point x="554" y="1295" type="curve"/>
      <point x="531" y="1289" type="line"/>
      <point x="596" y="1245"/>
      <point x="899" y="857"/>
      <point x="944" y="766" type="curve"/>
      <point x="958" y="774"/>
      <point x="979" y="788"/>
      <point x="993" y="805" type="curve"/>
      <point x="921" y="965"/>
      <point x="679" y="1245"/>
    </contour>
  </outline>
</glyph>
<glyph name="underscore" format="2">
  <advance width="1549"/>
  <unicode hex="005F"/>
  <outline>
    <contour>
      <point x="490" y="5" type="curve" smooth="yes"/>
      <point x="412" y="5"/>
      <point x="100" y="5"/>
      <point x="36" y="7" type="curve"/>
      <point x="36" y="-12"/>
      <point x="39" y="-49"/>
      <point x="41" y="-58" type="curve"/>
      <point x="196" y="-60"/>
      <point x="961" y="-66"/>
      <point x="1214" y="-66" type="curve" smooth="yes"/>
      <point x="1309" y="-66"/>
      <point x="1384" y="-65"/>
      <point x="1438" y="-62" type="curve"/>
      <point x="1441" y="-48"/>
      <point x="1444" y="-27"/>
      <point x="1444" y="19" type="curve"/>
      <point x="1240" y="13"/>
      <point x="910" y="5"/>
    </contour>
  </outline>
</glyph>
<glyph name="a" format="2">
  <advance width="1295"/>
  <unicode hex="0061"/>
  <anchor x="620" y="0" name="bottom"/>
  <anchor x="1172" y="7" name="ogonek"/>
  <anchor x="620" y="1063" name="top"/>
  <outline>
    <contour>
      <point x="550" y="-24" type="curve" smooth="yes"/>
      <point x="741" y="-24"/>
      <point x="921" y="75"/>
      <point x="970" y="145" type="curve"/>
      <point x="977" y="87"/>
      <point x="1023" y="0"/>
      <point x="1129" y="0" type="curve" smooth="yes"/>
      <point x="1214" y="0"/>
      <point x="1305" y="73"/>
      <point x="1305" y="236" type="curve"/>
      <point x="1216" y="249" type="line"/>
      <point x="1216" y="149"/>
      <point x="1182" y="92"/>
      <point x="1132" y="92" type="curve" smooth="yes"/>
      <point x="1095" y="92"/>
      <point x="1076" y="104"/>
      <point x="1067" y="177" type="curve" smooth="yes"/>
      <point x="1059" y="238"/>
      <point x="1057" y="340"/>
      <point x="1057" y="513" type="curve" smooth="yes"/>
      <point x="1057" y="657"/>
      <point x="1036" y="734"/>
      <point x="1001" y="810" type="curve" smooth="yes"/>
      <point x="937" y="948"/>
      <point x="785" y="1055"/>
      <point x="572" y="1055" type="curve" smooth="yes"/>
      <point x="356" y="1055"/>
      <point x="188" y="956"/>
      <point x="105" y="822" type="curve"/>
      <point x="184" y="767" type="line"/>
      <point x="247" y="881"/>
      <point x="372" y="975"/>
      <point x="566" y="975" type="curve" smooth="yes"/>
      <point x="744" y="975"/>
      <point x="873" y="887"/>
      <point x="933" y="762" type="curve" smooth="yes"/>
      <point x="954" y="719"/>
      <point x="963" y="666"/>
      <point x="970" y="611" type="curve"/>
      <point x="938" y="621"/>
      <point x="767" y="665"/>
      <point x="606" y="665" type="curve" smooth="yes"/>
      <point x="306" y="665"/>
      <point x="102" y="540"/>
      <point x="102" y="312" type="curve" smooth="yes"/>
      <point x="102" y="68"/>
      <point x="298" y="-24"/>
    </contour>
    <contour>
      <point x="555" y="55" type="curve" smooth="yes"/>
      <point x="344" y="55"/>
      <point x="188" y="107"/>
      <point x="188" y="314" type="curve" smooth="yes"/>
      <point x="188" y="477"/>
      <point x="357" y="586"/>
      <point x="593" y="586" type="curve" smooth="yes"/>
      <point x="777" y="586"/>
      <point x="925" y="545"/>
      <point x="972" y="530" type="curve"/>
      <point x="967" y="451"/>
      <point x="963" y="372"/>
      <point x="963" y="250" type="curve"/>
      <point x="869" y="135"/>
      <point x="719" y="55"/>
    </contour>
  </outline>
</glyph>
<glyph name="b" format="2">
  <advance width="1200"/>
  <unicode hex="0062"/>
  <anchor x="600" y="0" name="bottom"/>
  <anchor x="600" y="1470" name="top"/>
  <outline>
    <contour>
      <point x="217" y="-22" type="curve"/>
      <point x="239" y="-22"/>
      <point x="303" y="-20"/>
      <point x="318" y="-19" type="curve"/>
      <point x="318" y="12"/>
      <point x="316" y="74"/>
      <point x="313" y="113" type="curve"/>
      <point x="357" y="76"/>
      <point x="449" y="6"/>
      <point x="615" y="6" type="curve" smooth="yes"/>
      <point x="876" y="6"/>
      <point x="1018" y="163"/>
      <point x="1018" y="427" type="curve" smooth="yes"/>
      <point x="1018" y="698"/>
      <point x="892" y="923"/>
      <point x="634" y="923" type="curve" smooth="yes"/>
      <point x="444" y="923"/>
      <point x="297" y="764"/>
      <point x="279" y="744" type="curve"/>
      <point x="268" y="980"/>
      <point x="256" y="1274"/>
      <point x="256" y="1438" type="curve"/>
      <point x="234" y="1438"/>
      <point x="191" y="1436"/>
      <point x="173" y="1433" type="curve"/>
      <point x="173" y="1221"/>
      <point x="205" y="142"/>
    </contour>
    <contour>
      <point x="311" y="219" type="curve"/>
      <point x="309" y="258"/>
      <point x="287" y="583"/>
      <point x="284" y="626" type="curve"/>
      <point x="352" y="709"/>
      <point x="466" y="844"/>
      <point x="629" y="844" type="curve" smooth="yes"/>
      <point x="836" y="844"/>
      <point x="934" y="648"/>
      <point x="934" y="419" type="curve" smooth="yes"/>
      <point x="934" y="219"/>
      <point x="838" y="88"/>
      <point x="629" y="88" type="curve" smooth="yes"/>
      <point x="454" y="88"/>
      <point x="342" y="183"/>
    </contour>
  </outline>
</glyph>
<glyph name="c" format="2">
  <advance width="1026"/>
  <unicode hex="0063"/>
  <anchor x="513" y="0" name="bottom"/>
  <anchor x="513" y="1063" name="top"/>
  <outline>
    <contour>
      <point x="926" y="203" type="curve"/>
      <point x="863" y="246" type="line"/>
      <point x="851" y="226"/>
      <point x="756" y="73"/>
      <point x="550" y="73" type="curve" smooth="yes"/>
      <point x="292" y="73"/>
      <point x="181" y="301"/>
      <point x="181" y="572" type="curve" smooth="yes"/>
      <point x="181" y="833"/>
      <point x="311" y="1023"/>
      <point x="539" y="1023" type="curve" smooth="yes"/>
      <point x="767" y="1023"/>
      <point x="833" y="861"/>
      <point x="848" y="821" type="curve"/>
      <point x="908" y="880" type="line"/>
      <point x="864" y="980"/>
      <point x="735" y="1094"/>
      <point x="551" y="1094" type="curve" smooth="yes"/>
      <point x="239" y="1094"/>
      <point x="92" y="871"/>
      <point x="92" y="538" type="curve" smooth="yes"/>
      <point x="92" y="245"/>
      <point x="257" y="-4"/>
      <point x="542" y="-4" type="curve" smooth="yes"/>
      <point x="743" y="-4"/>
      <point x="888" y="113"/>
    </contour>
  </outline>
</glyph>
<glyph name="d" format="2">
  <advance width="1195"/>
  <unicode hex="0064"/>
  <anchor x="598" y="0" name="bottom"/>
  <anchor x="882" y="1220" name="center"/>
  <anchor x="598" y="1470" name="top"/>
  <anchor x="1065" y="1005" name="topright"/>
  <outline>
    <contour>
      <point x="922" y="3" type="curve"/>
      <point x="930" y="2"/>
      <point x="988" y="1"/>
      <point x="1005" y="1" type="curve"/>
      <point x="1005" y="456"/>
      <point x="1006" y="927"/>
      <point x="1045" y="1401" type="curve"/>
      <point x="1027" y="1402"/>
      <point x="990" y="1404"/>
      <point x="961" y="1404" type="curve"/>
      <point x="952" y="1317"/>
      <point x="930" y="944"/>
      <point x="927" y="838" type="curve"/>
      <point x="882" y="872"/>
      <point x="748" y="959"/>
      <point x="537" y="959" type="curve" smooth="yes"/>
      <point x="238" y="959"/>
      <point x="86" y="728"/>
      <point x="86" y="473" type="curve" smooth="yes"/>
      <point x="86" y="183"/>
      <point x="239" y="8"/>
      <point x="524" y="8" type="curve" smooth="yes"/>
      <point x="810" y="8"/>
      <point x="915" y="184"/>
      <point x="922" y="203" type="curve"/>
      <point x="922" y="174"/>
      <point x="922" y="43"/>
    </contour>
    <contour>
      <point x="537" y="85" type="curve" smooth="yes"/>
      <point x="302" y="85"/>
      <point x="172" y="214"/>
      <point x="172" y="469" type="curve" smooth="yes"/>
      <point x="172" y="723"/>
      <point x="301" y="878"/>
      <point x="553" y="878" type="curve" smooth="yes"/>
      <point x="736" y="878"/>
      <point x="876" y="790"/>
      <point x="925" y="749" type="curve"/>
      <point x="923" y="680"/>
      <point x="920" y="393"/>
      <point x="920" y="321" type="curve"/>
      <point x="904" y="283"/>
      <point x="794" y="85"/>
    </contour>
  </outline>
</glyph>
<glyph name="e" format="2">
  <advance width="1092"/>
  <unicode hex="0065"/>
  <anchor x="556" y="10" name="bottom"/>
  <anchor x="737" y="53" name="ogonek"/>
  <anchor x="602" y="1070" name="top"/>
  <outline>
    <contour>
      <point x="1031" y="266" type="curve"/>
      <point x="1023" y="284"/>
      <point x="982" y="319"/>
      <point x="965" y="333" type="curve"/>
      <point x="958" y="319"/>
      <point x="847" y="101"/>
      <point x="578" y="101" type="curve" smooth="yes"/>
      <point x="402" y="101"/>
      <point x="236" y="204"/>
      <point x="194" y="367" type="curve" smooth="yes"/>
      <point x="184" y="407"/>
      <point x="176" y="450"/>
      <point x="175" y="497" type="curve"/>
      <point x="321" y="518"/>
      <point x="507" y="537"/>
      <point x="661" y="537" type="curve" smooth="yes"/>
      <point x="803" y="537"/>
      <point x="961" y="527"/>
      <point x="990" y="525" type="curve"/>
      <point x="990" y="564"/>
      <point x="988" y="602"/>
      <point x="984" y="638" type="curve" smooth="yes"/>
      <point x="957" y="894"/>
      <point x="830" y="1070"/>
      <point x="592" y="1070" type="curve" smooth="yes"/>
      <point x="308" y="1070"/>
      <point x="88" y="877"/>
      <point x="88" y="568" type="curve" smooth="yes"/>
      <point x="88" y="228"/>
      <point x="273" y="27"/>
      <point x="572" y="27" type="curve" smooth="yes"/>
      <point x="840" y="27"/>
      <point x="995" y="207"/>
    </contour>
    <contour>
      <point x="169" y="578" type="curve"/>
      <point x="175" y="849"/>
      <point x="365" y="984"/>
      <point x="584" y="984" type="curve" smooth="yes"/>
      <point x="780" y="984"/>
      <point x="863" y="833"/>
      <point x="890" y="706" type="curve" smooth="yes"/>
      <point x="897" y="672"/>
      <point x="900" y="639"/>
      <point x="900" y="612" type="curve"/>
      <point x="870" y="614"/>
      <point x="799" y="618"/>
      <point x="688" y="618" type="curve" smooth="yes"/>
      <point x="471" y="618"/>
      <point x="300" y="599"/>
    </contour>
  </outline>
</glyph>
<glyph name="f" format="2">
  <advance width="896"/>
  <unicode hex="0066"/>
  <anchor x="448" y="0" name="bottom"/>
  <anchor x="448" y="1470" name="top"/>
  <outline>
    <contour>
      <point x="344" y="2" type="curve"/>
      <point x="361" y="3"/>
      <point x="409" y="12"/>
      <point x="434" y="19" type="curve"/>
      <point x="421" y="50"/>
      <point x="350" y="398"/>
      <point x="323" y="583" type="curve"/>
      <point x="451" y="600"/>
      <point x="634" y="614"/>
      <point x="653" y="614" type="curve"/>
      <point x="653" y="639"/>
      <point x="650" y="672"/>
      <point x="646" y="691" type="curve"/>
      <point x="573" y="691"/>
      <point x="381" y="670"/>
      <point x="312" y="660" type="curve"/>
      <point x="304" y="728"/>
      <point x="294" y="840"/>
      <point x="294" y="912" type="curve" smooth="yes"/>
      <point x="294" y="1108"/>
      <point x="341" y="1293"/>
      <point x="529" y="1293" type="curve" smooth="yes"/>
      <point x="712" y="1293"/>
      <point x="794" y="1081"/>
      <point x="807" y="1046" type="curve"/>
      <point x="824" y="1058"/>
      <point x="863" y="1092"/>
      <point x="874" y="1106" type="curve"/>
      <point x="852" y="1167"/>
      <point x="736" y="1368"/>
      <point x="527" y="1368" type="curve" smooth="yes"/>
      <point x="308" y="1368"/>
      <point x="211" y="1170"/>
      <point x="211" y="923" type="curve" smooth="yes"/>
      <point x="211" y="839"/>
      <point x="220" y="737"/>
      <point x="231" y="646" type="curve"/>
      <point x="204" y="641"/>
      <point x="46" y="603"/>
      <point x="21" y="593" type="curve"/>
      <point x="24" y="573"/>
      <point x="31" y="542"/>
      <point x="39" y="520" type="curve"/>
      <point x="80" y="535"/>
      <point x="177" y="559"/>
      <point x="240" y="571" type="curve"/>
      <point x="269" y="368"/>
      <point x="340" y="21"/>
    </contour>
  </outline>
</glyph>
<glyph name="g" format="2">
  <advance width="1231"/>
  <unicode hex="0067"/>
  <anchor x="616" y="-530" name="bottom"/>
  <anchor x="616" y="1063" name="top"/>
  <outline>
    <contour>
      <point x="627" y="205" type="curve" smooth="yes"/>
      <point x="864" y="205"/>
      <point x="1052" y="372"/>
      <point x="1052" y="643" type="curve" smooth="yes"/>
      <point x="1052" y="756"/>
      <point x="1020" y="849"/>
      <point x="962" y="918" type="curve"/>
      <point x="1011" y="969"/>
      <point x="1083" y="1040"/>
      <point x="1103" y="1057" type="curve"/>
      <point x="1091" y="1066"/>
      <point x="1049" y="1113"/>
      <point x="1039" y="1128" type="curve"/>
      <point x="1003" y="1091"/>
      <point x="950" y="1029"/>
      <point x="910" y="968" type="curve"/>
      <point x="836" y="1025"/>
      <point x="734" y="1056"/>
      <point x="612" y="1056" type="curve" smooth="yes"/>
      <point x="375" y="1056"/>
      <point x="180" y="896"/>
      <point x="180" y="635" type="curve" smooth="yes"/>
      <point x="180" y="526"/>
      <point x="210" y="418"/>
      <point x="282" y="338" type="curve"/>
      <point x="216" y="310"/>
      <point x="174" y="249"/>
      <point x="174" y="190" type="curve" smooth="yes"/>
      <point x="174" y="138"/>
      <point x="206" y="81"/>
      <point x="265" y="45" type="curve"/>
      <point x="147" y="1"/>
      <point x="78" y="-95"/>
      <point x="78" y="-208" type="curve" smooth="yes"/>
      <point x="78" y="-432"/>
      <point x="285" y="-499"/>
      <point x="571" y="-499" type="curve" smooth="yes"/>
      <point x="892" y="-499"/>
      <point x="1073" y="-401"/>
      <point x="1073" y="-175" type="curve" smooth="yes"/>
      <point x="1073" y="-5"/>
      <point x="914" y="72"/>
      <point x="702" y="72" type="curve" smooth="yes"/>
      <point x="624" y="72"/>
      <point x="509" y="72"/>
      <point x="406" y="72" type="curve"/>
      <point x="317" y="79"/>
      <point x="255" y="139"/>
      <point x="255" y="196" type="curve" smooth="yes"/>
      <point x="255" y="231"/>
      <point x="277" y="267"/>
      <point x="330" y="292" type="curve"/>
      <point x="400" y="238"/>
      <point x="497" y="205"/>
    </contour>
    <contour>
      <point x="589" y="-429" type="curve" smooth="yes"/>
      <point x="372" y="-429"/>
      <point x="168" y="-393"/>
      <point x="168" y="-208" type="curve" smooth="yes"/>
      <point x="168" y="-41"/>
      <point x="315" y="5"/>
      <point x="410" y="5" type="curve" smooth="yes"/>
      <point x="706" y="5" type="line" smooth="yes"/>
      <point x="822" y="5"/>
      <point x="985" y="-26"/>
      <point x="985" y="-187" type="curve" smooth="yes"/>
      <point x="985" y="-378"/>
      <point x="799" y="-429"/>
    </contour>
    <contour>
      <point x="611" y="282" type="curve" smooth="yes"/>
      <point x="401" y="282"/>
      <point x="267" y="428"/>
      <point x="267" y="640" type="curve" smooth="yes"/>
      <point x="267" y="877"/>
      <point x="413" y="974"/>
      <point x="631" y="974" type="curve" smooth="yes"/>
      <point x="839" y="974"/>
      <point x="972" y="833"/>
      <point x="972" y="650" type="curve" smooth="yes"/>
      <point x="972" y="447"/>
      <point x="872" y="282"/>
    </contour>
  </outline>
</glyph>
<glyph name="h" format="2">
  <advance width="1123"/>
  <unicode hex="0068"/>
  <anchor x="562" y="0" name="bottom"/>
  <anchor x="335" y="1265" name="center"/>
  <anchor x="192" y="1403" name="top"/>
  <outline>
    <contour>
      <point x="253" y="-29" type="curve"/>
      <point x="267" y="60"/>
      <point x="280" y="349"/>
      <point x="280" y="585" type="curve"/>
      <point x="287" y="610"/>
      <point x="453" y="827"/>
      <point x="650" y="827" type="curve" smooth="yes"/>
      <point x="827" y="827"/>
      <point x="857" y="684"/>
      <point x="857" y="485" type="curve" smooth="yes"/>
      <point x="857" y="314"/>
      <point x="831" y="126"/>
      <point x="812" y="-11" type="curve"/>
      <point x="821" y="-12"/>
      <point x="842" y="-14"/>
      <point x="861" y="-14" type="curve" smooth="yes"/>
      <point x="880" y="-14"/>
      <point x="899" y="-14"/>
      <point x="913" y="-14" type="curve"/>
      <point x="930" y="156"/>
      <point x="950" y="359"/>
      <point x="950" y="502" type="curve" smooth="yes"/>
      <point x="950" y="737"/>
      <point x="868" y="909"/>
      <point x="671" y="909" type="curve" smooth="yes"/>
      <point x="506" y="909"/>
      <point x="347" y="802"/>
      <point x="279" y="706" type="curve"/>
      <point x="279" y="978"/>
      <point x="268" y="1292"/>
      <point x="238" y="1443" type="curve"/>
      <point x="222" y="1441"/>
      <point x="185" y="1431"/>
      <point x="166" y="1424" type="curve"/>
      <point x="178" y="1234"/>
      <point x="187" y="981"/>
      <point x="187" y="733" type="curve" smooth="yes"/>
      <point x="187" y="427"/>
      <point x="175" y="134"/>
      <point x="156" y="-26" type="curve"/>
      <point x="164" y="-27"/>
      <point x="187" y="-29"/>
      <point x="202" y="-29" type="curve" smooth="yes"/>
      <point x="220" y="-29"/>
      <point x="239" y="-29"/>
    </contour>
  </outline>
</glyph>
<glyph name="i" format="2">
  <advance width="610"/>
  <unicode hex="0069"/>
  <anchor x="276" y="0" name="bottom"/>
  <outline>
    <contour>
      <point x="320" y="-3" type="curve"/>
      <point x="329" y="93"/>
      <point x="336" y="523"/>
      <point x="336" y="776" type="curve" smooth="yes"/>
      <point x="336" y="848"/>
      <point x="335" y="907"/>
      <point x="334" y="938" type="curve"/>
      <point x="322" y="938"/>
      <point x="267" y="934"/>
      <point x="261" y="933" type="curve"/>
      <point x="261" y="730"/>
      <point x="238" y="85"/>
      <point x="223" y="-2" type="curve"/>
      <point x="234" y="-4"/>
      <point x="250" y="-6"/>
      <point x="273" y="-6" type="curve" smooth="yes"/>
      <point x="286" y="-6"/>
      <point x="302" y="-5"/>
    </contour>
    <contour>
      <point x="310" y="1121" type="curve" smooth="yes"/>
      <point x="363" y="1121"/>
      <point x="387" y="1164"/>
      <point x="387" y="1210" type="curve" smooth="yes"/>
      <point x="387" y="1267"/>
      <point x="361" y="1316"/>
      <point x="309" y="1316" type="curve" smooth="yes"/>
      <point x="261" y="1316"/>
      <point x="225" y="1284"/>
      <point x="225" y="1219" type="curve" smooth="yes"/>
      <point x="225" y="1168"/>
      <point x="249" y="1121"/>
    </contour>
  </outline>
</glyph>
<glyph name="j" format="2">
  <advance width="610"/>
  <unicode hex="006A"/>
  <outline>
    <contour>
      <point x="430" y="153" type="curve" smooth="yes"/>
      <point x="430" y="408"/>
      <point x="402" y="730"/>
      <point x="348" y="999" type="curve"/>
      <point x="271" y="991" type="line"/>
      <point x="315" y="709"/>
      <point x="345" y="418"/>
      <point x="345" y="177" type="curve" smooth="yes"/>
      <point x="345" y="-78"/>
      <point x="317" y="-378"/>
      <point x="126" y="-378" type="curve" smooth="yes"/>
      <point x="-26" y="-378"/>
      <point x="-129" y="-220"/>
      <point x="-174" y="-103" type="curve"/>
      <point x="-197" y="-119"/>
      <point x="-234" y="-145"/>
      <point x="-251" y="-163" type="curve"/>
      <point x="-182" y="-338"/>
      <point x="-43" y="-454"/>
      <point x="132" y="-454" type="curve" smooth="yes"/>
      <point x="388" y="-454"/>
      <point x="430" y="-171"/>
    </contour>
    <contour>
      <point x="288" y="1339" type="curve" smooth="yes"/>
      <point x="238" y="1339"/>
      <point x="202" y="1306"/>
      <point x="202" y="1259" type="curve" smooth="yes"/>
      <point x="202" y="1211"/>
      <point x="239" y="1184"/>
      <point x="282" y="1184" type="curve" smooth="yes"/>
      <point x="330" y="1184"/>
      <point x="362" y="1210"/>
      <point x="362" y="1257" type="curve" smooth="yes"/>
      <point x="362" y="1298"/>
      <point x="335" y="1339"/>
    </contour>
  </outline>
</glyph>
<glyph name="k" format="2">
  <advance width="1156"/>
  <unicode hex="006B"/>
  <anchor x="598" y="0" name="bottom"/>
  <anchor x="598" y="1470" name="top"/>
  <outline>
    <contour>
      <point x="967" y="-34" type="curve"/>
      <point x="984" y="-27"/>
      <point x="1029" y="-5"/>
      <point x="1036" y="0" type="curve"/>
      <point x="896" y="224"/>
      <point x="592" y="597"/>
      <point x="534" y="651" type="curve"/>
      <point x="636" y="732"/>
      <point x="933" y="896"/>
      <point x="1011" y="932" type="curve"/>
      <point x="1006" y="942"/>
      <point x="988" y="968"/>
      <point x="967" y="995" type="curve"/>
      <point x="847" y="935"/>
      <point x="464" y="728"/>
      <point x="290" y="552" type="curve"/>
      <point x="295" y="668"/>
      <point x="309" y="1207"/>
      <point x="309" y="1446" type="curve"/>
      <point x="302" y="1447"/>
      <point x="287" y="1448"/>
      <point x="271" y="1448" type="curve" smooth="yes"/>
      <point x="254" y="1448"/>
      <point x="237" y="1448"/>
      <point x="229" y="1448" type="curve"/>
      <point x="229" y="1233"/>
      <point x="186" y="79"/>
      <point x="177" y="-31" type="curve"/>
      <point x="193" y="-34"/>
      <point x="210" y="-36"/>
      <point x="224" y="-36" type="curve" smooth="yes"/>
      <point x="241" y="-36"/>
      <point x="255" y="-34"/>
      <point x="264" y="-32" type="curve"/>
      <point x="268" y="24"/>
      <point x="284" y="330"/>
      <point x="287" y="446" type="curve"/>
      <point x="306" y="467"/>
      <point x="426" y="564"/>
      <point x="475" y="603" type="curve"/>
      <point x="576" y="501"/>
      <point x="873" y="116"/>
    </contour>
  </outline>
</glyph>
<glyph name="l" format="2">
  <advance width="645"/>
  <unicode hex="006C"/>
  <anchor x="328" y="0" name="bottom"/>
  <anchor x="328" y="735" name="center"/>
  <anchor x="328" y="1470" name="top"/>
  <anchor x="358" y="1025" name="topright"/>
  <outline>
    <contour>
      <point x="593" y="82" type="curve"/>
      <point x="587" y="92"/>
      <point x="548" y="129"/>
      <point x="533" y="139" type="curve"/>
      <point x="510" y="88"/>
      <point x="484" y="51"/>
      <point x="423" y="51" type="curve" smooth="yes"/>
      <point x="291" y="51"/>
      <point x="272" y="247"/>
      <point x="272" y="421" type="curve" smooth="yes"/>
      <point x="272" y="705"/>
      <point x="296" y="1240"/>
      <point x="305" y="1426" type="curve"/>
      <point x="293" y="1429"/>
      <point x="275" y="1431"/>
      <point x="256" y="1431" type="curve" smooth="yes"/>
      <point x="245" y="1431"/>
      <point x="229" y="1430"/>
      <point x="219" y="1429" type="curve"/>
      <point x="210" y="1213"/>
      <point x="190" y="670"/>
      <point x="190" y="451" type="curve" smooth="yes"/>
      <point x="190" y="178"/>
      <point x="207" y="-32"/>
      <point x="421" y="-32" type="curve" smooth="yes"/>
      <point x="516" y="-32"/>
      <point x="570" y="33"/>
    </contour>
  </outline>
</glyph>
<glyph name="m" format="2">
  <advance width="1858"/>
  <unicode hex="006D"/>
  <anchor x="929" y="0" name="bottom"/>
  <anchor x="929" y="1063" name="top"/>
  <outline>
    <contour>
      <point x="227" y="-10" type="curve"/>
      <point x="242" y="-14"/>
      <point x="258" y="-16"/>
      <point x="276" y="-16" type="curve" smooth="yes"/>
      <point x="288" y="-16"/>
      <point x="307" y="-14"/>
      <point x="316" y="-13" type="curve"/>
      <point x="308" y="45"/>
      <point x="279" y="258"/>
      <point x="267" y="578" type="curve"/>
      <point x="267" y="690"/>
      <point x="428" y="945"/>
      <point x="623" y="945" type="curve" smooth="yes"/>
      <point x="870" y="945"/>
      <point x="902" y="563"/>
      <point x="902" y="249" type="curve" smooth="yes"/>
      <point x="902" y="167"/>
      <point x="900" y="81"/>
      <point x="897" y="-7" type="curve"/>
      <point x="911" y="-11"/>
      <point x="933" y="-13"/>
      <point x="948" y="-13" type="curve" smooth="yes"/>
      <point x="961" y="-13"/>
      <point x="979" y="-11"/>
      <point x="993" y="-9" type="curve"/>
      <point x="993" y="56"/>
      <point x="993" y="128"/>
      <point x="993" y="194" type="curve" smooth="yes"/>
      <point x="993" y="561"/>
      <point x="1031" y="963"/>
      <point x="1343" y="963" type="curve" smooth="yes"/>
      <point x="1517" y="963"/>
      <point x="1589" y="797"/>
      <point x="1589" y="480" type="curve" smooth="yes"/>
      <point x="1589" y="341"/>
      <point x="1575" y="172"/>
      <point x="1550" y="-24" type="curve"/>
      <point x="1567" y="-26"/>
      <point x="1585" y="-27"/>
      <point x="1597" y="-27" type="curve" smooth="yes"/>
      <point x="1613" y="-27"/>
      <point x="1627" y="-25"/>
      <point x="1641" y="-21" type="curve"/>
      <point x="1656" y="89"/>
      <point x="1674" y="305"/>
      <point x="1674" y="472" type="curve" smooth="yes"/>
      <point x="1674" y="776"/>
      <point x="1612" y="1047"/>
      <point x="1352" y="1047" type="curve" smooth="yes"/>
      <point x="1078" y="1047"/>
      <point x="968" y="819"/>
      <point x="945" y="581" type="curve"/>
      <point x="945" y="638"/>
      <point x="940" y="699"/>
      <point x="926" y="759" type="curve" smooth="yes"/>
      <point x="893" y="902"/>
      <point x="810" y="1030"/>
      <point x="642" y="1030" type="curve" smooth="yes"/>
      <point x="386" y="1030"/>
      <point x="284" y="838"/>
      <point x="260" y="774" type="curve"/>
      <point x="260" y="802"/>
      <point x="252" y="988"/>
      <point x="250" y="1027" type="curve"/>
      <point x="232" y="1026"/>
      <point x="193" y="1017"/>
      <point x="176" y="1009" type="curve"/>
      <point x="176" y="699"/>
      <point x="197" y="256"/>
    </contour>
  </outline>
</glyph>
<glyph name="n" format="2">
  <advance width="1330"/>
  <unicode hex="006E"/>
  <anchor x="675" y="0" name="bottom"/>
  <anchor x="675" y="1063" name="top"/>
  <outline>
    <contour>
      <point x="251" y="-12" type="curve"/>
      <point x="263" y="103"/>
      <point x="290" y="403"/>
      <point x="302" y="761" type="curve"/>
      <point x="377" y="830"/>
      <point x="546" y="979"/>
      <point x="792" y="979" type="curve" smooth="yes"/>
      <point x="998" y="979"/>
      <point x="1038" y="812"/>
      <point x="1038" y="562" type="curve" smooth="yes"/>
      <point x="1038" y="414"/>
      <point x="1024" y="226"/>
      <point x="993" y="-3" type="curve"/>
      <point x="1010" y="-7"/>
      <point x="1027" y="-8"/>
      <point x="1043" y="-8" type="curve" smooth="yes"/>
      <point x="1064" y="-8"/>
      <point x="1084" y="-6"/>
      <point x="1094" y="-3" type="curve"/>
      <point x="1117" y="216"/>
      <point x="1130" y="401"/>
      <point x="1130" y="549" type="curve" smooth="yes"/>
      <point x="1130" y="877"/>
      <point x="1074" y="1060"/>
      <point x="771" y="1060" type="curve" smooth="yes"/>
      <point x="596" y="1060"/>
      <point x="400" y="954"/>
      <point x="302" y="868" type="curve"/>
      <point x="302" y="924"/>
      <point x="302" y="1019"/>
      <point x="299" y="1043" type="curve"/>
      <point x="290" y="1045"/>
      <point x="275" y="1045"/>
      <point x="264" y="1045" type="curve" smooth="yes"/>
      <point x="240" y="1045"/>
      <point x="221" y="1042"/>
      <point x="207" y="1039" type="curve"/>
      <point x="207" y="439"/>
      <point x="186" y="214"/>
      <point x="159" y="-10" type="curve"/>
      <point x="175" y="-13"/>
      <point x="196" y="-14"/>
      <point x="215" y="-14" type="curve" smooth="yes"/>
      <point x="227" y="-14"/>
      <point x="240" y="-13"/>
    </contour>
  </outline>
</glyph>
<glyph name="o" format="2">
  <advance width="1172"/>
  <unicode hex="006F"/>
  <anchor x="605" y="0" name="bottom"/>
  <anchor x="605" y="532" name="center"/>
  <anchor x="786" y="0" name="ogonek"/>
  <anchor x="605" y="1063" name="top"/>
  <anchor x="899" y="941" name="topright"/>
  <outline>
    <contour>
      <point x="601" y="-39" type="curve" smooth="yes"/>
      <point x="886" y="-39"/>
      <point x="1061" y="160"/>
      <point x="1061" y="468" type="curve" smooth="yes"/>
      <point x="1061" y="833"/>
      <point x="921" y="1077"/>
      <point x="595" y="1077" type="curve" smooth="yes"/>
      <point x="302" y="1077"/>
      <point x="111" y="878"/>
      <point x="111" y="542" type="curve" smooth="yes"/>
      <point x="111" y="169"/>
      <point x="255" y="-39"/>
    </contour>
    <contour>
      <point x="596" y="32" type="curve" smooth="yes"/>
      <point x="337" y="32"/>
      <point x="199" y="230"/>
      <point x="199" y="522" type="curve" smooth="yes"/>
      <point x="199" y="818"/>
      <point x="339" y="1002"/>
      <point x="591" y="1002" type="curve" smooth="yes"/>
      <point x="860" y="1002"/>
      <point x="975" y="778"/>
      <point x="975" y="474" type="curve" smooth="yes"/>
      <point x="975" y="274"/>
      <point x="885" y="32"/>
    </contour>
  </outline>
</glyph>
<glyph name="p" format="2">
  <advance width="1199"/>
  <unicode hex="0070"/>
  <anchor x="600" y="0" name="bottom"/>
  <anchor x="600" y="1063" name="top"/>
  <outline>
    <contour>
      <point x="100" y="-429" type="curve"/>
      <point x="117" y="-429"/>
      <point x="168" y="-427"/>
      <point x="199" y="-420" type="curve"/>
      <point x="221" y="-293"/>
      <point x="256" y="166"/>
      <point x="260" y="232" type="curve"/>
      <point x="309" y="183"/>
      <point x="507" y="104"/>
      <point x="647" y="104" type="curve" smooth="yes"/>
      <point x="940" y="104"/>
      <point x="1075" y="313"/>
      <point x="1075" y="621" type="curve" smooth="yes"/>
      <point x="1075" y="911"/>
      <point x="919" y="1085"/>
      <point x="666" y="1085" type="curve" smooth="yes"/>
      <point x="490" y="1085"/>
      <point x="347" y="993"/>
      <point x="288" y="935" type="curve"/>
      <point x="288" y="983"/>
      <point x="290" y="1063"/>
      <point x="291" y="1088" type="curve"/>
      <point x="263" y="1088"/>
      <point x="222" y="1084"/>
      <point x="199" y="1079" type="curve"/>
      <point x="199" y="707"/>
      <point x="167" y="32"/>
    </contour>
    <contour>
      <point x="641" y="188" type="curve" smooth="yes"/>
      <point x="455" y="188"/>
      <point x="314" y="286"/>
      <point x="268" y="323" type="curve"/>
      <point x="268" y="432"/>
      <point x="281" y="773"/>
      <point x="283" y="823" type="curve"/>
      <point x="317" y="868"/>
      <point x="477" y="1007"/>
      <point x="660" y="1007" type="curve" smooth="yes"/>
      <point x="862" y="1007"/>
      <point x="981" y="871"/>
      <point x="981" y="636" type="curve" smooth="yes"/>
      <point x="981" y="357"/>
      <point x="903" y="188"/>
    </contour>
  </outline>
</glyph>
<glyph name="q" format="2">
  <advance width="1207"/>
  <unicode hex="0071"/>
  <anchor x="604" y="0" name="bottom"/>
  <anchor x="604" y="1063" name="top"/>
  <outline>
    <contour>
      <point x="966" y="-453" type="curve"/>
      <point x="953" y="-344"/>
      <point x="931" y="-127"/>
      <point x="931" y="99" type="curve" smooth="yes"/>
      <point x="931" y="396"/>
      <point x="963" y="773"/>
      <point x="1004" y="1072" type="curve"/>
      <point x="993" y="1077"/>
      <point x="945" y="1089"/>
      <point x="926" y="1091" type="curve"/>
      <point x="921" y="1074"/>
      <point x="911" y="999"/>
      <point x="909" y="976" type="curve"/>
      <point x="858" y="1017"/>
      <point x="723" y="1086"/>
      <point x="559" y="1086" type="curve" smooth="yes"/>
      <point x="245" y="1086"/>
      <point x="111" y="882"/>
      <point x="111" y="555" type="curve" smooth="yes"/>
      <point x="111" y="260"/>
      <point x="239" y="49"/>
      <point x="515" y="49" type="curve" smooth="yes"/>
      <point x="694" y="49"/>
      <point x="812" y="137"/>
      <point x="846" y="188" type="curve"/>
      <point x="846" y="-24"/>
      <point x="855" y="-299"/>
      <point x="872" y="-446" type="curve"/>
      <point x="904" y="-450"/>
      <point x="949" y="-453"/>
    </contour>
    <contour>
      <point x="509" y="126" type="curve" smooth="yes"/>
      <point x="293" y="126"/>
      <point x="196" y="330"/>
      <point x="196" y="559" type="curve" smooth="yes"/>
      <point x="196" y="815"/>
      <point x="286" y="1010"/>
      <point x="556" y="1010" type="curve" smooth="yes"/>
      <point x="729" y="1010"/>
      <point x="873" y="919"/>
      <point x="896" y="901" type="curve"/>
      <point x="882" y="798"/>
      <point x="851" y="383"/>
      <point x="846" y="286" type="curve"/>
      <point x="811" y="233"/>
      <point x="680" y="126"/>
    </contour>
  </outline>
</glyph>
<glyph name="r" format="2">
  <advance width="853"/>
  <unicode hex="0072"/>
  <anchor x="427" y="0" name="bottom"/>
  <anchor x="427" y="1063" name="top"/>
  <outline>
    <contour>
      <point x="200" y="877" type="curve"/>
      <point x="193" y="918"/>
      <point x="171" y="1003"/>
      <point x="154" y="1054" type="curve"/>
      <point x="137" y="1053"/>
      <point x="90" y="1040"/>
      <point x="79" y="1034" type="curve"/>
      <point x="173" y="658"/>
      <point x="203" y="343"/>
      <point x="203" y="2" type="curve"/>
      <point x="228" y="-1"/>
      <point x="280" y="-2"/>
      <point x="300" y="-2" type="curve"/>
      <point x="300" y="134"/>
      <point x="264" y="565"/>
      <point x="219" y="783" type="curve"/>
      <point x="290" y="899"/>
      <point x="453" y="987"/>
      <point x="597" y="987" type="curve" smooth="yes"/>
      <point x="683" y="987"/>
      <point x="734" y="967"/>
      <point x="768" y="952" type="curve"/>
      <point x="786" y="1036" type="line"/>
      <point x="743" y="1057"/>
      <point x="669" y="1067"/>
      <point x="605" y="1067" type="curve" smooth="yes"/>
      <point x="458" y="1067"/>
      <point x="275" y="987"/>
    </contour>
  </outline>
</glyph>
<glyph name="s" format="2">
  <advance width="995"/>
  <unicode hex="0073"/>
  <anchor x="498" y="-60" name="bottom"/>
  <anchor x="518" y="1093" name="top"/>
  <outline>
    <contour>
      <point x="505" y="-84" type="curve" smooth="yes"/>
      <point x="752" y="-84"/>
      <point x="937" y="32"/>
      <point x="937" y="242" type="curve" smooth="yes"/>
      <point x="937" y="427"/>
      <point x="801" y="527"/>
      <point x="524" y="614" type="curve" smooth="yes"/>
      <point x="374" y="661"/>
      <point x="242" y="729"/>
      <point x="242" y="846" type="curve" smooth="yes"/>
      <point x="242" y="982"/>
      <point x="386" y="1029"/>
      <point x="533" y="1029" type="curve" smooth="yes"/>
      <point x="659" y="1029"/>
      <point x="762" y="986"/>
      <point x="835" y="949" type="curve"/>
      <point x="844" y="964"/>
      <point x="859" y="998"/>
      <point x="868" y="1027" type="curve"/>
      <point x="817" y="1061"/>
      <point x="695" y="1114"/>
      <point x="524" y="1114" type="curve" smooth="yes"/>
      <point x="324" y="1114"/>
      <point x="156" y="1022"/>
      <point x="156" y="841" type="curve" smooth="yes"/>
      <point x="156" y="659"/>
      <point x="312" y="599"/>
      <point x="523" y="529" type="curve" smooth="yes"/>
      <point x="716" y="465"/>
      <point x="851" y="399"/>
      <point x="851" y="232" type="curve" smooth="yes"/>
      <point x="851" y="87"/>
      <point x="701" y="-5"/>
      <point x="519" y="-5" type="curve" smooth="yes"/>
      <point x="347" y="-5"/>
      <point x="184" y="99"/>
      <point x="108" y="210" type="curve"/>
      <point x="87" y="195"/>
      <point x="55" y="162"/>
      <point x="35" y="135" type="curve"/>
      <point x="156" y="-12"/>
      <point x="369" y="-84"/>
    </contour>
  </outline>
</glyph>
<glyph name="t" format="2">
  <advance width="964"/>
  <unicode hex="0074"/>
  <anchor x="574" y="0" name="bottom"/>
  <anchor x="452" y="532" name="center"/>
  <anchor x="392" y="1431" name="top"/>
  <anchor x="539" y="1175" name="topright"/>
  <outline>
    <contour>
      <point x="810" y="241" type="curve"/>
      <point x="802" y="243"/>
      <point x="738" y="261"/>
      <point x="728" y="265" type="curve"/>
      <point x="718" y="198"/>
      <point x="687" y="41"/>
      <point x="582" y="41" type="curve" smooth="yes"/>
      <point x="429" y="41"/>
      <point x="418" y="191"/>
      <point x="418" y="310" type="curve" smooth="yes"/>
      <point x="418" y="428"/>
      <point x="434" y="866"/>
      <point x="439" y="969" type="curve"/>
      <point x="496" y="973"/>
      <point x="573" y="976"/>
      <point x="633" y="976" type="curve" smooth="yes"/>
      <point x="716" y="976"/>
      <point x="814" y="971"/>
      <point x="828" y="969" type="curve"/>
      <point x="828" y="979"/>
      <point x="826" y="1021"/>
      <point x="824" y="1031" type="curve"/>
      <point x="808" y="1033"/>
      <point x="685" y="1037"/>
      <point x="582" y="1037" type="curve" smooth="yes"/>
      <point x="545" y="1037"/>
      <point x="476" y="1034"/>
      <point x="439" y="1032" type="curve"/>
      <point x="441" y="1066"/>
      <point x="442" y="1137"/>
      <point x="442" y="1177" type="curve" smooth="yes"/>
      <point x="442" y="1307"/>
      <point x="434" y="1406"/>
      <point x="430" y="1431" type="curve"/>
      <point x="348" y="1436" type="line"/>
      <point x="352" y="1392"/>
      <point x="357" y="1332"/>
      <point x="357" y="1268" type="curve" smooth="yes"/>
      <point x="357" y="1187"/>
      <point x="354" y="1097"/>
      <point x="351" y="1024" type="curve"/>
      <point x="254" y="1017"/>
      <point x="130" y="998"/>
      <point x="58" y="986" type="curve"/>
      <point x="58" y="968"/>
      <point x="61" y="928"/>
      <point x="64" y="914" type="curve"/>
      <point x="84" y="920"/>
      <point x="192" y="942"/>
      <point x="349" y="957" type="curve"/>
      <point x="345" y="869"/>
      <point x="332" y="445"/>
      <point x="332" y="298" type="curve" smooth="yes"/>
      <point x="332" y="128"/>
      <point x="375" y="-33"/>
      <point x="582" y="-33" type="curve" smooth="yes"/>
      <point x="747" y="-33"/>
      <point x="787" y="123"/>
    </contour>
  </outline>
</glyph>
<glyph name="v" format="2">
  <advance width="1007"/>
  <unicode hex="0076"/>
  <anchor x="504" y="0" name="bottom"/>
  <anchor x="504" y="1063" name="top"/>
  <outline>
    <contour>
      <point x="855" y="1091" type="curve"/>
      <point x="800" y="888"/>
      <point x="595" y="316"/>
      <point x="487" y="80" type="curve"/>
      <point x="388" y="301"/>
      <point x="177" y="867"/>
      <point x="123" y="1092" type="curve"/>
      <point x="99" y="1087"/>
      <point x="74" y="1080"/>
      <point x="39" y="1068" type="curve"/>
      <point x="125" y="785"/>
      <point x="283" y="305"/>
      <point x="446" y="-31" type="curve"/>
      <point x="456" y="-33"/>
      <point x="470" y="-34"/>
      <point x="485" y="-34" type="curve" smooth="yes"/>
      <point x="504" y="-34"/>
      <point x="523" y="-33"/>
      <point x="532" y="-31" type="curve"/>
      <point x="643" y="217"/>
      <point x="896" y="881"/>
      <point x="945" y="1062" type="curve"/>
      <point x="938" y="1067"/>
      <point x="896" y="1082"/>
    </contour>
  </outline>
</glyph>
<glyph name="w" format="2">
  <advance width="1520"/>
  <unicode hex="0077"/>
  <anchor x="760" y="0" name="bottom"/>
  <anchor x="760" y="1063" name="top"/>
  <outline>
    <contour>
      <point x="417" y="7" type="curve" smooth="yes"/>
      <point x="574" y="7"/>
      <point x="686" y="165"/>
      <point x="710" y="385" type="curve"/>
      <point x="730" y="165"/>
      <point x="789" y="14"/>
      <point x="973" y="14" type="curve" smooth="yes"/>
      <point x="1248" y="14"/>
      <point x="1319" y="509"/>
      <point x="1319" y="853" type="curve" smooth="yes"/>
      <point x="1319" y="915"/>
      <point x="1317" y="978"/>
      <point x="1313" y="1039" type="curve"/>
      <point x="1297" y="1041"/>
      <point x="1281" y="1042"/>
      <point x="1266" y="1042" type="curve" smooth="yes"/>
      <point x="1255" y="1042"/>
      <point x="1244" y="1042"/>
      <point x="1232" y="1041" type="curve"/>
      <point x="1234" y="1003"/>
      <point x="1237" y="906"/>
      <point x="1237" y="866" type="curve" smooth="yes"/>
      <point x="1237" y="479"/>
      <point x="1170" y="91"/>
      <point x="973" y="91" type="curve" smooth="yes"/>
      <point x="778" y="91"/>
      <point x="762" y="420"/>
      <point x="762" y="797" type="curve" smooth="yes"/>
      <point x="762" y="1036" type="line"/>
      <point x="745" y="1039"/>
      <point x="697" y="1040"/>
      <point x="674" y="1040" type="curve"/>
      <point x="676" y="993"/>
      <point x="678" y="904"/>
      <point x="678" y="856" type="curve" smooth="yes"/>
      <point x="678" y="432"/>
      <point x="608" y="92"/>
      <point x="424" y="92" type="curve" smooth="yes"/>
      <point x="270" y="92"/>
      <point x="222" y="313"/>
      <point x="222" y="583" type="curve" smooth="yes"/>
      <point x="222" y="736"/>
      <point x="233" y="904"/>
      <point x="253" y="1056" type="curve"/>
      <point x="233" y="1058"/>
      <point x="183" y="1058"/>
      <point x="164" y="1058" type="curve"/>
      <point x="149" y="907"/>
      <point x="136" y="746"/>
      <point x="136" y="597" type="curve" smooth="yes"/>
      <point x="136" y="275"/>
      <point x="195" y="7"/>
    </contour>
  </outline>
</glyph>
<glyph name="x" format="2">
  <advance width="1142"/>
  <unicode hex="0078"/>
  <anchor x="591" y="0" name="bottom"/>
  <anchor x="591" y="1063" name="top"/>
  <outline>
    <contour>
      <point x="117" y="-24" type="curve"/>
      <point x="191" y="48"/>
      <point x="467" y="402"/>
      <point x="583" y="563" type="curve"/>
      <point x="679" y="455"/>
      <point x="882" y="89"/>
      <point x="936" y="-15" type="curve"/>
      <point x="959" y="-5"/>
      <point x="1003" y="24"/>
      <point x="1010" y="34" type="curve"/>
      <point x="939" y="161"/>
      <point x="744" y="505"/>
      <point x="638" y="624" type="curve"/>
      <point x="764" y="770"/>
      <point x="911" y="998"/>
      <point x="974" y="1120" type="curve"/>
      <point x="959" y="1130"/>
      <point x="914" y="1147"/>
      <point x="895" y="1152" type="curve"/>
      <point x="827" y="1021"/>
      <point x="713" y="835"/>
      <point x="591" y="680" type="curve"/>
      <point x="514" y="789"/>
      <point x="213" y="1056"/>
      <point x="112" y="1142" type="curve"/>
      <point x="87" y="1125"/>
      <point x="65" y="1105"/>
      <point x="49" y="1085" type="curve"/>
      <point x="170" y="986"/>
      <point x="410" y="784"/>
      <point x="541" y="619" type="curve"/>
      <point x="420" y="466"/>
      <point x="100" y="85"/>
      <point x="51" y="34" type="curve"/>
      <point x="56" y="25"/>
      <point x="90" y="-4"/>
    </contour>
  </outline>
</glyph>
<glyph name="y" format="2">
  <advance width="1079"/>
  <unicode hex="0079"/>
  <anchor x="540" y="0" name="bottom"/>
  <anchor x="540" y="1063" name="top"/>
  <outline>
    <contour>
      <point x="384" y="-529" type="curve" smooth="yes"/>
      <point x="689" y="-529"/>
      <point x="837" y="-277"/>
      <point x="855" y="56" type="curve" smooth="yes"/>
      <point x="869" y="313"/>
      <point x="883" y="615"/>
      <point x="883" y="815" type="curve" smooth="yes"/>
      <point x="883" y="871"/>
      <point x="882" y="919"/>
      <point x="880" y="956" type="curve"/>
      <point x="872" y="959"/>
      <point x="856" y="960"/>
      <point x="840" y="960" type="curve" smooth="yes"/>
      <point x="825" y="960"/>
      <point x="810" y="959"/>
      <point x="800" y="957" type="curve"/>
      <point x="800" y="937"/>
      <point x="791" y="627"/>
      <point x="774" y="474" type="curve" smooth="yes"/>
      <point x="746" y="228"/>
      <point x="623" y="123"/>
      <point x="461" y="123" type="curve" smooth="yes"/>
      <point x="229" y="123"/>
      <point x="204" y="432"/>
      <point x="204" y="690" type="curve" smooth="yes"/>
      <point x="204" y="832"/>
      <point x="215" y="974"/>
      <point x="217" y="991" type="curve"/>
      <point x="211" y="993"/>
      <point x="199" y="993"/>
      <point x="185" y="993" type="curve" smooth="yes"/>
      <point x="165" y="993"/>
      <point x="141" y="992"/>
      <point x="130" y="990" type="curve"/>
      <point x="124" y="885"/>
      <point x="120" y="785"/>
      <point x="120" y="690" type="curve" smooth="yes"/>
      <point x="120" y="313"/>
      <point x="184" y="43"/>
      <point x="448" y="43" type="curve" smooth="yes"/>
      <point x="670" y="43"/>
      <point x="754" y="159"/>
      <point x="776" y="234" type="curve"/>
      <point x="776" y="-128"/>
      <point x="674" y="-451"/>
      <point x="389" y="-451" type="curve" smooth="yes"/>
      <point x="250" y="-451"/>
      <point x="107" y="-371"/>
      <point x="68" y="-338" type="curve"/>
      <point x="51" y="-358"/>
      <point x="24" y="-399"/>
      <point x="19" y="-412" type="curve"/>
      <point x="79" y="-457"/>
      <point x="215" y="-529"/>
    </contour>
  </outline>
</glyph>
<glyph name="z" format="2">
  <advance width="1074"/>
  <unicode hex="007A"/>
  <anchor x="537" y="0" name="bottom"/>
  <anchor x="537" y="532" name="center"/>
  <anchor x="537" y="1063" name="top"/>
  <outline>
    <contour>
      <point x="968" y="7" type="curve"/>
      <point x="974" y="22"/>
      <point x="978" y="82"/>
      <point x="978" y="104" type="curve"/>
      <point x="898" y="94"/>
      <point x="709" y="89"/>
      <point x="533" y="89" type="curve" smooth="yes"/>
      <point x="366" y="89"/>
      <point x="216" y="93"/>
      <point x="175" y="102" type="curve"/>
      <point x="269" y="228"/>
      <point x="844" y="846"/>
      <point x="966" y="956" type="curve"/>
      <point x="966" y="969"/>
      <point x="959" y="1029"/>
      <point x="957" y="1036" type="curve"/>
      <point x="825" y="1042"/>
      <point x="704" y="1044"/>
      <point x="596" y="1044" type="curve" smooth="yes"/>
      <point x="320" y="1044"/>
      <point x="136" y="1029"/>
      <point x="94" y="1024" type="curve"/>
      <point x="91" y="944" type="line"/>
      <point x="114" y="950"/>
      <point x="397" y="958"/>
      <point x="614" y="958" type="curve" smooth="yes"/>
      <point x="732" y="958"/>
      <point x="819" y="955"/>
      <point x="844" y="949" type="curve"/>
      <point x="803" y="907"/>
      <point x="183" y="253"/>
      <point x="72" y="115" type="curve"/>
      <point x="68" y="12" type="line"/>
      <point x="200" y="1"/>
      <point x="376" y="-3"/>
      <point x="551" y="-3" type="curve" smooth="yes"/>
      <point x="699" y="-3"/>
      <point x="851" y="2"/>
    </contour>
  </outline>
</glyph>
<glyph name="braceleft" format="2">
  <advance width="665"/>
  <unicode hex="007B"/>
  <outline>
    <contour>
      <point x="511" y="-356" type="curve"/>
      <point x="525" y="-337"/>
      <point x="526" y="-315"/>
      <point x="526" y="-300" type="curve"/>
      <point x="398" y="-275"/>
      <point x="326" y="-107"/>
      <point x="326" y="41" type="curve" smooth="yes"/>
      <point x="326" y="93"/>
      <point x="334" y="130"/>
      <point x="345" y="169" type="curve" smooth="yes"/>
      <point x="357" y="211"/>
      <point x="367" y="253"/>
      <point x="367" y="316" type="curve" smooth="yes"/>
      <point x="367" y="524"/>
      <point x="206" y="600"/>
      <point x="99" y="616" type="curve"/>
      <point x="96" y="605" type="line"/>
      <point x="209" y="619"/>
      <point x="308" y="739"/>
      <point x="308" y="899" type="curve" smooth="yes"/>
      <point x="308" y="956"/>
      <point x="298" y="994"/>
      <point x="287" y="1032" type="curve" smooth="yes"/>
      <point x="277" y="1067"/>
      <point x="269" y="1102"/>
      <point x="269" y="1150" type="curve" smooth="yes"/>
      <point x="269" y="1301"/>
      <point x="362" y="1464"/>
      <point x="552" y="1478" type="curve"/>
      <point x="549" y="1492"/>
      <point x="541" y="1520"/>
      <point x="532" y="1533" type="curve"/>
      <point x="306" y="1518"/>
      <point x="199" y="1336"/>
      <point x="199" y="1145" type="curve" smooth="yes"/>
      <point x="199" y="1089"/>
      <point x="206" y="1051"/>
      <point x="216" y="1014" type="curve" smooth="yes"/>
      <point x="226" y="976"/>
      <point x="234" y="939"/>
      <point x="234" y="884" type="curve" smooth="yes"/>
      <point x="234" y="756"/>
      <point x="170" y="668"/>
      <point x="46" y="645" type="curve"/>
      <point x="44" y="638"/>
      <point x="43" y="628"/>
      <point x="43" y="616" type="curve" smooth="yes"/>
      <point x="43" y="603"/>
      <point x="44" y="589"/>
      <point x="48" y="577" type="curve"/>
      <point x="200" y="540"/>
      <point x="297" y="460"/>
      <point x="297" y="313" type="curve" smooth="yes"/>
      <point x="297" y="259"/>
      <point x="290" y="224"/>
      <point x="279" y="191" type="curve" smooth="yes"/>
      <point x="267" y="154"/>
      <point x="258" y="117"/>
      <point x="258" y="55" type="curve" smooth="yes"/>
      <point x="258" y="-132"/>
      <point x="359" y="-340"/>
    </contour>
  </outline>
</glyph>
<glyph name="bar" format="2">
  <advance width="487"/>
  <unicode hex="007C"/>
  <outline>
    <contour>
      <point x="249" y="-560" type="curve"/>
      <point x="255" y="-495"/>
      <point x="257" y="-305"/>
      <point x="257" y="-59" type="curve" smooth="yes"/>
      <point x="257" y="428"/>
      <point x="248" y="1136"/>
      <point x="235" y="1530" type="curve"/>
      <point x="212" y="1530"/>
      <point x="190" y="1529"/>
      <point x="177" y="1526" type="curve"/>
      <point x="166" y="1213"/>
      <point x="165" y="793"/>
      <point x="165" y="486" type="curve" smooth="yes"/>
      <point x="165" y="33"/>
      <point x="173" y="-325"/>
      <point x="185" y="-555" type="curve"/>
      <point x="197" y="-557"/>
      <point x="237" y="-560"/>
    </contour>
  </outline>
</glyph>
<glyph name="braceright" format="2">
  <advance width="614"/>
  <unicode hex="007D"/>
  <outline>
    <contour>
      <point x="63" y="-352" type="curve"/>
      <point x="281" y="-333"/>
      <point x="370" y="-170"/>
      <point x="370" y="11" type="curve" smooth="yes"/>
      <point x="370" y="73"/>
      <point x="362" y="114"/>
      <point x="352" y="154" type="curve" smooth="yes"/>
      <point x="342" y="193"/>
      <point x="335" y="230"/>
      <point x="335" y="286" type="curve" smooth="yes"/>
      <point x="335" y="421"/>
      <point x="399" y="550"/>
      <point x="520" y="567" type="curve"/>
      <point x="523" y="574"/>
      <point x="527" y="585"/>
      <point x="527" y="601" type="curve" smooth="yes"/>
      <point x="527" y="619"/>
      <point x="524" y="637"/>
      <point x="521" y="642" type="curve"/>
      <point x="387" y="665"/>
      <point x="278" y="718"/>
      <point x="278" y="838" type="curve" smooth="yes"/>
      <point x="278" y="873"/>
      <point x="285" y="925"/>
      <point x="299" y="973" type="curve" smooth="yes"/>
      <point x="316" y="1033"/>
      <point x="329" y="1091"/>
      <point x="329" y="1160" type="curve" smooth="yes"/>
      <point x="329" y="1351"/>
      <point x="255" y="1535"/>
      <point x="74" y="1547" type="curve"/>
      <point x="70" y="1528"/>
      <point x="68" y="1508"/>
      <point x="67" y="1491" type="curve"/>
      <point x="211" y="1470"/>
      <point x="264" y="1309"/>
      <point x="264" y="1164" type="curve" smooth="yes"/>
      <point x="264" y="1091"/>
      <point x="251" y="1040"/>
      <point x="237" y="995" type="curve" smooth="yes"/>
      <point x="223" y="951"/>
      <point x="212" y="914"/>
      <point x="212" y="846" type="curve" smooth="yes"/>
      <point x="212" y="650"/>
      <point x="380" y="610"/>
      <point x="471" y="596" type="curve"/>
      <point x="474" y="602" type="line"/>
      <point x="361" y="597"/>
      <point x="265" y="460"/>
      <point x="265" y="285" type="curve" smooth="yes"/>
      <point x="265" y="225"/>
      <point x="274" y="183"/>
      <point x="284" y="142" type="curve" smooth="yes"/>
      <point x="294" y="102"/>
      <point x="303" y="63"/>
      <point x="303" y="7" type="curve" smooth="yes"/>
      <point x="303" y="-154"/>
      <point x="200" y="-284"/>
      <point x="43" y="-303" type="curve"/>
      <point x="43" y="-315"/>
      <point x="50" y="-336"/>
    </contour>
  </outline>
</glyph>
<glyph name="asciitilde" format="2">
  <advance width="1050"/>
  <unicode hex="007E"/>
  <outline>
    <contour>
      <point x="132" y="724" type="curve"/>
      <point x="199" y="684" type="line"/>
      <point x="230" y="763"/>
      <point x="290" y="834"/>
      <point x="372" y="834" type="curve" smooth="yes"/>
      <point x="420" y="834"/>
      <point x="459" y="791"/>
      <point x="501" y="744" type="curve" smooth="yes"/>
      <point x="553" y="685"/>
      <point x="612" y="619"/>
      <point x="703" y="619" type="curve" smooth="yes"/>
      <point x="819" y="619"/>
      <point x="886" y="735"/>
      <point x="903" y="788" type="curve"/>
      <point x="826" y="817" type="line"/>
      <point x="805" y="747"/>
      <point x="764" y="692"/>
      <point x="702" y="692" type="curve" smooth="yes"/>
      <point x="635" y="692"/>
      <point x="590" y="741"/>
      <point x="546" y="792" type="curve" smooth="yes"/>
      <point x="499" y="847"/>
      <point x="448" y="901"/>
      <point x="368" y="901" type="curve" smooth="yes"/>
      <point x="250" y="901"/>
      <point x="159" y="799"/>
    </contour>
  </outline>
</glyph>
<glyph name="exclamdown" format="2">
  <advance width="708"/>
  <unicode hex="00A1"/>
  <outline>
    <contour>
      <point x="275" y="725" type="curve"/>
      <point x="275" y="438"/>
      <point x="261" y="-189"/>
      <point x="233" y="-401" type="curve"/>
      <point x="313" y="-406" type="line"/>
      <point x="335" y="-252"/>
      <point x="344" y="400"/>
      <point x="344" y="721" type="curve"/>
      <point x="337" y="723"/>
      <point x="287" y="725"/>
    </contour>
    <contour>
      <point x="303" y="1093" type="curve" smooth="yes"/>
      <point x="240" y="1093"/>
      <point x="190" y="1050"/>
      <point x="190" y="989" type="curve" smooth="yes"/>
      <point x="190" y="925"/>
      <point x="241" y="880"/>
      <point x="305" y="880" type="curve" smooth="yes"/>
      <point x="361" y="880"/>
      <point x="423" y="916"/>
      <point x="423" y="983" type="curve" smooth="yes"/>
      <point x="423" y="1046"/>
      <point x="382" y="1093"/>
    </contour>
  </outline>
</glyph>
<glyph name="cent" format="2">
  <advance width="1026"/>
  <unicode hex="00A2"/>
  <anchor x="513" y="135" name="bottom"/>
  <anchor x="513" y="1198" name="top"/>
  <outline>
    <contour>
      <point x="603" y="1327" type="curve"/>
      <point x="576" y="1004"/>
      <point x="444" y="368"/>
      <point x="352" y="10" type="curve"/>
      <point x="366" y="4"/>
      <point x="415" y="-12"/>
      <point x="441" y="-19" type="curve"/>
      <point x="505" y="210"/>
      <point x="655" y="1057"/>
      <point x="670" y="1315" type="curve"/>
      <point x="656" y="1323"/>
      <point x="634" y="1327"/>
    </contour>
    <component base="c" yOffset="135"/>
  </outline>
</glyph>
<glyph name="sterling" format="2">
  <advance width="1140"/>
  <unicode hex="00A3"/>
  <outline>
    <contour>
      <point x="171" y="620" type="curve" smooth="yes"/>
      <point x="352" y="620"/>
      <point x="654" y="639"/>
      <point x="742" y="665" type="curve"/>
      <point x="742" y="697"/>
      <point x="735" y="731"/>
      <point x="728" y="745" type="curve"/>
      <point x="635" y="725"/>
      <point x="328" y="703"/>
      <point x="141" y="703" type="curve" smooth="yes"/>
      <point x="103" y="703"/>
      <point x="72" y="704"/>
      <point x="48" y="706" type="curve"/>
      <point x="48" y="626" type="line"/>
      <point x="71" y="622"/>
      <point x="114" y="620"/>
    </contour>
    <component base="sterlira"/>
  </outline>
</glyph>
<glyph name="currency" format="2">
  <advance width="974"/>
  <unicode hex="00A4"/>
  <outline>
    <contour>
      <point x="113" y="106" type="curve"/>
      <point x="191" y="185"/>
      <point x="287" y="295"/>
      <point x="330" y="345" type="curve"/>
      <point x="272" y="391" type="line"/>
      <point x="199" y="321"/>
      <point x="116" y="241"/>
      <point x="44" y="171" type="curve"/>
      <point x="70" y="145"/>
      <point x="87" y="129"/>
    </contour>
    <contour>
      <point x="807" y="135" type="curve"/>
      <point x="832" y="155"/>
      <point x="844" y="168"/>
      <point x="853" y="193" type="curve"/>
      <point x="800" y="241"/>
      <point x="737" y="297"/>
      <point x="677" y="349" type="curve"/>
      <point x="624" y="309" type="line"/>
      <point x="667" y="274"/>
      <point x="735" y="207"/>
    </contour>
    <contour>
      <point x="268" y="704" type="curve"/>
      <point x="323" y="761" type="line"/>
      <point x="263" y="838"/>
      <point x="195" y="913"/>
      <point x="132" y="968" type="curve"/>
      <point x="92" y="942"/>
      <point x="72" y="926"/>
      <point x="56" y="913" type="curve"/>
      <point x="122" y="843"/>
      <point x="191" y="771"/>
    </contour>
    <contour>
      <point x="672" y="713" type="line"/>
      <point x="732" y="758"/>
      <point x="815" y="822"/>
      <point x="887" y="892" type="curve"/>
      <point x="862" y="918"/>
      <point x="850" y="930"/>
      <point x="824" y="956" type="curve"/>
      <point x="752" y="884"/>
      <point x="681" y="814"/>
      <point x="626" y="764" type="curve"/>
    </contour>
    <component base="degree" xOffset="106" yOffset="-656"/>
  </outline>
</glyph>
<glyph name="yen" format="2">
  <advance width="1065"/>
  <unicode hex="00A5"/>
  <anchor x="593" y="0" name="bottom"/>
  <anchor x="593" y="1291" name="top"/>
  <anchor x="80" y="1291" name="topleft"/>
  <outline>
    <contour>
      <point x="186" y="476" type="curve"/>
      <point x="307" y="479"/>
      <point x="843" y="488"/>
      <point x="937" y="488" type="curve"/>
      <point x="937" y="503"/>
      <point x="936" y="522"/>
      <point x="928" y="545" type="curve"/>
      <point x="855" y="555"/>
      <point x="743" y="559"/>
      <point x="619" y="559" type="curve" smooth="yes"/>
      <point x="435" y="559"/>
      <point x="345" y="554"/>
      <point x="201" y="544" type="curve"/>
      <point x="196" y="527"/>
      <point x="187" y="493"/>
    </contour>
    <contour>
      <point x="939" y="285" type="curve"/>
      <point x="942" y="297"/>
      <point x="944" y="315"/>
      <point x="944" y="345" type="curve"/>
      <point x="878" y="347"/>
      <point x="794" y="348"/>
      <point x="702" y="348" type="curve" smooth="yes"/>
      <point x="489" y="348"/>
      <point x="355" y="346"/>
      <point x="186" y="336" type="curve"/>
      <point x="179" y="318"/>
      <point x="174" y="293"/>
      <point x="174" y="278" type="curve"/>
      <point x="268" y="280"/>
      <point x="841" y="285"/>
    </contour>
    <component base="Y" xOffset="20"/>
  </outline>
</glyph>
<glyph name="brokenbar" format="2">
  <advance width="432"/>
  <unicode hex="00A6"/>
  <outline>
    <contour>
      <point x="148" y="265" type="curve"/>
      <point x="148" y="90"/>
      <point x="158" y="-406"/>
      <point x="161" y="-497" type="curve"/>
      <point x="176" y="-497"/>
      <point x="213" y="-494"/>
      <point x="226" y="-492" type="curve"/>
      <point x="223" y="-399"/>
      <point x="218" y="150"/>
      <point x="218" y="265" type="curve"/>
      <point x="198" y="265"/>
      <point x="171" y="265"/>
    </contour>
    <contour>
      <point x="152" y="658" type="curve"/>
      <point x="168" y="658"/>
      <point x="205" y="661"/>
      <point x="226" y="664" type="curve"/>
      <point x="226" y="810"/>
      <point x="234" y="1326"/>
      <point x="244" y="1495" type="curve"/>
      <point x="230" y="1499"/>
      <point x="212" y="1502"/>
      <point x="191" y="1502" type="curve"/>
      <point x="175" y="1341"/>
      <point x="152" y="949"/>
    </contour>
  </outline>
</glyph>
<glyph name="section" format="2">
  <advance width="1000"/>
  <unicode hex="00A7"/>
  <outline>
    <contour>
      <point x="479" y="781" type="curve"/>
      <point x="415" y="847" type="line"/>
      <point x="256" y="823"/>
      <point x="126" y="733"/>
      <point x="126" y="580" type="curve" smooth="yes"/>
      <point x="126" y="402"/>
      <point x="292" y="348"/>
      <point x="503" y="280" type="curve" smooth="yes"/>
      <point x="696" y="218"/>
      <point x="811" y="158"/>
      <point x="811" y="11" type="curve" smooth="yes"/>
      <point x="811" y="-154"/>
      <point x="671" y="-266"/>
      <point x="499" y="-266" type="curve" smooth="yes"/>
      <point x="327" y="-266"/>
      <point x="144" y="-172"/>
      <point x="68" y="-61" type="curve"/>
      <point x="46" y="-76"/>
      <point x="15" y="-102"/>
      <point x="-5" y="-136" type="curve"/>
      <point x="135" y="-283"/>
      <point x="349" y="-345"/>
      <point x="485" y="-345" type="curve" smooth="yes"/>
      <point x="722" y="-345"/>
      <point x="897" y="-209"/>
      <point x="897" y="21" type="curve" smooth="yes"/>
      <point x="897" y="186"/>
      <point x="781" y="276"/>
      <point x="504" y="363" type="curve" smooth="yes"/>
      <point x="354" y="410"/>
      <point x="212" y="468"/>
      <point x="212" y="585" type="curve" smooth="yes"/>
      <point x="212" y="711"/>
      <point x="345" y="774"/>
    </contour>
    <contour>
      <point x="665" y="269" type="curve"/>
      <point x="729" y="209" type="line"/>
      <point x="844" y="269"/>
      <point x="927" y="377"/>
      <point x="927" y="521" type="curve" smooth="yes"/>
      <point x="927" y="686"/>
      <point x="781" y="766"/>
      <point x="504" y="853" type="curve" smooth="yes"/>
      <point x="354" y="900"/>
      <point x="232" y="968"/>
      <point x="232" y="1085" type="curve" smooth="yes"/>
      <point x="232" y="1221"/>
      <point x="366" y="1268"/>
      <point x="513" y="1268" type="curve" smooth="yes"/>
      <point x="639" y="1268"/>
      <point x="742" y="1225"/>
      <point x="815" y="1188" type="curve"/>
      <point x="824" y="1203"/>
      <point x="839" y="1237"/>
      <point x="848" y="1266" type="curve"/>
      <point x="797" y="1300"/>
      <point x="675" y="1353"/>
      <point x="504" y="1353" type="curve" smooth="yes"/>
      <point x="304" y="1353"/>
      <point x="146" y="1261"/>
      <point x="146" y="1080" type="curve" smooth="yes"/>
      <point x="146" y="898"/>
      <point x="292" y="840"/>
      <point x="503" y="770" type="curve" smooth="yes"/>
      <point x="696" y="706"/>
      <point x="841" y="655"/>
      <point x="841" y="511" type="curve" smooth="yes"/>
      <point x="841" y="401"/>
      <point x="764" y="314"/>
    </contour>
  </outline>
</glyph>
<glyph name="copyright" format="2">
  <advance width="1745"/>
  <unicode hex="00A9"/>
  <outline>
    <contour>
      <point x="832" y="-68" type="curve" smooth="yes"/>
      <point x="1291" y="-68"/>
      <point x="1561" y="209"/>
      <point x="1561" y="672" type="curve" smooth="yes"/>
      <point x="1561" y="1094"/>
      <point x="1293" y="1350"/>
      <point x="850" y="1350" type="curve" smooth="yes"/>
      <point x="361" y="1350"/>
      <point x="75" y="1090"/>
      <point x="75" y="588" type="curve" smooth="yes"/>
      <point x="75" y="180"/>
      <point x="331" y="-68"/>
    </contour>
    <contour>
      <point x="824" y="0" type="curve" smooth="yes"/>
      <point x="462" y="0"/>
      <point x="151" y="186"/>
      <point x="151" y="599" type="curve" smooth="yes"/>
      <point x="151" y="1012"/>
      <point x="406" y="1287"/>
      <point x="822" y="1287" type="curve" smooth="yes"/>
      <point x="1231" y="1287"/>
      <point x="1479" y="1072"/>
      <point x="1479" y="622" type="curve" smooth="yes"/>
      <point x="1479" y="237"/>
      <point x="1190" y="0"/>
    </contour>
    <contour>
      <point x="805" y="280" type="curve" smooth="yes"/>
      <point x="958" y="280"/>
      <point x="1118" y="354"/>
      <point x="1185" y="491" type="curve"/>
      <point x="1176" y="504"/>
      <point x="1142" y="530"/>
      <point x="1121" y="542" type="curve"/>
      <point x="1074" y="472"/>
      <point x="988" y="361"/>
      <point x="829" y="361" type="curve" smooth="yes"/>
      <point x="733" y="361"/>
      <point x="552" y="381"/>
      <point x="552" y="605" type="curve" smooth="yes"/>
      <point x="552" y="800"/>
      <point x="703" y="906"/>
      <point x="848" y="906" type="curve" smooth="yes"/>
      <point x="971" y="906"/>
      <point x="1056" y="867"/>
      <point x="1079" y="832" type="curve"/>
      <point x="1094" y="853"/>
      <point x="1111" y="877"/>
      <point x="1121" y="897" type="curve"/>
      <point x="1070" y="956"/>
      <point x="988" y="985"/>
      <point x="875" y="985" type="curve" smooth="yes"/>
      <point x="637" y="985"/>
      <point x="467" y="823"/>
      <point x="467" y="603" type="curve" smooth="yes"/>
      <point x="467" y="404"/>
      <point x="595" y="280"/>
    </contour>
  </outline>
</glyph>
<glyph name="ordfeminine" format="2">
  <advance width="750"/>
  <unicode hex="00AA"/>
  <outline>
    <contour>
      <point x="603" y="706" type="curve"/>
      <point x="614" y="704"/>
      <point x="640" y="702"/>
      <point x="659" y="702" type="curve" smooth="yes"/>
      <point x="667" y="702"/>
      <point x="684" y="703"/>
      <point x="687" y="704" type="curve"/>
      <point x="702" y="822"/>
      <point x="709" y="921"/>
      <point x="709" y="1001" type="curve" smooth="yes"/>
      <point x="709" y="1253"/>
      <point x="620" y="1416"/>
      <point x="366" y="1416" type="curve" smooth="yes"/>
      <point x="215" y="1416"/>
      <point x="99" y="1351"/>
      <point x="43" y="1270" type="curve"/>
      <point x="110" y="1225" type="line"/>
      <point x="154" y="1294"/>
      <point x="238" y="1348"/>
      <point x="362" y="1348" type="curve" smooth="yes"/>
      <point x="475" y="1348"/>
      <point x="561" y="1299"/>
      <point x="602" y="1207" type="curve" smooth="yes"/>
      <point x="614" y="1180"/>
      <point x="623" y="1149"/>
      <point x="627" y="1116" type="curve"/>
      <point x="605" y="1124"/>
      <point x="441" y="1144"/>
      <point x="376" y="1144" type="curve" smooth="yes"/>
      <point x="198" y="1144"/>
      <point x="42" y="1072"/>
      <point x="42" y="927" type="curve" smooth="yes"/>
      <point x="42" y="774"/>
      <point x="176" y="716"/>
      <point x="348" y="716" type="curve" smooth="yes"/>
      <point x="446" y="716"/>
      <point x="580" y="768"/>
      <point x="620" y="811" type="curve"/>
      <point x="616" y="788"/>
      <point x="605" y="723"/>
    </contour>
    <contour>
      <point x="357" y="780" type="curve" smooth="yes"/>
      <point x="220" y="780"/>
      <point x="121" y="811"/>
      <point x="121" y="930" type="curve" smooth="yes"/>
      <point x="121" y="1025"/>
      <point x="244" y="1082"/>
      <point x="371" y="1082" type="curve" smooth="yes"/>
      <point x="466" y="1082"/>
      <point x="601" y="1062"/>
      <point x="629" y="1055" type="curve"/>
      <point x="631" y="1034"/>
      <point x="632" y="1015"/>
      <point x="632" y="994" type="curve" smooth="yes"/>
      <point x="632" y="966"/>
      <point x="630" y="937"/>
      <point x="627" y="894" type="curve"/>
      <point x="566" y="828"/>
      <point x="465" y="780"/>
    </contour>
  </outline>
</glyph>
<glyph name="guillemetleft" format="2">
  <advance width="1214"/>
  <unicode hex="00AB"/>
  <outline>
    <contour>
      <point x="1026" y="1135" type="curve"/>
      <point x="831" y="971"/>
      <point x="655" y="776"/>
      <point x="484" y="574" type="curve"/>
      <point x="1044" y="181" type="line"/>
      <point x="1057" y="191"/>
      <point x="1076" y="214"/>
      <point x="1077" y="239" type="curve"/>
      <point x="1023" y="284"/>
      <point x="761" y="467"/>
      <point x="579" y="593" type="curve"/>
      <point x="1087" y="1082" type="line"/>
      <point x="1074" y="1094"/>
      <point x="1048" y="1117"/>
    </contour>
    <contour>
      <point x="535" y="1120" type="curve"/>
      <point x="357" y="928"/>
      <point x="191" y="726"/>
      <point x="29" y="518" type="curve"/>
      <point x="222" y="328"/>
      <point x="431" y="157"/>
      <point x="656" y="0" type="curve"/>
      <point x="670" y="19"/>
      <point x="690" y="52"/>
      <point x="692" y="74" type="curve"/>
      <point x="662" y="91"/>
      <point x="344" y="341"/>
      <point x="113" y="525" type="curve"/>
      <point x="621" y="1070" type="line"/>
      <point x="592" y="1088"/>
      <point x="549" y="1113"/>
    </contour>
  </outline>
</glyph>
<glyph name="logicalnot" format="2">
  <advance width="1000"/>
  <unicode hex="00AC"/>
  <outline>
    <contour>
      <point x="848" y="732" type="curve"/>
      <point x="768" y="732"/>
      <point x="222" y="719"/>
      <point x="92" y="715" type="curve"/>
      <point x="93" y="697"/>
      <point x="96" y="671"/>
      <point x="99" y="654" type="curve"/>
      <point x="200" y="658"/>
      <point x="603" y="668"/>
      <point x="790" y="668" type="curve"/>
      <point x="790" y="614"/>
      <point x="781" y="385"/>
      <point x="773" y="320" type="curve"/>
      <point x="792" y="320"/>
      <point x="814" y="321"/>
      <point x="830" y="326" type="curve"/>
      <point x="844" y="531"/>
      <point x="848" y="713"/>
    </contour>
  </outline>
</glyph>
<glyph name="softhyphen" format="2">
  <advance width="658"/>
  <unicode hex="00AD"/>
  <outline>
    <contour>
      <point x="598" y="730" type="curve"/>
      <point x="562" y="732"/>
      <point x="486" y="732"/>
      <point x="394" y="732" type="curve" smooth="yes"/>
      <point x="245" y="732"/>
      <point x="136" y="720"/>
      <point x="60" y="711" type="curve"/>
      <point x="60" y="689"/>
      <point x="61" y="667"/>
      <point x="64" y="650" type="curve"/>
      <point x="179" y="661"/>
      <point x="409" y="668"/>
      <point x="597" y="668" type="curve"/>
      <point x="598" y="683"/>
      <point x="598" y="711"/>
    </contour>
  </outline>
</glyph>
<glyph name="registered" format="2">
  <advance width="1400"/>
  <unicode hex="00AE"/>
  <outline>
    <contour>
      <point x="735" y="269" type="curve" smooth="yes"/>
      <point x="1005" y="269"/>
      <point x="1236" y="382"/>
      <point x="1236" y="791" type="curve" smooth="yes"/>
      <point x="1236" y="1143"/>
      <point x="1031" y="1321"/>
      <point x="733" y="1321" type="curve" smooth="yes"/>
      <point x="411" y="1321"/>
      <point x="188" y="1111"/>
      <point x="188" y="762" type="curve" smooth="yes"/>
      <point x="188" y="531"/>
      <point x="320" y="269"/>
    </contour>
    <contour>
      <point x="726" y="331" type="curve" smooth="yes"/>
      <point x="469" y="331"/>
      <point x="256" y="486"/>
      <point x="256" y="769" type="curve" smooth="yes"/>
      <point x="256" y="1058"/>
      <point x="445" y="1260"/>
      <point x="729" y="1260" type="curve" smooth="yes"/>
      <point x="1070" y="1260"/>
      <point x="1169" y="1002"/>
      <point x="1169" y="785" type="curve" smooth="yes"/>
      <point x="1169" y="454"/>
      <point x="975" y="331"/>
    </contour>
    <contour>
      <point x="661" y="503" type="curve"/>
      <point x="661" y="559"/>
      <point x="661" y="760"/>
      <point x="661" y="801" type="curve"/>
      <point x="667" y="801"/>
      <point x="682" y="803"/>
      <point x="695" y="806" type="curve"/>
      <point x="755" y="695"/>
      <point x="811" y="604"/>
      <point x="879" y="503" type="curve"/>
      <point x="910" y="503"/>
      <point x="940" y="511"/>
      <point x="957" y="517" type="curve"/>
      <point x="926" y="560"/>
      <point x="808" y="739"/>
      <point x="759" y="814" type="curve"/>
      <point x="849" y="835"/>
      <point x="904" y="885"/>
      <point x="904" y="980" type="curve" smooth="yes"/>
      <point x="904" y="1074"/>
      <point x="808" y="1090"/>
      <point x="718" y="1090" type="curve" smooth="yes"/>
      <point x="655" y="1090"/>
      <point x="594" y="1077"/>
      <point x="579" y="1070" type="curve"/>
      <point x="585" y="957"/>
      <point x="589" y="644"/>
      <point x="589" y="515" type="curve"/>
      <point x="613" y="505"/>
      <point x="634" y="503"/>
    </contour>
    <contour>
      <point x="659" y="854" type="curve"/>
      <point x="659" y="872"/>
      <point x="651" y="1002"/>
      <point x="649" y="1019" type="curve"/>
      <point x="668" y="1022"/>
      <point x="701" y="1025"/>
      <point x="734" y="1025" type="curve" smooth="yes"/>
      <point x="788" y="1025"/>
      <point x="843" y="1015"/>
      <point x="843" y="971" type="curve" smooth="yes"/>
      <point x="843" y="888"/>
      <point x="776" y="854"/>
    </contour>
  </outline>
</glyph>
<glyph name="degree" format="2">
  <advance width="814"/>
  <unicode hex="00B0"/>
  <outline>
    <contour>
      <point x="367" y="915" type="curve" smooth="yes"/>
      <point x="544" y="915"/>
      <point x="693" y="1052"/>
      <point x="693" y="1223" type="curve" smooth="yes"/>
      <point x="693" y="1376"/>
      <point x="558" y="1485"/>
      <point x="388" y="1485" type="curve" smooth="yes"/>
      <point x="217" y="1485"/>
      <point x="64" y="1365"/>
      <point x="64" y="1203" type="curve" smooth="yes"/>
      <point x="64" y="1041"/>
      <point x="193" y="915"/>
    </contour>
    <contour>
      <point x="368" y="983" type="curve" smooth="yes"/>
      <point x="229" y="983"/>
      <point x="147" y="1072"/>
      <point x="147" y="1214" type="curve" smooth="yes"/>
      <point x="147" y="1328"/>
      <point x="266" y="1417"/>
      <point x="370" y="1417" type="curve" smooth="yes"/>
      <point x="537" y="1417"/>
      <point x="609" y="1319"/>
      <point x="609" y="1198" type="curve" smooth="yes"/>
      <point x="609" y="1082"/>
      <point x="496" y="983"/>
    </contour>
  </outline>
</glyph>
<glyph name="twosuperior" format="2">
  <advance width="744"/>
  <unicode hex="00B2"/>
  <outline>
    <contour>
      <point x="621" y="587" type="curve"/>
      <point x="526" y="584"/>
      <point x="235" y="567"/>
      <point x="169" y="560" type="curve"/>
      <point x="193" y="584"/>
      <point x="344" y="743"/>
      <point x="426" y="840" type="curve" smooth="yes"/>
      <point x="518" y="949"/>
      <point x="591" y="1057"/>
      <point x="591" y="1152" type="curve" smooth="yes"/>
      <point x="591" y="1247"/>
      <point x="502" y="1311"/>
      <point x="381" y="1311" type="curve" smooth="yes"/>
      <point x="226" y="1311"/>
      <point x="104" y="1230"/>
      <point x="44" y="1104" type="curve"/>
      <point x="59" y="1091"/>
      <point x="90" y="1070"/>
      <point x="104" y="1064" type="curve"/>
      <point x="153" y="1170"/>
      <point x="236" y="1247"/>
      <point x="374" y="1247" type="curve" smooth="yes"/>
      <point x="451" y="1247"/>
      <point x="522" y="1216"/>
      <point x="522" y="1140" type="curve" smooth="yes"/>
      <point x="522" y="1044"/>
      <point x="393" y="899"/>
      <point x="303" y="799" type="curve" smooth="yes"/>
      <point x="224" y="712"/>
      <point x="125" y="606"/>
      <point x="65" y="550" type="curve"/>
      <point x="67" y="526"/>
      <point x="72" y="502"/>
      <point x="75" y="490" type="curve"/>
      <point x="618" y="516" type="line"/>
      <point x="621" y="529"/>
      <point x="621" y="562"/>
    </contour>
  </outline>
</glyph>
<glyph name="threesuperior" format="2">
  <advance width="782"/>
  <unicode hex="00B3"/>
  <outline>
    <contour>
      <point x="348" y="498" type="curve" smooth="yes"/>
      <point x="528" y="498"/>
      <point x="657" y="588"/>
      <point x="657" y="733" type="curve" smooth="yes"/>
      <point x="657" y="871"/>
      <point x="528" y="914"/>
      <point x="397" y="920" type="curve"/>
      <point x="485" y="934"/>
      <point x="606" y="996"/>
      <point x="606" y="1100" type="curve" smooth="yes"/>
      <point x="606" y="1218"/>
      <point x="503" y="1282"/>
      <point x="360" y="1282" type="curve" smooth="yes"/>
      <point x="206" y="1282"/>
      <point x="87" y="1207"/>
      <point x="26" y="1157" type="curve"/>
      <point x="39" y="1146"/>
      <point x="71" y="1121"/>
      <point x="84" y="1111" type="curve"/>
      <point x="141" y="1170"/>
      <point x="238" y="1217"/>
      <point x="357" y="1217" type="curve" smooth="yes"/>
      <point x="473" y="1217"/>
      <point x="530" y="1163"/>
      <point x="530" y="1094" type="curve" smooth="yes"/>
      <point x="530" y="990"/>
      <point x="359" y="939"/>
      <point x="191" y="939" type="curve"/>
      <point x="191" y="924"/>
      <point x="194" y="891"/>
      <point x="198" y="878" type="curve"/>
      <point x="439" y="878"/>
      <point x="586" y="865"/>
      <point x="586" y="724" type="curve" smooth="yes"/>
      <point x="586" y="622"/>
      <point x="484" y="561"/>
      <point x="343" y="561" type="curve" smooth="yes"/>
      <point x="225" y="561"/>
      <point x="132" y="609"/>
      <point x="109" y="683" type="curve"/>
      <point x="85" y="673"/>
      <point x="58" y="656"/>
      <point x="39" y="642" type="curve"/>
      <point x="68" y="558"/>
      <point x="203" y="498"/>
    </contour>
  </outline>
</glyph>
<glyph name="micro" format="2">
  <advance width="1178"/>
  <unicode hex="00B5"/>
  <anchor x="589" y="0" name="bottom"/>
  <anchor x="746" y="0" name="ogonek"/>
  <anchor x="589" y="1063" name="top"/>
  <anchor x="912" y="940" name="topright"/>
  <outline>
    <contour>
      <point x="157" y="-369" type="curve"/>
      <point x="184" y="-369"/>
      <point x="217" y="-367"/>
      <point x="248" y="-360" type="curve"/>
      <point x="244" y="-319"/>
      <point x="233" y="-120"/>
      <point x="228" y="21" type="curve" smooth="yes"/>
      <point x="220" y="253"/>
      <point x="215" y="400"/>
      <point x="215" y="654" type="curve"/>
      <point x="132" y="626" type="line"/>
      <point x="132" y="210"/>
      <point x="151" y="-241"/>
    </contour>
    <component base="u"/>
  </outline>
</glyph>
<glyph name="paragraph" format="2">
  <advance width="1210"/>
  <unicode hex="00B6"/>
  <outline>
    <contour>
      <point x="933" y="-341" type="curve"/>
      <point x="954" y="-34"/>
      <point x="1000" y="675"/>
      <point x="1000" y="1043" type="curve" smooth="yes"/>
      <point x="1000" y="1124"/>
      <point x="998" y="1190"/>
      <point x="993" y="1235" type="curve"/>
      <point x="852" y="1284"/>
      <point x="647" y="1314"/>
      <point x="493" y="1314" type="curve" smooth="yes"/>
      <point x="270" y="1314"/>
      <point x="172" y="1240"/>
      <point x="172" y="1032" type="curve" smooth="yes"/>
      <point x="172" y="759"/>
      <point x="350" y="659"/>
      <point x="654" y="659" type="curve" smooth="yes"/>
      <point x="679" y="659"/>
      <point x="707" y="661"/>
      <point x="732" y="664" type="curve"/>
      <point x="726" y="590"/>
      <point x="691" y="-186"/>
      <point x="691" y="-321" type="curve"/>
      <point x="712" y="-321"/>
      <point x="742" y="-320"/>
      <point x="762" y="-318" type="curve"/>
      <point x="764" y="-292"/>
      <point x="817" y="688"/>
      <point x="817" y="1209" type="curve"/>
      <point x="850" y="1205"/>
      <point x="882" y="1199"/>
      <point x="913" y="1192" type="curve"/>
      <point x="914" y="1161"/>
      <point x="914" y="1127"/>
      <point x="914" y="1087" type="curve" smooth="yes"/>
      <point x="914" y="714"/>
      <point x="883" y="-25"/>
      <point x="868" y="-333" type="curve"/>
      <point x="895" y="-338"/>
      <point x="913" y="-341"/>
    </contour>
  </outline>
</glyph>
<glyph name="periodcentered" format="2">
  <advance width="450"/>
  <unicode hex="00B7"/>
  <outline>
    <contour>
      <point x="195" y="756" type="curve" smooth="yes"/>
      <point x="243" y="756"/>
      <point x="285" y="793"/>
      <point x="285" y="843" type="curve" smooth="yes"/>
      <point x="285" y="888"/>
      <point x="255" y="928"/>
      <point x="204" y="928" type="curve" smooth="yes"/>
      <point x="152" y="928"/>
      <point x="108" y="894"/>
      <point x="108" y="843" type="curve" smooth="yes"/>
      <point x="108" y="793"/>
      <point x="132" y="756"/>
    </contour>
  </outline>
</glyph>
<glyph name="onesuperior" format="2">
  <advance width="529"/>
  <unicode hex="00B9"/>
  <outline>
    <contour>
      <point x="281" y="571" type="curve"/>
      <point x="282" y="614"/>
      <point x="283" y="670"/>
      <point x="283" y="736" type="curve" smooth="yes"/>
      <point x="283" y="995"/>
      <point x="281" y="1248"/>
      <point x="280" y="1261" type="curve"/>
      <point x="265" y="1264"/>
      <point x="238" y="1265"/>
      <point x="223" y="1265" type="curve"/>
      <point x="168" y="1220"/>
      <point x="51" y="1110"/>
      <point x="35" y="1094" type="curve"/>
      <point x="45" y="1073"/>
      <point x="60" y="1048"/>
      <point x="69" y="1035" type="curve"/>
      <point x="96" y="1063"/>
      <point x="204" y="1169"/>
      <point x="218" y="1182" type="curve"/>
      <point x="218" y="1119"/>
      <point x="216" y="615"/>
      <point x="214" y="570" type="curve"/>
      <point x="193" y="569"/>
      <point x="91" y="561"/>
      <point x="63" y="557" type="curve"/>
      <point x="63" y="537"/>
      <point x="64" y="509"/>
      <point x="65" y="493" type="curve"/>
      <point x="116" y="499"/>
      <point x="351" y="505"/>
      <point x="407" y="505" type="curve"/>
      <point x="410" y="521"/>
      <point x="412" y="551"/>
      <point x="413" y="567" type="curve"/>
      <point x="384" y="569"/>
      <point x="316" y="571"/>
    </contour>
  </outline>
</glyph>
<glyph name="ordmasculine" format="2">
  <advance width="750"/>
  <unicode hex="00BA"/>
  <outline>
    <contour>
      <point x="388" y="733" type="curve" smooth="yes"/>
      <point x="584" y="733"/>
      <point x="704" y="858"/>
      <point x="704" y="1051" type="curve" smooth="yes"/>
      <point x="704" y="1278"/>
      <point x="607" y="1433"/>
      <point x="385" y="1433" type="curve" smooth="yes"/>
      <point x="184" y="1433"/>
      <point x="51" y="1309"/>
      <point x="51" y="1096" type="curve" smooth="yes"/>
      <point x="51" y="863"/>
      <point x="152" y="733"/>
    </contour>
    <contour>
      <point x="384" y="798" type="curve" smooth="yes"/>
      <point x="218" y="798"/>
      <point x="129" y="916"/>
      <point x="129" y="1087" type="curve" smooth="yes"/>
      <point x="129" y="1259"/>
      <point x="219" y="1370"/>
      <point x="381" y="1370" type="curve" smooth="yes"/>
      <point x="553" y="1370"/>
      <point x="628" y="1239"/>
      <point x="628" y="1059" type="curve" smooth="yes"/>
      <point x="628" y="939"/>
      <point x="568" y="798"/>
    </contour>
  </outline>
</glyph>
<glyph name="guillemetright" format="2">
  <advance width="1313"/>
  <unicode hex="00BB"/>
  <outline>
    <contour>
      <point x="234" y="1089" type="curve"/>
      <point x="320" y="1014"/>
      <point x="529" y="817"/>
      <point x="662" y="689" type="curve"/>
      <point x="432" y="510"/>
      <point x="120" y="267"/>
      <point x="104" y="253" type="curve"/>
      <point x="114" y="236"/>
      <point x="123" y="222"/>
      <point x="142" y="200" type="curve"/>
      <point x="342" y="352"/>
      <point x="544" y="513"/>
      <point x="738" y="689" type="curve"/>
      <point x="579" y="855"/>
      <point x="349" y="1087"/>
      <point x="296" y="1121" type="curve"/>
      <point x="277" y="1113"/>
      <point x="243" y="1095"/>
    </contour>
    <contour>
      <point x="643" y="1159" type="curve"/>
      <point x="729" y="1097"/>
      <point x="971" y="856"/>
      <point x="1130" y="692" type="curve"/>
      <point x="895" y="482"/>
      <point x="577" y="198"/>
      <point x="561" y="185" type="curve"/>
      <point x="574" y="164"/>
      <point x="590" y="145"/>
      <point x="612" y="132" type="curve"/>
      <point x="814" y="315"/>
      <point x="1023" y="507"/>
      <point x="1213" y="697" type="curve"/>
      <point x="1182" y="733"/>
      <point x="898" y="1022"/>
      <point x="697" y="1190" type="curve"/>
      <point x="681" y="1183"/>
      <point x="654" y="1168"/>
    </contour>
  </outline>
</glyph>
<glyph name="questiondown" format="2">
  <advance width="1036"/>
  <unicode hex="00BF"/>
  <outline>
    <contour>
      <point x="453" y="736" type="curve"/>
      <point x="453" y="489"/>
      <point x="363" y="378"/>
      <point x="275" y="304" type="curve" smooth="yes"/>
      <point x="200" y="241"/>
      <point x="106" y="126"/>
      <point x="106" y="-38" type="curve" smooth="yes"/>
      <point x="106" y="-260"/>
      <point x="233" y="-379"/>
      <point x="477" y="-379" type="curve" smooth="yes"/>
      <point x="695" y="-379"/>
      <point x="892" y="-276"/>
      <point x="926" y="-51" type="curve"/>
      <point x="856" y="-27" type="line"/>
      <point x="840" y="-129"/>
      <point x="772" y="-310"/>
      <point x="475" y="-310" type="curve" smooth="yes"/>
      <point x="275" y="-310"/>
      <point x="181" y="-209"/>
      <point x="181" y="-35" type="curve" smooth="yes"/>
      <point x="181" y="70"/>
      <point x="228" y="169"/>
      <point x="333" y="255" type="curve" smooth="yes"/>
      <point x="482" y="377"/>
      <point x="534" y="564"/>
      <point x="534" y="730" type="curve"/>
      <point x="513" y="735"/>
      <point x="474" y="736"/>
    </contour>
    <contour>
      <point x="478" y="1103" type="curve" smooth="yes"/>
      <point x="427" y="1103"/>
      <point x="380" y="1050"/>
      <point x="380" y="990" type="curve" smooth="yes"/>
      <point x="380" y="933"/>
      <point x="419" y="896"/>
      <point x="482" y="896" type="curve" smooth="yes"/>
      <point x="528" y="896"/>
      <point x="577" y="938"/>
      <point x="577" y="996" type="curve" smooth="yes"/>
      <point x="577" y="1059"/>
      <point x="535" y="1103"/>
    </contour>
  </outline>
</glyph>
<glyph name="AE" format="2">
  <advance width="1614"/>
  <unicode hex="00C6"/>
  <anchor x="775" y="0" name="bottom"/>
  <anchor x="870" y="1291" name="top"/>
  <outline>
    <contour>
      <point x="1478" y="-23" type="curve"/>
      <point x="1483" y="-5"/>
      <point x="1489" y="25"/>
      <point x="1491" y="53" type="curve"/>
      <point x="1415" y="59"/>
      <point x="1229" y="66"/>
      <point x="1070" y="66" type="curve" smooth="yes"/>
      <point x="1017" y="66"/>
      <point x="930" y="65"/>
      <point x="890" y="63" type="curve"/>
      <point x="890" y="267"/>
      <point x="890" y="472"/>
      <point x="890" y="676" type="curve"/>
      <point x="976" y="679"/>
      <point x="1395" y="680"/>
      <point x="1445" y="680" type="curve"/>
      <point x="1437" y="758" type="line"/>
      <point x="1345" y="758"/>
      <point x="965" y="746"/>
      <point x="892" y="743" type="curve"/>
      <point x="892" y="828"/>
      <point x="895" y="1095"/>
      <point x="900" y="1183" type="curve"/>
      <point x="1491" y="1230" type="line"/>
      <point x="1494" y="1257"/>
      <point x="1495" y="1270"/>
      <point x="1495" y="1304" type="curve"/>
      <point x="1469" y="1304"/>
      <point x="524" y="1218"/>
      <point x="505" y="1214" type="curve"/>
      <point x="390" y="927"/>
      <point x="120" y="152"/>
      <point x="70" y="-9" type="curve"/>
      <point x="86" y="-13"/>
      <point x="116" y="-16"/>
      <point x="152" y="-16" type="curve"/>
      <point x="180" y="83"/>
      <point x="248" y="295"/>
      <point x="315" y="488" type="curve"/>
      <point x="353" y="495"/>
      <point x="698" y="522"/>
      <point x="804" y="522" type="curve"/>
      <point x="804" y="352"/>
      <point x="808" y="167"/>
      <point x="814" y="-12" type="curve"/>
      <point x="1017" y="-12"/>
      <point x="1341" y="-18"/>
    </contour>
    <contour>
      <point x="336" y="549" type="curve"/>
      <point x="447" y="875"/>
      <point x="533" y="1092"/>
      <point x="556" y="1146" type="curve"/>
      <point x="598" y="1151"/>
      <point x="748" y="1164"/>
      <point x="806" y="1164" type="curve"/>
      <point x="806" y="867"/>
      <point x="806" y="738"/>
      <point x="800" y="593" type="curve"/>
      <point x="654" y="587"/>
      <point x="436" y="569"/>
    </contour>
  </outline>
</glyph>
<glyph name="Ccedilla" format="2">
  <advance width="1137"/>
  <unicode hex="00C7"/>
  <anchor x="569" y="0" name="bottom"/>
  <anchor x="539" y="1301" name="top"/>
  <outline>
    <contour>
      <point x="575" y="-462" type="curve" smooth="yes"/>
      <point x="785" y="-462"/>
      <point x="898" y="-396"/>
      <point x="898" y="-255" type="curve" smooth="yes"/>
      <point x="898" y="-144"/>
      <point x="823" y="-87"/>
      <point x="718" y="-87" type="curve" smooth="yes"/>
      <point x="670" y="-87"/>
      <point x="607" y="-106"/>
      <point x="590" y="-119" type="curve"/>
      <point x="611" y="39" type="line"/>
      <point x="539" y="43" type="line"/>
      <point x="503" y="-212" type="line"/>
      <point x="544" y="-194"/>
      <point x="642" y="-159"/>
      <point x="700" y="-159" type="curve" smooth="yes"/>
      <point x="782" y="-159"/>
      <point x="809" y="-198"/>
      <point x="809" y="-267" type="curve" smooth="yes"/>
      <point x="809" y="-359"/>
      <point x="718" y="-392"/>
      <point x="570" y="-392" type="curve" smooth="yes"/>
      <point x="519" y="-392"/>
      <point x="443" y="-374"/>
      <point x="404" y="-364" type="curve"/>
      <point x="386" y="-437" type="line"/>
      <point x="406" y="-444"/>
      <point x="471" y="-462"/>
    </contour>
    <component base="C"/>
  </outline>
</glyph>
<glyph name="Eth" format="2">
  <advance width="1198"/>
  <unicode hex="00D0"/>
  <anchor x="599" y="0" name="bottom"/>
  <anchor x="360" y="646" name="center"/>
  <anchor x="502" y="1291" name="top"/>
  <outline>
    <contour>
      <point x="579" y="632" type="curve"/>
      <point x="579" y="663"/>
      <point x="577" y="698"/>
      <point x="576" y="707" type="curve"/>
      <point x="457" y="707"/>
      <point x="122" y="670"/>
      <point x="66" y="655" type="curve"/>
      <point x="62" y="644"/>
      <point x="60" y="610"/>
      <point x="60" y="592" type="curve"/>
      <point x="203" y="611"/>
      <point x="437" y="632"/>
    </contour>
    <component base="D"/>
  </outline>
</glyph>
<glyph name="multiply" format="2">
  <advance width="1041"/>
  <unicode hex="00D7"/>
  <outline>
    <contour>
      <point x="854" y="991" type="curve"/>
      <point x="844" y="1006"/>
      <point x="831" y="1020"/>
      <point x="819" y="1032" type="curve"/>
      <point x="714" y="904"/>
      <point x="277" y="463"/>
      <point x="163" y="359" type="curve"/>
      <point x="180" y="344"/>
      <point x="197" y="330"/>
      <point x="214" y="318" type="curve"/>
      <point x="388" y="474"/>
      <point x="774" y="871"/>
    </contour>
    <contour>
      <point x="205" y="1022" type="curve"/>
      <point x="197" y="1014"/>
      <point x="184" y="1001"/>
      <point x="173" y="985" type="curve"/>
      <point x="296" y="901"/>
      <point x="660" y="516"/>
      <point x="821" y="342" type="curve"/>
      <point x="841" y="359"/>
      <point x="855" y="373"/>
      <point x="865" y="388" type="curve"/>
      <point x="657" y="619"/>
      <point x="320" y="956"/>
    </contour>
  </outline>
</glyph>
<glyph name="Oslash" format="2">
  <advance width="1354"/>
  <unicode hex="00D8"/>
  <anchor x="677" y="0" name="bottom"/>
  <anchor x="653" y="1320" name="top"/>
  <anchor x="620" y="646" name="center"/>
  <anchor x="869" y="0" name="ogonek"/>
  <anchor x="20" y="1291" name="topleft"/>
  <anchor x="993" y="1173" name="topright"/>
  <outline>
    <contour>
      <point x="1004" y="1327" type="curve"/>
      <point x="795" y="788"/>
      <point x="410" y="268"/>
      <point x="153" y="-51" type="curve"/>
      <point x="168" y="-59"/>
      <point x="208" y="-75"/>
      <point x="228" y="-81" type="curve"/>
      <point x="430" y="148"/>
      <point x="821" y="672"/>
      <point x="1089" y="1291" type="curve"/>
      <point x="1072" y="1306"/>
      <point x="1035" y="1320"/>
    </contour>
    <component base="O"/>
  </outline>
</glyph>
<glyph name="Thorn" format="2">
  <advance width="1316"/>
  <unicode hex="00DE"/>
  <outline>
    <contour>
      <point x="248" y="1282" type="curve"/>
      <point x="225" y="1282"/>
      <point x="195" y="1280"/>
      <point x="174" y="1277" type="curve"/>
      <point x="195" y="990"/>
      <point x="205" y="154"/>
      <point x="205" y="-22" type="curve"/>
      <point x="221" y="-22"/>
      <point x="282" y="-22"/>
      <point x="311" y="-21" type="curve"/>
      <point x="311" y="232"/>
      <point x="273" y="990"/>
    </contour>
    <contour>
      <point x="254" y="906" type="line"/>
      <point x="350" y="931"/>
      <point x="468" y="945"/>
      <point x="585" y="945" type="curve" smooth="yes"/>
      <point x="862" y="945"/>
      <point x="1026" y="867"/>
      <point x="1026" y="674" type="curve" smooth="yes"/>
      <point x="1026" y="454"/>
      <point x="896" y="361"/>
      <point x="562" y="361" type="curve" smooth="yes"/>
      <point x="462" y="361"/>
      <point x="354" y="370"/>
      <point x="241" y="385" type="curve"/>
      <point x="227" y="299" type="line"/>
      <point x="332" y="286"/>
      <point x="444" y="278"/>
      <point x="553" y="278" type="curve" smooth="yes"/>
      <point x="906" y="278"/>
      <point x="1118" y="366"/>
      <point x="1118" y="670" type="curve" smooth="yes"/>
      <point x="1118" y="946"/>
      <point x="896" y="1029"/>
      <point x="638" y="1029" type="curve" smooth="yes"/>
      <point x="509" y="1029"/>
      <point x="376" y="1015"/>
      <point x="254" y="995" type="curve"/>
    </contour>
  </outline>
</glyph>
<glyph name="germandbls" format="2">
  <advance width="1144"/>
  <unicode hex="00DF"/>
  <anchor x="572" y="0" name="bottom"/>
  <anchor x="474" y="1359" name="top"/>
  <outline>
    <contour>
      <point x="255" y="-5" type="curve"/>
      <point x="335" y="5" type="line"/>
      <point x="320" y="103"/>
      <point x="214" y="823"/>
      <point x="214" y="993" type="curve" smooth="yes"/>
      <point x="214" y="1196"/>
      <point x="276" y="1323"/>
      <point x="473" y="1323" type="curve" smooth="yes"/>
      <point x="619" y="1323"/>
      <point x="768" y="1233"/>
      <point x="768" y="1098" type="curve" smooth="yes"/>
      <point x="768" y="1016"/>
      <point x="720" y="961"/>
      <point x="674" y="910" type="curve" smooth="yes"/>
      <point x="631" y="863"/>
      <point x="589" y="817"/>
      <point x="589" y="748" type="curve" smooth="yes"/>
      <point x="589" y="708"/>
      <point x="620" y="650"/>
      <point x="663" y="616" type="curve" smooth="yes"/>
      <point x="766" y="535"/>
      <point x="899" y="424"/>
      <point x="899" y="281" type="curve" smooth="yes"/>
      <point x="899" y="176"/>
      <point x="841" y="86"/>
      <point x="703" y="86" type="curve" smooth="yes"/>
      <point x="607" y="86"/>
      <point x="537" y="122"/>
      <point x="480" y="171" type="curve"/>
      <point x="421" y="97" type="line"/>
      <point x="485" y="46"/>
      <point x="595" y="2"/>
      <point x="696" y="2" type="curve" smooth="yes"/>
      <point x="868" y="2"/>
      <point x="988" y="106"/>
      <point x="988" y="291" type="curve" smooth="yes"/>
      <point x="988" y="446"/>
      <point x="837" y="576"/>
      <point x="779" y="621" type="curve" smooth="yes"/>
      <point x="691" y="689"/>
      <point x="674" y="726"/>
      <point x="674" y="749" type="curve" smooth="yes"/>
      <point x="674" y="778"/>
      <point x="702" y="813"/>
      <point x="735" y="854" type="curve" smooth="yes"/>
      <point x="783" y="915"/>
      <point x="843" y="992"/>
      <point x="843" y="1080" type="curve" smooth="yes"/>
      <point x="843" y="1271"/>
      <point x="671" y="1395"/>
      <point x="474" y="1395" type="curve" smooth="yes"/>
      <point x="227" y="1395"/>
      <point x="135" y="1250"/>
      <point x="135" y="988" type="curve" smooth="yes"/>
      <point x="135" y="756"/>
      <point x="218" y="229"/>
    </contour>
  </outline>
</glyph>
<glyph name="ae" format="2">
  <advance width="1762"/>
  <unicode hex="00E6"/>
  <anchor x="857" y="0" name="bottom"/>
  <anchor x="857" y="1063" name="top"/>
  <anchor x="1481" y="53" name="ogonek"/>
  <outline>
    <contour>
      <point x="470" y="22" type="curve" smooth="yes"/>
      <point x="659" y="22"/>
      <point x="922" y="172"/>
      <point x="922" y="368" type="curve" smooth="yes"/>
      <point x="922" y="694"/>
      <point x="885" y="850"/>
      <point x="799" y="950" type="curve" smooth="yes"/>
      <point x="713" y="1050"/>
      <point x="622" y="1105"/>
      <point x="482" y="1105" type="curve" smooth="yes"/>
      <point x="250" y="1105"/>
      <point x="109" y="978"/>
      <point x="49" y="865" type="curve"/>
      <point x="120" y="806" type="line"/>
      <point x="169" y="928"/>
      <point x="289" y="1027"/>
      <point x="470" y="1027" type="curve" smooth="yes"/>
      <point x="604" y="1027"/>
      <point x="693" y="972"/>
      <point x="749" y="877" type="curve" smooth="yes"/>
      <point x="785" y="815"/>
      <point x="807" y="738"/>
      <point x="819" y="648" type="curve"/>
      <point x="788" y="658"/>
      <point x="561" y="692"/>
      <point x="463" y="692" type="curve" smooth="yes"/>
      <point x="245" y="692"/>
      <point x="66" y="571"/>
      <point x="66" y="342" type="curve" smooth="yes"/>
      <point x="66" y="95"/>
      <point x="267" y="22"/>
    </contour>
    <contour>
      <point x="462" y="94" type="curve" smooth="yes"/>
      <point x="312" y="94"/>
      <point x="155" y="162"/>
      <point x="155" y="347" type="curve" smooth="yes"/>
      <point x="155" y="508"/>
      <point x="291" y="617"/>
      <point x="448" y="617" type="curve" smooth="yes"/>
      <point x="590" y="617"/>
      <point x="782" y="587"/>
      <point x="828" y="575" type="curve"/>
      <point x="835" y="518"/>
      <point x="844" y="434"/>
      <point x="844" y="383" type="curve" smooth="yes"/>
      <point x="844" y="262"/>
      <point x="690" y="94"/>
    </contour>
    <component base="e" xOffset="744"/>
  </outline>
</glyph>
<glyph name="ccedilla" format="2">
  <advance width="1026"/>
  <unicode hex="00E7"/>
  <anchor x="513" y="0" name="bottom"/>
  <anchor x="513" y="1063" name="top"/>
  <outline>
    <contour>
      <point x="518" y="-462" type="curve" smooth="yes"/>
      <point x="728" y="-462"/>
      <point x="841" y="-396"/>
      <point x="841" y="-255" type="curve" smooth="yes"/>
      <point x="841" y="-144"/>
      <point x="766" y="-87"/>
      <point x="661" y="-87" type="curve" smooth="yes"/>
      <point x="613" y="-87"/>
      <point x="550" y="-106"/>
      <point x="533" y="-119" type="curve"/>
      <point x="554" y="39" type="line"/>
      <point x="482" y="43" type="line"/>
      <point x="446" y="-212" type="line"/>
      <point x="487" y="-194"/>
      <point x="585" y="-159"/>
      <point x="643" y="-159" type="curve" smooth="yes"/>
      <point x="725" y="-159"/>
      <point x="752" y="-198"/>
      <point x="752" y="-267" type="curve" smooth="yes"/>
      <point x="752" y="-359"/>
      <point x="661" y="-392"/>
      <point x="513" y="-392" type="curve" smooth="yes"/>
      <point x="462" y="-392"/>
      <point x="386" y="-374"/>
      <point x="347" y="-364" type="curve"/>
      <point x="329" y="-437" type="line"/>
      <point x="349" y="-444"/>
      <point x="414" y="-462"/>
    </contour>
    <component base="c"/>
  </outline>
</glyph>
<glyph name="eth" format="2">
  <advance width="1200"/>
  <unicode hex="00F0"/>
  <outline>
    <contour>
      <point x="581" y="-17" type="curve" smooth="yes"/>
      <point x="875" y="-17"/>
      <point x="1022" y="205"/>
      <point x="1022" y="490" type="curve" smooth="yes"/>
      <point x="1022" y="808"/>
      <point x="870" y="1009"/>
      <point x="574" y="1128" type="curve"/>
      <point x="598" y="1179"/>
      <point x="636" y="1280"/>
      <point x="651" y="1330" type="curve"/>
      <point x="562" y="1366" type="line"/>
      <point x="553" y="1309"/>
      <point x="511" y="1195"/>
      <point x="490" y="1154" type="curve"/>
      <point x="454" y="1166"/>
      <point x="253" y="1229"/>
      <point x="195" y="1244" type="curve"/>
      <point x="150" y="1169" type="line"/>
      <point x="200" y="1161"/>
      <point x="377" y="1107"/>
      <point x="446" y="1084" type="curve"/>
      <point x="429" y="1046"/>
      <point x="358" y="938"/>
      <point x="343" y="923" type="curve"/>
      <point x="361" y="912"/>
      <point x="388" y="896"/>
      <point x="412" y="887" type="curve"/>
      <point x="444" y="923"/>
      <point x="507" y="1013"/>
      <point x="530" y="1056" type="curve"/>
      <point x="678" y="1008"/>
      <point x="870" y="874"/>
      <point x="901" y="730" type="curve"/>
      <point x="855" y="790"/>
      <point x="745" y="846"/>
      <point x="605" y="846" type="curve" smooth="yes"/>
      <point x="302" y="846"/>
      <point x="157" y="600"/>
      <point x="157" y="342" type="curve" smooth="yes"/>
      <point x="157" y="101"/>
      <point x="331" y="-17"/>
    </contour>
    <contour>
      <point x="576" y="53" type="curve" smooth="yes"/>
      <point x="406" y="53"/>
      <point x="249" y="155"/>
      <point x="249" y="352" type="curve" smooth="yes"/>
      <point x="249" y="564"/>
      <point x="367" y="774"/>
      <point x="613" y="774" type="curve" smooth="yes"/>
      <point x="789" y="774"/>
      <point x="931" y="646"/>
      <point x="931" y="463" type="curve" smooth="yes"/>
      <point x="931" y="253"/>
      <point x="832" y="53"/>
    </contour>
  </outline>
</glyph>
<glyph name="divide" format="2">
  <advance width="916"/>
  <unicode hex="00F7"/>
  <outline>
    <contour>
      <point x="422" y="846" type="curve" smooth="yes"/>
      <point x="479" y="846"/>
      <point x="528" y="889"/>
      <point x="528" y="950" type="curve" smooth="yes"/>
      <point x="528" y="1022"/>
      <point x="482" y="1070"/>
      <point x="415" y="1070" type="curve" smooth="yes"/>
      <point x="350" y="1070"/>
      <point x="296" y="1020"/>
      <point x="296" y="959" type="curve" smooth="yes"/>
      <point x="296" y="893"/>
      <point x="358" y="846"/>
    </contour>
    <contour>
      <point x="422" y="219" type="curve" smooth="yes"/>
      <point x="488" y="219"/>
      <point x="540" y="262"/>
      <point x="540" y="321" type="curve" smooth="yes"/>
      <point x="540" y="381"/>
      <point x="490" y="431"/>
      <point x="421" y="431" type="curve" smooth="yes"/>
      <point x="356" y="431"/>
      <point x="297" y="379"/>
      <point x="297" y="319" type="curve" smooth="yes"/>
      <point x="297" y="261"/>
      <point x="360" y="219"/>
    </contour>
    <contour>
      <point x="55" y="619" type="curve"/>
      <point x="191" y="619"/>
      <point x="674" y="619"/>
      <point x="819" y="619" type="curve"/>
      <point x="819" y="640"/>
      <point x="817" y="667"/>
      <point x="815" y="678" type="curve"/>
      <point x="779" y="680"/>
      <point x="691" y="684"/>
      <point x="597" y="684" type="curve" smooth="yes"/>
      <point x="401" y="684"/>
      <point x="133" y="679"/>
      <point x="53" y="677" type="curve"/>
      <point x="53" y="651"/>
      <point x="53" y="633"/>
    </contour>
  </outline>
</glyph>
<glyph name="oslash" format="2">
  <advance width="1190"/>
  <unicode hex="00F8"/>
  <anchor x="595" y="1063" name="top"/>
  <anchor x="605" y="0" name="bottom"/>
  <anchor x="605" y="532" name="center"/>
  <anchor x="786" y="0" name="ogonek"/>
  <anchor x="899" y="941" name="topright"/>
  <outline>
    <contour>
      <point x="999" y="1063" type="curve"/>
      <point x="982" y="1075"/>
      <point x="945" y="1086"/>
      <point x="914" y="1092" type="curve"/>
      <point x="705" y="663"/>
      <point x="406" y="226"/>
      <point x="149" y="-86" type="curve"/>
      <point x="164" y="-92"/>
      <point x="204" y="-105"/>
      <point x="224" y="-109" type="curve"/>
      <point x="426" y="131"/>
      <point x="731" y="571"/>
    </contour>
    <component base="o"/>
  </outline>
</glyph>
